<?xml version="1.0" standalone="no"?>
<!DOCTYPE svg PUBLIC "-//W3C//DTD SVG 1.1//EN" "http://www.w3.org/Graphics/SVG/1.1/DTD/svg11.dtd" >
<svg xmlns="http://www.w3.org/2000/svg">
<metadata></metadata>
<defs>
<font id="fzdahei-b02sregular" horiz-adv-x="2048" >
<font-face units-per-em="2048" ascent="1744" descent="-304" />
<missing-glyph horiz-adv-x="568" />
<glyph horiz-adv-x="0" />
<glyph horiz-adv-x="682" />
<glyph unicode=" "  horiz-adv-x="568" />
<glyph unicode="&#x09;" horiz-adv-x="568" />
<glyph unicode="&#xa0;" horiz-adv-x="568" />
<glyph unicode="!" horiz-adv-x="792" d="M264 1480l32 -1080h216l24 1080h-272zM280 0h256v272h-256v-272z" />
<glyph unicode="&#x22;" horiz-adv-x="968" d="M104 944h280v536h-280v-536zM584 944h288v536h-288v-536z" />
<glyph unicode="#" horiz-adv-x="1136" d="M24 336h184l-64 -336h200l64 336h200l-64 -336h208l64 336h232v208h-184l40 272h192v208h-152l72 392h-200l-80 -392h-192l72 392h-208l-72 -392h-232v-208h192l-48 -272h-224v-208zM456 544l40 272h208l-48 -272h-200z" />
<glyph unicode="$" horiz-adv-x="1136" d="M48 440q0 -424 464 -440v-80h112v80q432 40 464 416q8 328 -464 416v384q120 -8 136 -208h296q8 360 -432 408v96h-112v-96q-408 -56 -448 -408q0 -192 96 -280q80 -88 352 -152v-368q-160 16 -168 232h-296zM384 1024q8 184 128 192v-352q-128 40 -128 160zM624 208v344 q152 -40 144 -176q0 -152 -144 -168z" />
<glyph unicode="%" horiz-adv-x="1816" d="M128 1056q0 -392 336 -392t336 392t-336 392t-336 -392zM352 1056q0 224 112 208q104 0 112 -208q-8 -216 -112 -216q-112 -16 -112 216zM456 -8h152l776 1584h-152zM1056 360q0 -376 344 -376q336 0 336 376q0 392 -336 392q-344 0 -344 -392zM1280 360q0 232 120 216 q112 0 112 -216q-8 -208 -112 -208q-120 -16 -120 208z" />
<glyph unicode="&#x26;" horiz-adv-x="1592" d="M56 400q16 -400 576 -416q296 8 472 152l112 -136h384l-304 304q136 200 192 456q16 80 0 16q16 96 16 144h-320v-72q-8 -48 -8 -72q-16 -168 -72 -264l-304 304q280 152 288 376q-16 304 -448 320q-432 -24 -448 -320q8 -192 184 -320q-320 -200 -320 -472zM392 416 q0 152 136 272l384 -392q-104 -88 -272 -96q-232 16 -248 216zM488 1176q8 120 152 128q152 0 152 -120q-8 -112 -144 -208q-152 120 -160 200z" />
<glyph unicode="'" horiz-adv-x="480" d="M104 944h280v536h-280v-536z" />
<glyph unicode="(" horiz-adv-x="680" d="M160 624q0 -344 192 -808h208q-144 472 -152 784q8 456 152 880h-208q-200 -488 -192 -856z" />
<glyph unicode=")" horiz-adv-x="680" d="M120 -184h208q200 480 192 848q0 336 -192 816h-200q152 -544 152 -800q0 -408 -160 -864z" />
<glyph unicode="*" horiz-adv-x="1136" d="M144 952l312 40l-192 -248l184 -112l120 288l120 -288l192 104l-192 256l304 -48v216l-312 -32l200 240l-192 112l-120 -288l-112 280l-192 -104l192 -240l-312 40v-216z" />
<glyph unicode="+" horiz-adv-x="1192" d="M104 376h368v-376h248v376h376v240h-376v376h-248v-376h-368v-240z" />
<glyph unicode="," horiz-adv-x="568" d="M56 -216h216l240 488h-304z" />
<glyph unicode="-" horiz-adv-x="1192" d="M104 376h992v240h-992v-240z" />
<glyph unicode="." horiz-adv-x="568" d="M152 0h264v272h-264v-272z" />
<glyph unicode="/" horiz-adv-x="904" d="M88 -184h240l496 1664h-240z" />
<glyph unicode="0" horiz-adv-x="1136" d="M72 704q16 -712 488 -720q504 8 512 720q-16 736 -512 744q-472 -8 -488 -744zM384 704q0 528 184 536q184 -8 184 -536q0 -520 -184 -528q-184 8 -184 528z" />
<glyph unicode="1" horiz-adv-x="1136" d="M192 928q184 72 336 184v-1112h312v1416h-288q-168 -120 -360 -208v-280z" />
<glyph unicode="2" horiz-adv-x="1136" d="M48 0h1008v208h-696q56 64 224 208q480 376 464 632q-16 376 -488 400q-480 -16 -488 -424h312q16 200 176 216q160 -8 176 -184q8 -168 -520 -616q-136 -112 -168 -152v-288z" />
<glyph unicode="3" horiz-adv-x="1136" d="M48 392q0 -408 480 -408q464 32 504 368q0 304 -280 384q264 64 272 352q-32 320 -480 360q-456 -16 -480 -400h312q24 168 168 192q168 -8 176 -192q8 -216 -344 -224v-200q336 8 344 -232q-16 -200 -184 -216q-168 24 -176 216h-312z" />
<glyph unicode="4" horiz-adv-x="1136" d="M32 304h576v-304h296v304h200v232h-200v880h-296l-576 -840v-272zM264 536l344 504v-504h-344z" />
<glyph unicode="5" horiz-adv-x="1136" d="M64 352q16 -360 472 -368q480 32 520 472q-8 472 -432 488q-160 0 -264 -104l16 376h600v200h-864l-40 -832l304 -8q48 152 176 160q184 -16 200 -256q-16 -296 -208 -304q-152 8 -176 176h-304z" />
<glyph unicode="6" horiz-adv-x="1136" d="M72 584q0 -600 496 -600q248 8 408 152q120 136 120 344q-24 416 -440 440q-168 0 -264 -104q8 416 200 424q72 0 120 -32q40 -40 40 -136h304q-8 352 -424 376q-584 8 -560 -864zM392 448q16 256 192 264q184 -8 192 -264q-8 -264 -192 -272q-176 8 -192 272z" />
<glyph unicode="7" horiz-adv-x="1136" d="M72 1184h632l-456 -1184h304l440 1152v264h-920v-232z" />
<glyph unicode="8" horiz-adv-x="1136" d="M56 392q16 -392 512 -408q480 24 512 408q-8 280 -296 360q256 64 280 320q-16 352 -496 376q-456 -40 -488 -376q0 -240 272 -320v-8q-280 -88 -296 -352zM368 400q8 208 200 224q192 -8 208 -224q-16 -208 -200 -224q-200 8 -208 224zM368 1056q8 168 192 184 q208 -8 216 -184q-8 -176 -192 -192q-208 8 -216 192z" />
<glyph unicode="9" horiz-adv-x="1136" d="M40 968q40 -392 424 -432q160 -8 280 88q24 -448 -216 -448q-120 0 -152 176h-312q8 -376 472 -368q280 0 408 192q120 184 112 640q8 640 -512 632q-472 -32 -504 -480zM360 984q0 256 200 256q176 -8 184 -256q-8 -232 -184 -240q-200 0 -200 240z" />
<glyph unicode=":" horiz-adv-x="568" d="M152 0h264v272h-264v-272zM152 760h264v272h-264v-272z" />
<glyph unicode=";" horiz-adv-x="568" d="M56 -216h216l240 488h-304zM192 760h264v280h-264v-280z" />
<glyph unicode="&#x3c;" horiz-adv-x="1192" d="M80 376l1000 -376v264l-640 232l640 232v264l-1000 -376v-240z" />
<glyph unicode="=" horiz-adv-x="1192" d="M104 104h992v248h-992v-248zM104 600h992v240h-992v-240z" />
<glyph unicode="&#x3e;" horiz-adv-x="1192" d="M80 0l1000 376v240l-1000 376v-264l648 -232l-648 -232v-264z" />
<glyph unicode="?" horiz-adv-x="1024" d="M96 1256q176 48 272 48q248 0 248 -224q0 -88 -160 -272l-56 -56q-112 -120 -104 -208v-216h224v192q8 80 128 176q288 224 280 448q-16 336 -488 360q-168 8 -344 -40v-208zM272 0h264v272h-264v-272z" />
<glyph unicode="@" horiz-adv-x="1992" d="M56 520q56 -752 912 -816q288 0 504 112l-56 176q-240 -88 -440 -80q-648 48 -680 592q40 720 744 800q656 -16 696 -552q-56 -488 -328 -472q-96 16 -80 128l176 616h-184l-32 -120q-56 136 -256 144q-424 -64 -496 -624q0 -312 328 -328q128 -8 304 144 q72 -128 240 -136q448 16 536 600q-32 728 -792 808q-1000 -64 -1096 -992zM760 504q64 352 264 384q216 -8 192 -272q-120 -368 -336 -336q-144 32 -120 224z" />
<glyph unicode="A" horiz-adv-x="1472" d="M24 0h304l112 312h584l112 -312h320l-520 1480h-376zM520 560l216 632h8l200 -632h-424z" />
<glyph unicode="B" horiz-adv-x="1360" d="M136 0h560q576 24 600 384q-8 304 -328 384v8q256 88 264 320q-24 384 -536 384h-560v-1480zM456 248v392h248q18 1 35 1q221 0 221 -188v-13v-12q0 -181 -220 -181q-17 0 -36 1h-248zM456 888v344h248q208 0 208 -176q0 -168 -208 -168h-248z" />
<glyph unicode="C" horiz-adv-x="1360" d="M72 736q16 -736 616 -752q600 8 624 496h-336q-8 -272 -288 -280q-264 16 -280 536q16 528 280 544q272 -8 288 -280h336q-32 504 -624 512q-592 -24 -616 -776z" />
<glyph unicode="D" horiz-adv-x="1472" d="M136 0h504q736 8 744 736q-8 736 -744 744h-504v-1480zM448 248v984h168h26q406 0 406 -478v-18v-18q0 -471 -405 -470h-27h-168z" />
<glyph unicode="E" horiz-adv-x="1248" d="M120 0h1016v248h-696v392h624v248h-624v344h672v248h-992v-1480z" />
<glyph unicode="F" horiz-adv-x="1136" d="M144 0h312v632h600v248h-600v352h640v248h-952v-1480z" />
<glyph unicode="G" horiz-adv-x="1592" d="M80 736q16 -712 696 -752q208 0 336 16q168 0 328 48v744h-600v-248h288v-312q-24 -8 -16 0q-160 -32 -280 -32q-408 8 -416 536q8 536 416 544q296 0 296 -248h336v11q0 469 -688 469q-680 -48 -696 -776z" />
<glyph unicode="H" horiz-adv-x="1472" d="M144 0h312v648h568v-648h312v1480h-320v-584h-560v584h-312v-1480z" />
<glyph unicode="I" horiz-adv-x="568" d="M128 0h320v1480h-320v-1480z" />
<glyph unicode="J" horiz-adv-x="1136" d="M16 472q24 -488 481 -488h15q488 16 496 504v992h-312v-984v-24q-24 -272 -184 -272q-176 0 -176 272h-320z" />
<glyph unicode="K" horiz-adv-x="1360" d="M136 0h320v752l520 -752h392l-592 816l544 664h-368l-496 -640v640h-320v-1480z" />
<glyph unicode="L" horiz-adv-x="1136" d="M144 0h952v248h-640v1232h-312v-1480z" />
<glyph unicode="M" horiz-adv-x="1928" d="M120 0h296v1264l8 8l392 -1272h264l416 1272v-8v-1264h296v1480h-496l-336 -1080h-8l-312 1080h-520v-1480z" />
<glyph unicode="N" horiz-adv-x="1592" d="M136 0h296v1224l8 8l576 -1232h456v1480h-296v-1160l-8 -8l-560 1168h-472v-1480z" />
<glyph unicode="O" horiz-adv-x="1592" d="M88 736q16 -736 712 -752q680 16 704 752q-24 760 -704 776q-688 -16 -712 -776zM424 736q0 544 376 544q368 0 368 -544q0 -536 -368 -536q-376 0 -376 536z" />
<glyph unicode="P" horiz-adv-x="1248" d="M136 0h312v568h232q496 24 512 456v12q0 444 -580 444h-20h-456v-1480zM448 816v416h96q38 4 71 4q241 0 241 -200v-12v-12q0 -200 -241 -200q-33 0 -71 4h-96z" />
<glyph unicode="Q" horiz-adv-x="1592" d="M88 736q16 -736 712 -752h32q32 8 48 8q40 8 72 8h624v232h-104q-32 0 -96 -8q-72 0 -88 -8q200 216 216 520q-24 760 -704 776q-688 -16 -712 -776zM424 736q0 544 376 544q368 0 368 -544q0 -536 -368 -536q-376 0 -376 536z" />
<glyph unicode="R" horiz-adv-x="1360" d="M120 0h320v592h336q120 0 136 -192q8 -208 56 -400h344q-56 88 -80 352q0 16 -8 48q-16 320 -264 328v8q296 72 304 360q-8 376 -512 384h-632v-1480zM440 840v392h264h18q206 0 206 -184q0 -208 -224 -208h-264z" />
<glyph unicode="S" horiz-adv-x="1360" d="M72 472v-13q0 -475 568 -475q624 16 632 480v9q0 296 -512 399q-32 8 -40 8q-273 38 -273 191q0 8 1 17q8 176 240 192q232 0 240 -224h304q-24 432 -504 456q-592 -32 -616 -488q0 -296 488 -408q16 -8 56 -16q280 -56 280 -208q-8 -184 -296 -192q-248 16 -248 272 h-320z" />
<glyph unicode="T" horiz-adv-x="1248" d="M24 1232h440v-1232h320v1232h440v248h-1200v-248z" />
<glyph unicode="U" horiz-adv-x="1592" d="M152 552q16 -552 648 -568q616 16 640 568v928h-320v-808q1 -26 1 -51q0 -222 -65 -309q-72 -112 -256 -112t-264 112q-65 86 -65 309q0 25 1 51v808h-320v-928z" />
<glyph unicode="V" horiz-adv-x="1472" d="M24 1480l544 -1480h344l544 1480h-312l-384 -1168h-8l-384 1168h-344z" />
<glyph unicode="W" d="M24 1480l360 -1480h360l288 1128l264 -1128h352l376 1480h-296l-240 -1112h-8l-256 1112h-360l-288 -1112l-224 1112h-328z" />
<glyph unicode="X" horiz-adv-x="1472" d="M32 0h344l352 560l328 -560h392l-520 768l488 712h-336l-320 -504l-304 504h-392l488 -712z" />
<glyph unicode="Y" horiz-adv-x="1360" d="M24 1480l504 -1000v-480h312v480l496 1000h-320l-312 -680l-304 680h-376z" />
<glyph unicode="Z" horiz-adv-x="1248" d="M56 0h1136v248h-744l728 984v248h-1072v-248h688l-736 -984v-248z" />
<glyph unicode="[" horiz-adv-x="680" d="M120 -184h440v184h-192v1296h192v184h-440v-1664z" />
<glyph unicode="\" horiz-adv-x="568" d="M-48 1480l448 -1480h232l-464 1480h-216z" />
<glyph unicode="]" horiz-adv-x="680" d="M128 0v-184h432v1664h-432v-184h192v-1296h-192z" />
<glyph unicode="^" horiz-adv-x="568" d="M-24 1184h160l144 176l144 -176h184l-216 296h-208z" />
<glyph unicode="_" horiz-adv-x="1024" d="M0 -136v-104h1024v104h-1024z" />
<glyph unicode="`" horiz-adv-x="568" d="M-24 1480l264 -296h168l-168 296h-264z" />
<glyph unicode="a" horiz-adv-x="1136" d="M80 280q8 -280 336 -296h21q208 0 299 152q0 -64 16 -136h272q0 48 -8 80q-8 16 -8 32v560q0 384 -432 384q-200 0 -304 -64q-136 -80 -144 -256h296q16 144 136 152q128 -8 144 -128v-96q-256 0 -400 -56q-208 -96 -224 -328zM376 320q0 163 257 163q33 0 71 -3v-25 q0 -279 -176 -279q-144 8 -152 144z" />
<glyph unicode="b" horiz-adv-x="1248" d="M96 0h304q0 24 8 72v72q104 -160 320 -160q408 16 440 528q-32 520 -480 544q-168 -8 -272 -144h-8v568h-304v-1272q0 -40 -8 -112v-96zM408 512q16 336 224 344q216 0 216 -321v-23v-23q0 -313 -216 -313q-208 8 -224 336z" />
<glyph unicode="c" horiz-adv-x="1024" d="M64 512q32 -512 464 -528q432 0 456 392h-304q-8 -200 -152 -200q-128 0 -144 320v32v32q24 296 136 296q144 0 160 -192h304q-16 376 -456 392q-424 -32 -464 -544z" />
<glyph unicode="d" horiz-adv-x="1248" d="M80 512q32 -512 448 -528q224 0 312 160q0 -24 8 -72v-72h312q-8 96 -8 208v1272h-312v-568q-104 136 -280 144q-448 -24 -480 -544zM400 512v23q0 321 224 321q200 -16 216 -344q-16 -320 -216 -336q-224 0 -224 314v22z" />
<glyph unicode="e" horiz-adv-x="1136" d="M88 512v-17q0 -511 474 -511h14q432 0 472 320h-280q-38 -128 -175 -128h-17h-11q-166 0 -165 234v22h680q0 104 -8 200t-56 184q-120 240 -440 240q-464 -24 -488 -544zM400 640q8 216 176 216q184 0 184 -216h-360z" />
<glyph unicode="f" horiz-adv-x="680" d="M0 824h152v-824h312v824h184v208h-184q-5 55 -5 97q0 106 29 135q37 44 128 44q26 0 56 -4v192q-80 16 -168 16q-208 0 -288 -112q-65 -86 -65 -315q0 -26 1 -53h-152v-208z" />
<glyph unicode="g" horiz-adv-x="1248" d="M104 536q32 -488 424 -512q200 0 288 136q8 -54 8 -100q0 -244 -216 -244q-160 0 -176 128h-288q8 -336 480 -336h16q488 0 488 459v29v936h-312v-120q-72 144 -280 144q-400 -24 -432 -520zM416 528q0 328 200 328t200 -328q0 -304 -200 -304t-200 304z" />
<glyph unicode="h" horiz-adv-x="1248" d="M136 0h304v616q24 224 184 240q184 0 184 -240v-616h312v672q0 64 -24 160q-56 192 -336 224q-224 0 -312 -152h-8v576h-304v-1480z" />
<glyph unicode="i" horiz-adv-x="568" d="M120 1216h328v264h-328v-264zM128 0h312v1032h-312v-1032z" />
<glyph unicode="j" horiz-adv-x="568" d="M0 -184v-192q48 -8 104 -8q14 -1 28 -1q309 0 309 329q0 16 -1 32v1056h-304v-1088q-16 -120 -136 -128zM120 1216h328v264h-328v-264z" />
<glyph unicode="k" horiz-adv-x="1136" d="M136 0h312v560l312 -560h360l-384 592l360 448h-344l-304 -432v8v864h-312v-1480z" />
<glyph unicode="l" horiz-adv-x="568" d="M128 0h312v1480h-312v-1480z" />
<glyph unicode="m" horiz-adv-x="1928" d="M136 0h312v616q8 224 184 240q176 0 184 -240v-616h304v616q24 224 184 240q184 0 184 -240v-616h312v616q0 168 -32 248q-96 168 -328 192h-17q-212 0 -335 -192q-80 168 -328 192q-208 0 -312 -152h-8v128h-304v-1032z" />
<glyph unicode="n" horiz-adv-x="1248" d="M136 0h304v616q24 224 184 240q184 0 184 -240v-616h312v672q0 64 -24 160q-56 192 -336 224q-224 0 -312 -152l-8 8v120h-304v-1032z" />
<glyph unicode="o" horiz-adv-x="1248" d="M88 512q24 -512 536 -528q512 16 536 528q-24 520 -536 544q-512 -24 -536 -544zM408 512q0 344 216 344q224 0 224 -321v-23q0 -336 -224 -336q-216 0 -216 336z" />
<glyph unicode="p" horiz-adv-x="1248" d="M96 1032q0 -40 8 -112v-96v-1200h304v520h8q88 -160 312 -160q408 16 440 528q-32 520 -480 544q-168 -8 -272 -144h-8l-8 120h-304zM408 512q16 336 224 344q216 0 216 -321v-23v-23q0 -313 -216 -313q-208 8 -224 336z" />
<glyph unicode="q" horiz-adv-x="1248" d="M80 512q32 -512 448 -528q224 0 312 160v-520h312v1200q0 96 8 208h-312l-8 -128v8q-104 136 -280 144q-448 -24 -480 -544zM400 512v23q0 321 224 321q200 -16 216 -344q-16 -320 -216 -336q-224 0 -224 314v22z" />
<glyph unicode="r" horiz-adv-x="792" d="M112 1032q0 -48 8 -136v-72v-824h304v512v32q16 96 40 152q40 48 152 72h136v272q-18 1 -36 1q-234 0 -316 -201h-8v192h-280z" />
<glyph unicode="s" horiz-adv-x="1024" d="M56 296q16 -304 456 -312q440 32 464 320q-64 320 -384 344q-200 48 -200 112q0 96 120 96q128 -8 136 -104h280q-24 304 -416 304q-424 -32 -440 -304q-1 -10 -1 -20q0 -246 377 -316q200 -40 208 -128q0 -112 -144 -112q-152 8 -168 120h-288z" />
<glyph unicode="t" horiz-adv-x="792" d="M0 824h208v-504q-1 -18 -1 -34q0 -302 263 -303q13 0 26 1q120 8 248 16v184q-48 -8 -104 -8q-15 -3 -28 -3q-93 0 -94 133q0 18 2 38v480h224v208h-224v312l-312 -112v-200h-208v-208z" />
<glyph unicode="u" horiz-adv-x="1248" d="M128 360q0 -96 16 -160q64 -192 344 -216q208 0 312 144l16 -128h304v96q-8 56 -8 88v848h-312v-624q-8 -216 -184 -232q-176 0 -184 232v624h-304v-672z" />
<glyph unicode="v" horiz-adv-x="1136" d="M24 1032l384 -1032h336l368 1032h-288l-240 -704l-232 704h-328z" />
<glyph unicode="w" horiz-adv-x="1816" d="M16 1032l344 -1032h328l216 768h8l208 -768h328l360 1032h-304l-200 -776h-8l-216 776h-328l-216 -776h-8l-192 776h-320z" />
<glyph unicode="x" horiz-adv-x="1136" d="M16 0h320l208 376l208 -376h360l-344 528l336 504h-312l-208 -336l-192 336h-360l336 -480z" />
<glyph unicode="y" horiz-adv-x="1136" d="M32 1032l392 -1032l-128 -376h304l520 1408h-304l-232 -712l-224 712h-328z" />
<glyph unicode="z" horiz-adv-x="1024" d="M72 0h880v208h-584l568 616v208h-848v-208h552l-568 -616v-208z" />
<glyph unicode="{" horiz-adv-x="680" d="M112 568h8q136 0 136 -104v-416q16 -192 208 -232h152v184h-40q-96 0 -88 80v376q0 184 -168 192q168 24 168 176v376v16q8 80 88 80h40v184h-152q-192 -40 -208 -248v-416q0 -88 -144 -88v-160z" />
<glyph unicode="|" horiz-adv-x="568" d="M160 -496h248v2032h-248v-2032z" />
<glyph unicode="}" horiz-adv-x="680" d="M64 0v-184h160q184 40 200 232v416q0 88 144 88v160q-144 0 -144 104v416q-16 208 -200 248h-160v-184h40q96 0 88 -96v-376q8 -176 168 -192q-160 -24 -168 -176v-376q8 -88 -88 -80h-40z" />
<glyph unicode="~" horiz-adv-x="1192" d="M128 392h168q0 176 168 96q296 -192 352 -168q224 24 256 344h-176q8 -80 -40 -112q-40 -24 -120 16l-120 72q-168 104 -240 96q-224 -32 -248 -344z" />
<glyph unicode="&#xa4;" d="M504 1088l160 -152q-56 -88 -64 -192q0 -112 64 -216q8 -16 8 -24l-160 -152l136 -136l160 160q88 -72 224 -72q136 16 208 72l160 -160l128 136l-160 152q72 104 72 240q0 112 -64 192l168 160l-144 144l-160 -160q-72 48 -208 64q-136 0 -224 -72l-160 160zM808 728 q16 192 216 208q192 -8 216 -208q-24 -208 -216 -216q-200 16 -216 216z" />
<glyph unicode="&#xa7;" d="M608 712q-16 -216 352 -320q160 -32 160 -120q0 -96 -160 -96q-136 0 -304 80v-224q168 -48 336 -48q432 16 448 288q0 152 -192 256q176 80 184 264q-40 248 -288 280q-192 64 -192 144q0 88 112 88q88 0 272 -72q16 -8 24 -8v224q-168 72 -336 64q-368 -40 -392 -288 q8 -176 176 -248q-200 -88 -200 -264zM888 736q24 136 112 168q144 -16 152 -152q-16 -104 -136 -152q-120 40 -128 136z" />
<glyph unicode="&#xa8;" d="M744 1232h208v248h-208v-248zM1096 1232h208v248h-208v-248z" />
<glyph unicode="&#xad;" horiz-adv-x="1192" d="M104 376h992v240h-992v-240z" />
<glyph unicode="&#xb0;" d="M104 1176q24 -280 304 -304q288 32 312 304q-32 280 -312 312q-272 -24 -304 -312zM248 1176q8 152 160 168q152 -16 168 -168q-16 -144 -168 -160q-144 16 -160 160z" />
<glyph unicode="&#xb1;" d="M528 0h992v248h-992v-248zM552 544h352v-192h240v192h352v248h-352v200h-240v-200h-352v-248z" />
<glyph unicode="&#xb7;" d="M832 720q16 -176 192 -192q176 16 192 192q-16 176 -192 192q-176 -16 -192 -192z" />
<glyph unicode="&#xd7;" d="M528 152l176 -160l320 312l320 -312l176 160l-320 320l320 328l-176 168l-320 -320l-320 320l-176 -168l320 -328z" />
<glyph unicode="&#xe0;" d="M488 512q32 -512 440 -528q224 0 312 160h8q0 -72 8 -144h304v96q-8 72 -8 112v840h-304v-136h-8q-104 136 -272 144q-448 -24 -480 -544zM768 1472l280 -296h168l-168 296h-280zM800 512q-8 344 224 344q208 -8 224 -344q-16 -328 -224 -336q-232 0 -224 336z" />
<glyph unicode="&#xe1;" d="M488 512q32 -512 440 -528q224 0 312 160h8q0 -72 8 -144h304v96q-8 72 -8 112v840h-304v-136h-8q-104 136 -272 144q-448 -24 -480 -544zM800 512q-8 344 224 344q208 -8 224 -344q-16 -328 -224 -336q-232 0 -224 336zM848 1176h280l168 296h-160z" />
<glyph unicode="&#xe8;" d="M528 512q0 -528 496 -528q432 0 464 320h-280q-32 -128 -184 -128q-192 -8 -176 256h672q0 104 -8 200t-48 184q-120 240 -440 240q-472 -24 -496 -544zM688 1480l280 -296h168l-168 296h-280zM848 640q0 216 176 216t176 -216h-352z" />
<glyph unicode="&#xe9;" d="M528 512q0 -528 496 -528q432 0 464 320h-280q-32 -128 -184 -128q-192 -8 -176 256h672q0 104 -8 200t-48 184q-120 240 -440 240q-472 -24 -496 -544zM848 640q0 216 176 216t176 -216h-352zM856 1176h272l168 296h-160z" />
<glyph unicode="&#xea;" d="M528 512q0 -528 496 -528q432 0 464 320h-280q-32 -128 -184 -128q-192 -8 -176 256h672q0 104 -8 200t-48 184q-120 240 -440 240q-472 -24 -496 -544zM688 1184h176l144 176l144 -176h176l-208 296h-216zM848 640q0 216 176 216t176 -216h-352z" />
<glyph unicode="&#xec;" d="M784 1480l280 -296h168l-168 296h-280zM952 0h312v1032h-312v-1032z" />
<glyph unicode="&#xed;" d="M784 0h312v1032h-312v-1032zM816 1176h272l176 296h-168z" />
<glyph unicode="&#xf2;" d="M488 512q24 -512 536 -528q512 16 536 528q-24 520 -536 544q-512 -24 -536 -544zM704 1480l280 -296h160l-168 296h-272zM808 512q-8 352 216 344q224 8 216 -344q8 -336 -216 -336t-216 336z" />
<glyph unicode="&#xf3;" d="M488 512q24 -512 536 -528q512 16 536 528q-24 520 -536 544q-512 -24 -536 -544zM808 512q-8 352 216 344q224 8 216 -344q8 -336 -216 -336t-216 336zM904 1176h272l168 296h-160z" />
<glyph unicode="&#xf7;" d="M528 352h992v248h-992v-248zM904 -8h240v232h-240v-232zM904 728h240v240h-240v-240z" />
<glyph unicode="&#xf9;" d="M528 360q0 -96 16 -160q64 -192 344 -216q208 0 312 144l16 -128h304q-8 96 -8 184v848h-312v-624q-8 -216 -184 -232q-184 0 -184 232v624h-304v-672zM704 1480l280 -296h168l-176 296h-272z" />
<glyph unicode="&#xfa;" d="M528 360q0 -96 16 -160q64 -192 344 -216q208 0 312 144l16 -128h304q-8 96 -8 184v848h-312v-624q-8 -216 -184 -232q-184 0 -184 232v624h-304v-672zM904 1176h272l168 296h-160z" />
<glyph unicode="&#xfc;" d="M528 360q0 -96 16 -160q64 -192 344 -216q208 0 312 144l16 -128h304q-8 96 -8 184v848h-312v-624q-8 -216 -184 -232q-184 0 -184 232v624h-304v-672zM744 1232h208v248h-208v-248zM1096 1232h208v248h-208v-248z" />
<glyph unicode="&#x2000;" horiz-adv-x="820" />
<glyph unicode="&#x2001;" horiz-adv-x="1640" />
<glyph unicode="&#x2002;" horiz-adv-x="820" />
<glyph unicode="&#x2003;" horiz-adv-x="1640" />
<glyph unicode="&#x2004;" horiz-adv-x="546" />
<glyph unicode="&#x2005;" horiz-adv-x="410" />
<glyph unicode="&#x2006;" horiz-adv-x="273" />
<glyph unicode="&#x2007;" horiz-adv-x="273" />
<glyph unicode="&#x2008;" horiz-adv-x="205" />
<glyph unicode="&#x2009;" horiz-adv-x="328" />
<glyph unicode="&#x200a;" horiz-adv-x="91" />
<glyph unicode="&#x2010;" horiz-adv-x="1192" d="M104 376h992v240h-992v-240z" />
<glyph unicode="&#x2011;" horiz-adv-x="1192" d="M104 376h992v240h-992v-240z" />
<glyph unicode="&#x2012;" horiz-adv-x="1192" d="M104 376h992v240h-992v-240z" />
<glyph unicode="&#x2013;" horiz-adv-x="1224" d="M104 376h1024v240h-1024v-240z" />
<glyph unicode="&#x2014;" d="M0 616h2048v168h-2048v-168z" />
<glyph unicode="&#x2018;" d="M1384 992h304v320h-128v56q16 80 104 120v128q-232 -48 -280 -328v-296z" />
<glyph unicode="&#x2019;" d="M360 1296h128v-56q-16 -104 -104 -120v-128q256 40 280 328v296h-304v-320z" />
<glyph unicode="&#x201c;" d="M1152 1016h304v320h-128v56q16 80 104 120v128q-232 -48 -280 -328v-296zM1624 1016h304v320h-128v56q0 16 40 72q24 24 64 48v128q-256 -64 -280 -328v-296z" />
<glyph unicode="&#x201d;" d="M128 1320h128v-56q-16 -104 -104 -120v-128q256 40 280 328v296h-304v-320zM592 1320h128v-56q0 -32 -40 -72q-24 -32 -64 -48v-128q256 48 280 328v296h-304v-320z" />
<glyph unicode="&#x2026;" d="M176 704q8 -144 160 -152q136 8 144 152q-16 128 -152 144q-144 -8 -152 -144zM864 704q8 -144 160 -152q136 8 144 152q-16 128 -152 144q-144 -8 -152 -144zM1568 704q8 -144 160 -152q136 8 144 152q-16 128 -152 144q-144 -8 -152 -144z" />
<glyph unicode="&#x202f;" horiz-adv-x="328" />
<glyph unicode="&#x205f;" horiz-adv-x="410" />
<glyph unicode="&#x25fc;" horiz-adv-x="1040" d="M0 0v1040h1040v-1040h-1040z" />
</font>
</defs>
</svg>
