<?xml version="1.0" standalone="no"?>
<!DOCTYPE svg PUBLIC "-//W3C//DTD SVG 1.1//EN" "http://www.w3.org/Graphics/SVG/1.1/DTD/svg11.dtd" >
<svg>
<metadata>
Created by FontForge 20090914 at Tue Aug 16 08:33:57 2016
 By www-data
URW Software, Copyright 1994 by URW
</metadata>
<defs>
<font id="LcdD" horiz-adv-x="1010" >
  <font-face 
    font-family="LcdD"
    font-weight="400"
    font-style="italic"
    font-stretch="normal"
    units-per-em="2048"
    panose-1="4 4 6 4 2 11 2 2 3 4"
    ascent="2011"
    descent="-37"
    x-height="1365"
    cap-height="1379"
    bbox="-158 -512 2363 1698"
    underline-thickness="97"
    underline-position="-138"
    slope="100"
    unicode-range="U+0020-U+F002"
  />
<missing-glyph horiz-adv-x="512" 
d="M51 0v1365h410v-1365h-410zM410 51v1263h-308v-1263h308z" />
    <glyph glyph-name=".notdef" horiz-adv-x="512" 
d="M51 0v1365h410v-1365h-410zM410 51v1263h-308v-1263h308z" />
    <glyph glyph-name="space" unicode=" " horiz-adv-x="512" 
 />
    <glyph glyph-name="exclam" unicode="!" horiz-adv-x="505" 
d="M562 1288l-92 -524l-94 -82l-70 82l92 524l101 91zM441 600l-59 -332l-93 -81l-71 81l59 332l99 83zM364 164l-29 -164h-164l29 164h164z" />
    <glyph glyph-name="quotedbl" unicode="&#x22;" horiz-adv-x="710" 
d="M542 1365l-41 -231l-97 -83l-67 83l41 231h164zM815 1365l-41 -231l-97 -83l-67 83l41 231h164z" />
    <glyph glyph-name="numbersign" unicode="#" 
d="M481 1254l101 88l62 -88l-80 -454l-93 -88l-70 88zM527 589l-85 -482l-91 -76l-71 86l82 462l101 86zM266 771h109l68 -82l-97 -82h-109l-70 82zM889 800l-93 -88l-71 88l80 454l102 88l62 -88zM852 589l-85 -482l-91 -76l-72 86l82 462l102 86zM590 771h109l68 -82
l-96 -82h-110l-70 82zM910 771h109l68 -82l-97 -82h-109l-70 82z" />
    <glyph glyph-name="dollar" unicode="$" 
d="M845 1477l-15 -82h-164l14 82l104 81zM949 1201h-436l-74 84l48 40c24 20.667 39.833 32.5 47.5 35.5s26.167 4.5 55.5 4.5h388l70 -86zM481 1180l-70 -397.999l-97 -79l-29 35c-20 23.333 -30 46.333 -30 69c0 12.667 1 25 3 37l49 278c8 45.333 22 76.666 42 93.999
l62 50zM438 765.001l362 0.000976562c22 0 36.167 -1.83301 42.5 -5.5s19.833 -17.834 40.5 -42.501l30 -36l-100 -80h-343c-30.667 0 -51.667 1.83301 -63 5.5s-23 12.167 -35 25.5l-39 46zM768 175.002l71 402l97 78l37 -45c16 -18 24 -36 24 -54
c0 -9.33301 -2.66699 -29 -8 -59l-51 -288c-6 -30 -22.333 -55.667 -49 -77l-51 -41zM302 164.002h433.001l76 -94l-52 -44c-20.667 -17.333 -51.334 -26 -92.001 -26h-394l-73 70zM576.001 -44.998l-14 -81l-100 -83l-65 83l15 81h164z" />
    <glyph glyph-name="percent" unicode="%" horiz-adv-x="1590" 
d="M1461 1049l-443 -376h-114l18 103l442 376h116zM885 570l-443 -376h-115l19 103l442 376h116zM703 1201l-240 -0.000976562l-77 93l56 49c11.333 10.667 20.5 17 27.5 19s21.833 3 44.5 3h193c22 0 36.667 -1.66699 44 -5s19 -13.666 35 -30.999l31 -34zM433 1180
l-69.999 -396.999l-110 -86l-23 31c-18.667 25.333 -28 43.666 -28 54.999c0 10 1.66699 25.333 5 46l55 309c5.33301 29.333 9.66602 47.5 12.999 54.5s13 17.833 29 32.5l53 47zM662.001 783l70 397l108 92l25 -28c19.333 -21.333 29 -42 29 -62c0 -10 -1 -20 -3 -30
l-58 -332c-4.66699 -24.667 -9.16699 -41 -13.5 -49s-15.5 -20.333 -33.5 -37l-45 -41zM390.001 765h243.001l79 -94l-28 -24c-33.333 -30.667 -62 -46 -86 -46h-212c-24.667 0 -41.834 1.83301 -51.501 5.5s-19.5 12.167 -29.5 25.5l-31 39zM1437 601l-240 -0.000976562
l-77 93l55 49c12 10.667 21.5 17 28.5 19s21.833 3 44.5 3h193c22 0 36.667 -1.66699 44 -5s19 -13.666 35 -30.999l31 -33zM1167 578.999l-70.001 -395.999l-110 -87l-23 32c-14.667 19.333 -23.167 31.166 -25.5 35.499s-3.5 10.5 -3.5 18.5s2 23.667 6 47l55 308
c4.66699 29.333 8.83398 47.5 12.501 54.5s13.5 17.833 29.5 32.5l53 47zM1396 183l70 396l108 92l25 -28c19.333 -21.333 29 -42 29 -62c0 -8.66699 -1 -18.667 -3 -30l-58 -331c-4.66699 -25.333 -9.16699 -42 -13.5 -50s-15.5 -20.333 -33.5 -37l-46 -41zM1124 164
h241.999l79 -93l-27 -25c-34 -30.667 -62.667 -46 -86 -46h-212c-25.333 -0 -42.666 1.83301 -51.999 5.5s-19.333 12.167 -30 25.5l-30 40z" />
    <glyph glyph-name="ampersand" unicode="&#x26;" horiz-adv-x="1051" 
d="M944 1201h-429.999l-75 89l41 36c19.333 18 33.666 29 42.999 33s24 6 44 6h406l71 -86zM481.001 1180l-68.999 -392.001l-95 -82l-38 48c-16 19.333 -24 40 -24 62c0 8.66699 1 18.334 3 29.001l51 288c7.33301 38.667 24.666 70 51.999 94l48 39zM1069 952.999
l-29 -165l-98 -83l-67 81l30 167l101 82zM437.002 764.999h414l65 -83l-102 -81h-408l-66 81zM1087 785.999l84 -105l-121 -103l-89 103zM375.002 577.999l-71 -398.999l-106 -87l-36 44c-11.333 14 -17 32 -17 54c0 10 1 21 3 33l50 282
c4.66699 26.667 9.16699 44.667 13.5 54s12.5 19.666 24.5 30.999l77 69zM768.002 176l71 402l100 81l64 -81l-64 -364c-6 -32 -20.333 -58 -43 -78l-57 -47zM334.002 164l401.001 -0.000976562l79 -96l-49 -40c-24.667 -19.333 -66.334 -28.666 -125.001 -27.999h-311
c-39.333 0 -66.333 9 -81 27l-31 39z" />
    <glyph glyph-name="quotesingle" unicode="'" horiz-adv-x="437" 
d="M542 1365l-41 -231l-97 -83l-67 83l41 231h164z" />
    <glyph glyph-name="parenleft" unicode="(" horiz-adv-x="546" 
d="M642 1201h-128l-75 91l38 36c24.667 24 48.667 36.333 72 37h122l74 -84zM482 1183l-74 -421l-93 -82l-71 82l65 369c4.66699 26.667 9.5 45 14.5 55s14.833 21.333 29.5 34l59 50zM378 598l-72 -412l-111 -92l-29 39c-14 19.333 -21 38 -21 56c0 8.66699 1 18 3 28
l67 381l98 82zM335 164l124 0.000976562l72 -84l-101 -80h-108c-30 -0.666992 -55 10.666 -75 33.999l-27 33z" />
    <glyph glyph-name="parenright" unicode=")" horiz-adv-x="546" 
d="M145 164h128l75 -91l-38 -36c-24.667 -24 -48.667 -36.333 -72 -37h-122l-74 84zM305 183l74 420l93 82l71 -82l-65 -368c-4.66699 -27.333 -9.5 -45.833 -14.5 -55.5s-14.833 -21.167 -29.5 -34.5l-59 -50zM408 768l73 412.001l111 92l29 -40c14 -18.667 21 -37 21 -55
c0 -8.66699 -1 -18.334 -3 -29.001l-67 -380l-99 -83zM451 1201l-124 -0.000976562l-71 84l100 80h109c29.333 0.666992 54.333 -10.666 75 -33.999l27 -33z" />
    <glyph glyph-name="asterisk" unicode="*" horiz-adv-x="841" 
d="M720 1327l-37 -209l-67 -74l-55 93l32 184l70 58zM938 1014l-191 -38l-108 43l70 71l188 41l81 -44zM732 708l-106 160l9 115l92 -43l96 -155l-3 -91zM354 815l134 146l110 26l-9 -101l-129 -145l-95 -5zM335 1200l192 -82l63 -97l-107 -18l-187 77l-36 83z" />
    <glyph glyph-name="plus" unicode="+" 
d="M779 1140l-65 -352l-96 -81l-68 81l68 368l96 71zM223 765h305l68 -82l-98 -82h-306l-70 80zM740 765h316l70 -82l-101 -82h-315l-68 82zM676 586l-65 -354l-90 -73l-71 89l60 322l104 90z" />
    <glyph glyph-name="comma" unicode="," horiz-adv-x="437" 
d="M330 164l-41 -231l-97 -83l-67 83l41 231h164z" />
    <glyph glyph-name="hyphen" unicode="-" horiz-adv-x="560" 
d="M478 491h-259l-55 126l117 38h261l57 -126z" />
    <glyph glyph-name="period" unicode="." horiz-adv-x="437" 
d="M330 164l-29 -164h-164l29 164h164z" />
    <glyph glyph-name="slash" unicode="/" horiz-adv-x="1025" 
d="M1220 1262l-495 -579h-92l-4 110l490 572h120zM637 580l-495 -580h-115l19 110l490 573h97z" />
    <glyph glyph-name="zero" unicode="0" 
d="M920 1201h-408l-77 89l44 41c24.667 22.667 51.667 34 81 34h374c30.667 0 54.667 -11.333 72 -34l30 -39zM480 1174l-71.999 -409l-97 -85l-67 85l63 354c5.33301 33.333 10.166 54.833 14.499 64.5s13.833 20.167 28.5 31.5l59 49zM872.001 765l72 409.001l116 92
l22 -28c16.667 -21.333 25 -41.333 25 -60c0 -6.66699 -1 -15.334 -3 -26.001l-68 -387l-99 -82zM379.001 601.001l-74 -418l-112 -94l-28 34c-15.333 18.667 -23 37 -23 55c0 5.33301 0.666992 12.333 2 21l71 402l96 79zM770.001 185.001l73 415.999l97 82l67 -82
l-63 -355c-6 -36 -10.833 -58.167 -14.5 -66.5s-13.167 -18.166 -28.5 -29.499l-63 -48zM332.001 164h403l79 -98l-50 -42c-24 -16.667 -51.333 -24.667 -82 -24h-360c-34.667 0 -60 8.66699 -76 26l-32 40z" />
    <glyph glyph-name="one" unicode="1" horiz-adv-x="560" 
d="M456 1201h-133l-71 74l100 90h298zM408 764l71 407l193 163l-101 -570l-97 -88zM285 68l94 533l95 76l69 -76l-94 -533l-97 -82z" />
    <glyph glyph-name="two" unicode="2" horiz-adv-x="956" 
d="M900 1201h-435l-68 80l93 84h419c31.333 1.33301 58 -11 80 -37l24 -33zM849 784l69.001 390.999l115 95l33 -40c9.33301 -12 14 -28.333 14 -49c0 -9.33301 -1.33301 -22.666 -4 -39.999l-54 -304c-3.33301 -18 -7.83301 -32 -13.5 -42s-15.834 -21.667 -30.501 -35
l-62 -54zM892.001 682.999l-67 -55.001c-14 -11.333 -26.667 -18.666 -38 -21.999s-28.666 -5 -51.999 -5h-352l-69 80l64 59c11.333 10.667 22.666 17.5 33.999 20.5s30.333 4.5 57 4.5h354zM349.001 583.998l-70 -400l-192 -158l86 489c4 22 8.5 37 13.5 45
s18.833 22 41.5 42l60 54zM306.001 163.998h433l67 -83l-96 -81h-603z" />
    <glyph glyph-name="three" unicode="3" horiz-adv-x="874" 
d="M787 1201h-425l-71 81l100 83h403c24 0 40.833 -2.16699 50.5 -6.5s21.167 -14.833 34.5 -31.5l25 -33zM739 784l70 394.999l115 90l24 -28c15.333 -17.333 23 -36.666 23 -57.999c0 -9.33301 -2 -24.666 -6 -45.999l-52 -298c-6 -30.667 -19.333 -55.334 -40 -74.001
l-65 -57zM285 764.999h425l71 -80l-100 -84h-425l-72 84zM633 180.999l69.999 394.999l100 86l33 -38c17.333 -20 26 -40.333 26 -61c0 -8 -1 -18 -3 -30l-57 -321c-3.33301 -18.667 -8.16602 -33.167 -14.499 -43.5s-17.5 -22.166 -33.5 -35.499l-50 -41zM178.999 163.998
h425.001l76 -93l-47 -42c-22.667 -19.333 -55.334 -29 -98.001 -29h-399l-67 81z" />
    <glyph glyph-name="four" unicode="4" horiz-adv-x="956" 
d="M446 1292l-90 -509.999l-93 -81l-35 40c-19.333 21.333 -29 42.666 -29 63.999c0 8.66699 1.66699 22.667 5 42l79 445l99 87zM1074 1290l-90 -508l-96 -81l-67 83l89 506l98 89zM383 765.001h411.999l67 -84l-105 -80h-339c-41.333 -0.666992 -70.666 7 -87.999 23
l-48 53zM947.999 575.001l-90 -508l-96 -81l-67 81l89 508l96 78z" />
    <glyph glyph-name="five" unicode="5" horiz-adv-x="956" 
d="M922 1201h-435l-137 164h601l69 -86zM454 1181l-70 -397l-94 -77l-36 42c-18 21.333 -27 42.333 -27 63c0 8 1.33301 18.667 4 32l88 498zM413 765h355.001c24.667 0 41.667 -2.33301 51 -7s22 -16.667 38 -36l32 -39l-105 -82h-331c-32 0 -54.333 2.33301 -67 7
s-26.334 15.667 -41.001 33l-34 40zM741.001 177l71 402l99 81l35 -42c16 -18.667 24 -38.334 24 -59.001c0 -8.66699 -2 -23.667 -6 -45l-49 -277c-7.33301 -43.333 -21 -74.666 -41 -93.999l-63 -51zM275.001 164h432l77 -94l-45 -40c-24 -20 -55.667 -30 -95 -30h-398
l-70 81z" />
    <glyph glyph-name="six" unicode="6" horiz-adv-x="983" 
d="M949 1201h-436l-76 88l51 44c14.667 12.667 28.5 21.167 41.5 25.5s31.833 6.5 56.5 6.5h392l72 -79zM481 1181l-70 -396.002l-94 -78l-70 78l63 358c4 20.667 9 36.334 15 47.001s16.667 22.334 32 35.001l53 43zM439 764.998l362 -0.000976562
c21.333 0 36.5 -2.16699 45.5 -6.5s19.5 -14.166 31.5 -29.499l36 -46l-100 -82h-404l-70 82zM376 582.997l-71 -398.001l-108 -89l-33 42c-13.333 17.333 -20 33.333 -20 48c0 8.66699 1.33301 20.334 4 35.001l62 351l102 88zM769 179.996l70 399l96 77l41 -49
c13.333 -15.333 20 -30.333 20 -45c0 -14 -2.33301 -34.333 -7 -61l-48 -270c-4 -24.667 -9.33301 -43.5 -16 -56.5s-18 -26.167 -34 -39.5l-52 -45zM333 163.996l402.999 -0.00195312l76 -96l-38 -32c-18.667 -15.333 -34.667 -25.166 -48 -29.499
s-34.666 -6.5 -63.999 -6.5h-311c-34.667 0 -57.5 1.83301 -68.5 5.5s-23.167 13.834 -36.5 30.501l-26 32z" />
    <glyph glyph-name="seven" unicode="7" horiz-adv-x="819" 
d="M728 1201h-432l-71 74l100 90h599zM681 764l72 407l192 164l-100 -571l-95 -88zM558 69l94 532l98 76l66 -76l-94 -532l-94 -83z" />
    <glyph glyph-name="eight" unicode="8" 
d="M924 1201h-412l-74 87l47 44c24 22 50.333 33 79 33h370c29.333 -0.666992 53 -11.667 71 -33l33 -42zM480 1175l-69 -392l-93 -76l-38 43c-17.333 20.667 -26 41.334 -26 62.001c0 8 1.33301 20 4 36l49 278c6 31.333 22 59.666 48 84.999l56 53zM875 782l69 395l114 89
l30 -40c12 -16 18 -32.333 18 -49c0 -8.66699 -1.33301 -19.667 -4 -33l-52 -298c-7.33301 -42 -24.333 -74.667 -51 -98l-56 -45zM439 765h408l69 -84l-98 -80h-408l-70 80zM376 586l-72 -407l-109 -87l-36 46c-10 14 -15 30 -15 48c0 8.66699 1 18.334 3 29.001l54 309
c5.33301 29.333 17 51.666 35 66.999l76 67zM768 179l70 395l98 81l40 -46c13.333 -16 20 -34 20 -54c0 -10 -1.33301 -23.333 -4 -40l-54 -302c-4 -22.667 -8 -37.5 -12 -44.5s-14.333 -17.833 -31 -32.5l-56 -47zM333 164l407.999 -0.000976562l74 -96l-45 -38
c-15.333 -13.333 -28.666 -21.666 -39.999 -24.999s-30.333 -5 -57 -5h-341c-41.333 -0.666992 -71.333 9.33301 -90 30l-28 36z" />
    <glyph glyph-name="nine" unicode="9" horiz-adv-x="983" 
d="M275 164h436l75 -88l-50 -44c-14.667 -12.667 -28.5 -21.167 -41.5 -25.5s-31.833 -6.5 -56.5 -6.5h-392l-72 79zM743 184l70 396.002l97 81l67 -81l-63 -358c-4 -20.667 -9 -36.334 -15 -47.001s-16.667 -22.334 -32 -35.001l-53 -43zM785 601.002l-363 0.000976562
c-20.667 0 -35.5 2.16699 -44.5 6.5s-19.5 14.166 -31.5 29.499l-36 46l100 82h404l70 -82zM848 782.003l71 401l108 87l33 -42c13.333 -17.333 20 -33.666 20 -48.999c0 -8.66699 -1.33301 -20.334 -4 -35.001l-61 -346l-103 -93zM455 1185l-70 -399l-94 -75l-43 48
c-13.333 14 -20 29 -20 45c0 14.667 2.33301 34.667 7 60l48 270c4 25.333 9.33301 44.333 16 57s18 25.667 34 39l52 45zM891 1201h-402.998l-76 96l38 31c18.667 16 34.667 26.167 48 30.5s34.666 6.5 63.999 6.5h311c34 0 56.667 -2 68 -6s23.666 -14.333 36.999 -31
l26 -31z" />
    <glyph glyph-name="colon" unicode=":" horiz-adv-x="437" 
d="M407 600l-29 -164h-164l29 164h164zM330 164l-29 -164h-164l29 164h164z" />
    <glyph glyph-name="semicolon" unicode=";" horiz-adv-x="437" 
d="M406 600l-29 -164h-163l29 164h163zM330 164l-41 -231l-97 -83l-67 83l41 231h164z" />
    <glyph glyph-name="less" unicode="&#x3c;" horiz-adv-x="1024" 
d="M1133 1198v-129l-791 -367l791 -385v-128l-942 455v117z" />
    <glyph glyph-name="equal" unicode="=" 
d="M1080 901l71 -82l-100 -82h-833l-71 80l100 84h833zM1032 628l71 -82l-100 -82h-833l-71 80l100 84h833z" />
    <glyph glyph-name="greater" unicode="&#x3e;" horiz-adv-x="1024" 
d="M193 1198l937 -458v-117l-937 -434v128l788 363l-788 389v129z" />
    <glyph glyph-name="question" unicode="?" horiz-adv-x="956" 
d="M894 1201h-436l-64 81l93 83h425c17.333 0 30.833 -2.5 40.5 -7.5s20.167 -14.5 31.5 -28.5l24 -32zM849 786l69 391.001l112 93l33 -43c10.667 -14 16 -30 16 -48c0 -10.667 -1.66699 -25.334 -5 -44.001l-53 -302c-6 -28 -24 -54.333 -54 -79l-54 -46zM885 687.001
l-63 -54c-24 -20 -55 -30.667 -93 -32h-348l-68 84l64 57c18 16 36.333 24 55 24l38 -1h351zM349 584.001l-55 -311.001l-97 -81l-67 81l43 245c4.66699 24.667 10.167 42.334 16.5 53.001s20.5 25 42.5 43l55 46zM275 164l-29 -164h-164l29 164h164z" />
    <glyph glyph-name="at" unicode="@" horiz-adv-x="1193" 
d="M1124 1204l94 74l25 -39c12 -17.333 18 -30 18 -38c0 -7.33301 -1 -16.333 -3 -27l-38 -218l-82 -63l-57 67zM1053 953l60 -66l-83 -65h-344l-63 65l45 37c15.333 12.667 27.333 20.667 36 24s21.667 5 39 5h310zM1054 808l76 61l62 -70l-56 -317l-72 -64l-66 71z
M601 485l-86.001 -71l-31 35c-12 13.333 -18 29 -18 47c0 11.333 0.666992 21.333 2 30l39 216c4.66699 26 9.33398 44 14.001 54s13.667 20 27 30l51 40l59 -61zM976.999 472l69.001 -77l-31 -25c-16.667 -13.333 -30.334 -21.5 -41.001 -24.5s-30.667 -4.5 -60 -4.5h-265
c-25.333 0 -43 1.66699 -53 5s-20.667 11.333 -32 24l-23 25l93 77h343zM1111 1228h-625l-67 71l36 32c21.333 18.667 48.333 28 81 28h581c28 0 48.333 -9.33301 61 -28l22 -31zM470 1196l-74 -420.001l-85 -82l-65 82l63 355c8 44.667 20.333 74.334 37 89.001l59 50z
M364 590.999l-73 -412l-104 -92l-29 39c-10 14 -15 31.667 -15 53c0 8.66699 1 19 3 31l67 381l92 82zM305 149.999l718 0.000976562l75 -70l-101 -80h-682c-30 -0.666992 -55 10.666 -75 33.999l-27 33z" />
    <glyph glyph-name="A" unicode="A" 
d="M925 1201l-409 -0.000976562l-80 90l56 49c12 10.667 23.5 17.5 34.5 20.5s28.5 4.5 52.5 4.5h351c30.667 0.666992 54.667 -7.66602 72 -24.999l36 -47zM483 1186l-69.998 -397l-94 -80l-70 80l60 342c5.33301 28.667 11.166 49 17.499 61s18.166 25 35.499 39l50 40z
M876.002 785.999l70 394.001l113 91l18 -22c20.667 -24.667 31 -46.334 31 -65.001c0 -9.33301 -1.66699 -23 -5 -41l-62 -354l-98 -83zM439.002 765h413l65 -79l-101 -85h-406l-72 80zM376.002 582l-89 -506l-94 -90l-70 90l89 506l99 78zM1004 582l-89 -506l-96 -90
l-68 90l89 503l98 81z" />
    <glyph glyph-name="B" unicode="B" 
d="M923 1201h-411l-134 164h558c19.333 0 34.333 -2.5 45 -7.5s21.667 -14.833 33 -29.5l26 -34zM480 1176l-69 -393l-92 -77l-72 77l99 561zM875 783l70 393.001l115 92l27 -34c13.333 -16 20 -32.667 20 -50c0 -10.667 -1.33301 -23.334 -4 -38.001l-53 -302
c-6.66699 -40 -17.667 -66.333 -33 -79l-78 -59zM812 601.001h-403l-67 82l99 82h409l66 -82zM375 581.001l-70 -399l-191 -154l97 550l105 81zM769 179.001l70 399.001l101 81l29 -36c19.333 -24 29 -44 29 -60c0 -8.66699 -1.33301 -20.334 -4 -35.001l-55 -311
c-5.33301 -32 -19 -57.667 -41 -77l-58 -47zM337 164.002h397l81 -94l-36 -31c-28.667 -25.333 -59.667 -38.333 -93 -39h-552z" />
    <glyph glyph-name="C" unicode="C" horiz-adv-x="874" 
d="M939 1201l-423 0.000976562l-75 92l42 36c18 15.333 32.5 25.166 43.5 29.499s26.5 6.5 46.5 6.5h395l78 -82zM482 1183l-74 -418.002l-95 -83l-68 83l64 364c5.33301 30.667 9.83301 49.834 13.5 57.501s14.167 18.834 31.5 33.501l60 52zM379 600.999l-72 -413
l-111 -90l-34 42c-11.333 14 -17 30.333 -17 49c0 7.33301 2.66699 25.333 8 54l63 358l97 81zM331 163.999h425l73 -83l-102 -81h-374c-48 -0.666992 -81.333 9.33301 -100 30l-34 43z" />
    <glyph glyph-name="D" unicode="D" 
d="M925 1201h-409l-140 164h548c24 0 40.5 -2 49.5 -6s19.833 -14 32.5 -30l32 -40zM482 1184l-72 -407l-93 -88l-71 88l100 565zM872 765l72 406.999l115 93l31 -38c10.667 -14 16 -30.667 16 -50c0 -11.333 -1.66699 -25.666 -5 -42.999l-65 -369l-93 -88zM381 612.999
l-74 -420l-192 -162l101 572l101 86zM843 600.999l100 76l64 -76l-64 -368c-5.33301 -28 -10.5 -47.667 -15.5 -59s-13.5 -22.333 -25.5 -33l-59 -50l-74 86zM332 163.999h406l80 -97l-32 -31c-28 -24.667 -63.333 -36.667 -106 -36h-548z" />
    <glyph glyph-name="E" unicode="E" horiz-adv-x="874" 
d="M940 1201h-430l-135 164h594l76 -83zM481 1181l-69 -394l-93 -82l-71 82l98 556zM834 601h-426l-70 80l99 84h426l72 -84zM376 584l-71 -399l-191 -156l95 540l106 89zM334 164h423l72 -84l-101 -80h-595z" />
    <glyph glyph-name="F" unicode="F" horiz-adv-x="874" 
d="M940 1201h-425l-137 164h591l77 -80zM481 1183l-69 -393l-92 -82l-72 82l98 556zM438 765h425l73 -80l-102 -84h-425l-70 80zM376 586l-90 -513l-93 -87l-71 87l88 500l102 88z" />
    <glyph glyph-name="G" unicode="G" horiz-adv-x="983" 
d="M949 1201h-430.998l-76 85l43 37c23.333 20 40.166 32 50.499 36s29.166 6 56.499 6h386l71 -79zM482.002 1185l-78 -440l-94 -75l-68 85l67 377c4 22.667 9.5 40 16.5 52s19.5 25.333 37.5 40l52 40zM377.002 591l-72 -412l-111 -88l-26 32c-16.667 20 -25 39 -25 57
c0 8 2 24 6 48l64 363l97 79zM727.002 755h283l-197 -164h-115l-72 79zM768.002 175l70 396l191 156l-90 -510c-4.66699 -26.667 -9.66699 -45 -15 -55s-17 -22 -35 -36l-48 -40zM333.002 164h404.001l79 -101l-55 -43c-18.667 -13.333 -46 -20 -82 -20h-322
c-32.667 0 -55.834 1.66699 -69.501 5s-25.167 10.333 -34.5 21l-37 40z" />
    <glyph glyph-name="H" unicode="H" 
d="M500 1288l-88 -501l-92 -81l-72 81l88 501l103 91zM1128 1288l-88 -501l-94 -81l-70 81l89 501l100 91zM440 765h410l68 -82l-97 -82h-410l-70 82zM376 582l-90 -510l-93 -86l-71 86l89 506l101 83zM1003 578l-89 -506l-95 -86l-69 86l88 499l99 81z" />
    <glyph glyph-name="I" unicode="I" horiz-adv-x="382" 
d="M500 1288l-92 -524l-94 -84l-70 84l92 524l101 91zM379 601l-93 -528l-95 -87l-69 87l93 528l99 79z" />
    <glyph glyph-name="J" unicode="J" horiz-adv-x="983" 
d="M1101 1288l-92 -524l-93 -84l-71 84l93 524l101 91zM980 601l-64.002 -365c-5.33301 -30.667 -12.666 -54.167 -21.999 -70.5s-24.666 -32.5 -45.999 -48.5l-34 -25l-71 94l73 415l100 80zM351.998 601l-73 -415l-113 -94l-21 25c-18.667 23.333 -28 45 -28 65
c0 10 2.33301 28 7 54l64 365l100 80zM302.998 164h408l74 -94l-49 -38c-20 -15.333 -35.833 -24.5 -47.5 -27.5s-35.5 -4.5 -71.5 -4.5h-299c-33.333 -0 -55.833 1.83301 -67.5 5.5s-23.5 12.5 -35.5 26.5l-28 34z" />
    <glyph glyph-name="K" unicode="K" 
d="M501 1295l-89 -506l-91 -79l-73 79l89 506l102 84zM1119 1238l-536 -439h-133l22 124l547 442h122zM444 765h338c29.333 0 47.333 -1 54 -3s17 -10 31 -24l50 -52l-103 -85h-399l-72 83zM376 583l-90 -509l-93 -88l-71 88l89 506l101 83zM750 74l89 506l99 82l28 -34
c22 -26 33 -46.667 33 -62c0 -6 -1 -15 -3 -27l-82 -465l-97 -88z" />
    <glyph glyph-name="L" unicode="L" horiz-adv-x="819" 
d="M500 1287l-92 -523l-94 -83l-70 83l92 523l101 92zM379 601l-73 -412l-192 -161l101 573l99 80zM335 164h429l69 -83l-98 -81h-598z" />
    <glyph glyph-name="M" unicode="M" 
d="M922 1201h-406l-77 92l83 72h457l55 -72zM796 1165l-57 -322l-95 -78l-69 78l57 322h164zM482 1183l-74 -418l-93 -81l-70 81l74 423l95 82zM1112 1194l-76 -429l-96 -81l-67 81l72 410l111 90zM379 601l-92 -525l-95 -90l-69 90l93 525l99 83zM1007 601l-92 -525
l-98 -90l-66 90l93 525l96 83z" />
    <glyph glyph-name="N" unicode="N" 
d="M501 1293l-93 -529l-94 -81l-70 81l93 529l100 86zM634 1293l226 -396l-24 -132h-88l-232 403l22 125h96zM1129 1293l-93 -529l-98 -81l-66 81l94 529l95 86zM379 601l-92 -525l-96 -90l-68 90l92 525l99 82zM1007 601l-92 -525l-100 -90l-64 90l92 525l95 82z" />
    <glyph glyph-name="O" unicode="O" 
d="M921 1201h-409l-72 89l50 41c26.667 22 54 33.333 82 34h360c16.667 0 30.167 -2.5 40.5 -7.5s20.5 -13.833 30.5 -26.5l32 -39zM481 1179l-73 -413.999l-97 -85l-66 85l62 354c6 33.333 11 54.666 15 63.999s13.333 20 28 32l62 53zM872 765.001l73 409l114 92l24 -28
c16 -20 24 -40 24 -60c0 -8 -0.666992 -16.667 -2 -26l-69 -387l-98 -82zM379 601.001l-73 -418l-113 -92l-28 34c-14.667 17.333 -22 36 -22 56c0 4.66699 0.666992 11.667 2 21l71 399l95 79zM770 184.001l73.999 417l96 82l67 -82l-62 -355
c-6.66699 -36.667 -11.667 -58.667 -15 -66s-12.666 -17.333 -27.999 -30l-62 -51zM332.999 164.001h402.001l75 -89l-57 -51c-24.667 -16.667 -52.334 -24.667 -83.001 -24h-345c-36 0 -61.333 8 -76 24l-34 42z" />
    <glyph glyph-name="P" unicode="P" horiz-adv-x="983" 
d="M922 1201h-409l-133 164h535c27.333 0 46 -2.16699 56 -6.5s22 -14.833 36 -31.5l28 -33zM481 1177l-69 -393l-92 -78l-72 78l99 561zM876 785l68.999 392l112 93l20 -24c19.333 -22.667 29 -46.667 29 -72c0 -8.66699 -0.666992 -16.667 -2 -24l-50 -282
c-5.33301 -32.667 -10.666 -54.667 -15.999 -66s-15.333 -23.333 -30 -36l-70 -59zM440.999 765h408l63 -79l-66 -53c-18 -14 -32.5 -22.833 -43.5 -26.5s-28.5 -5.5 -52.5 -5.5h-340l-67 81zM375.999 585l-90 -513l-93 -86l-71 86l88 501l102 88z" />
    <glyph glyph-name="Q" unicode="Q" 
d="M921 1201l-402 0.000976562l-77 91l45 36c32.667 25.333 66.667 37.666 102 36.999h323c32 0 53.333 -2 64 -6s22.667 -14.333 36 -31l25 -31zM482 1183l-74 -419l-97 -80l-67 80l67 383c4.66699 23.333 10.667 40.833 18 52.5s22.333 25.5 45 41.5l39 29zM872 764.001
l72 414l114 93l18 -20c20.667 -23.333 31 -46 31 -68c0 -8.66699 -1.33301 -20.667 -4 -36l-67 -383l-96 -80zM379 600.001l-73 -415.001l-105 -87l-28 33c-17.333 19.333 -26 42 -26 68c0 10.667 0.666992 20.334 2 29.001l66 372l96 84zM790 300l53 300l97 84l67 -84
l-54 -304l-94 -76zM333 164h272l72 -87l-95 -77h-225c-30 0 -52.667 2.66699 -68 8s-28.333 15 -39 29l-28 35zM666 272h105l182 -208l-18 -101h-109l-179 201z" />
    <glyph glyph-name="R" unicode="R" 
d="M920 1201h-405l-136 164h545c32 0 55.667 -8 71 -24l41 -46zM481 1177l-69 -393l-91 -73l-73 73l98 557zM876 784l69 393l114 93l25 -27c16 -17.333 24 -37.333 24 -60c0 -7.33301 -1.33301 -19.333 -4 -36l-54 -303c-4.66699 -32 -17 -58.333 -37 -79l-72 -60zM445 765
h403l67 -82l-67 -59c-11.333 -10 -22.5 -16.333 -33.5 -19s-30.833 -4 -59.5 -4h-342l-73 82zM376 584l-90 -513l-93 -85l-71 85l87 496l103 92zM527 567l393 -463l-21 -118h-97l-409 485l17 96h117z" />
    <glyph glyph-name="S" unicode="S" 
d="M949 1201h-436l-76 91l48 41c18 15.333 32.167 24.5 42.5 27.5s30.833 4.5 61.5 4.5h389l70 -85zM481 1183l-68.999 -397l-98 -80l-28 33c-20.667 24 -31 49.667 -31 77c0 8 1.33301 19.333 4 34l49 278c5.33301 29.333 11.666 50.833 18.999 64.5s21.333 28.5 42 44.5
l42 33zM441.001 765h351.001c28 0 47.667 -2.5 59 -7.5s24.333 -17.5 39 -37.5l27 -36l-101 -83h-354c-24 0 -42.333 3 -55 9s-26.334 18.333 -41.001 37l-28 35zM769.002 179l69 396l100 80l34 -44c16 -21.333 24 -41 24 -59c0 -8 -1.33301 -19 -4 -33l-54 -309
c-4.66699 -28.667 -19.667 -54 -45 -76l-52 -42zM302.002 164l434 0.000976562l79 -94l-38 -34c-16.667 -14.667 -31.667 -24.334 -45 -29.001s-33 -7 -59 -7h-400l-69 80z" />
    <glyph glyph-name="T" unicode="T" horiz-adv-x="847" 
d="M947 1201h-620l-74 79l92 85h631l69 -85zM705 1162l-72 -408l-96 -79l-66 90l70 397h164zM606 601l-95 -535l-95 -80l-68 80l94 535l95 74z" />
    <glyph glyph-name="U" unicode="U" 
d="M500 1292l-92 -528l-93 -80l-71 80l93 528l100 87zM1129 1292l-93 -528l-98 -80l-66 80l93 528l96 87zM379 601l-74 -419.001l-110 -86l-25 28c-17.333 20.667 -26 41.334 -26 62.001c0 9.33301 1.66699 24.333 5 45l66 370l100 84zM1007 600.999l-68 -384.001
c-4 -22 -8.83301 -37.667 -14.5 -47s-17.5 -21.666 -35.5 -36.999l-48 -40l-72 89l74 419l95 84zM331 163.998l405 0.000976562l78 -93l-46 -38c-17.333 -14 -32.5 -23 -45.5 -27s-33.833 -6 -62.5 -6h-312c-28 0 -48.5 2.16699 -61.5 6.5s-25.167 13.166 -36.5 26.499
l-35 41z" />
    <glyph glyph-name="V" unicode="V" horiz-adv-x="983" 
d="M501 1291l-93 -527l-93 -82l-71 82l93 527l101 88zM1129 1291l-93 -527l-97 -82l-67 82l93 527l96 88zM379 601l-93 -530l-94 -85l-70 85l94 530l99 82zM887 562l-559 -460l44 248l408 333h120z" />
    <glyph glyph-name="W" unicode="W" 
d="M330 164h406l77 -92l-83 -72h-456l-56 72zM456 201l57 322l95 78l69 -78l-57 -322h-164zM770 182l74 419l93 81l71 -81l-75 -424l-95 -81zM140 171l76 430l96 81l67 -81l-72 -411l-111 -90zM873 764l92 526l95 89l69 -89l-93 -526l-99 -83zM245 764l92 526l98 89l66 -89
l-93 -526l-96 -83z" />
    <glyph glyph-name="X" unicode="X" horiz-adv-x="901" 
d="M404 1365l181 -531l-24 -139h-100l-188 541l23 129h108zM1088 1365l-26 -148l-341 -522h-128l25 139l345 531h125zM555 661l-25 -139l-343 -522h-132l23 129l348 532h129zM692 661l178 -532l-23 -129h-106l-178 522l24 139h105z" />
    <glyph glyph-name="Y" unicode="Y" horiz-adv-x="983" 
d="M473 1288l-89 -502l-91 -79l-31 35c-22 25.333 -33 50 -33 74c0 12.667 1.33301 26.667 4 42l76 430l102 91zM1101 1288l-89 -502l-93 -82l-71 82l89 502l101 91zM413 765l408 0.000976562l69 -82l-99 -82h-315c-42.667 0 -70.5 2.16699 -83.5 6.5
s-27.5 16.166 -43.5 35.499l-33 40zM976 579.001l-63 -358c-6.66699 -35.333 -22.667 -64 -48 -86l-54 -43l-69 88l69 396l100 83zM275 164.001h440l71 -92l-55 -47c-12.667 -10.667 -25.167 -17.5 -37.5 -20.5s-33.5 -4.5 -63.5 -4.5h-384l-62 89z" />
    <glyph glyph-name="Z" unicode="Z" horiz-adv-x="847" 
d="M949 1365l68 -82l-97 -82h-554l-70 82l99 82h554zM914 1040l-241 -331l-120 -30l-10 130l261 357h110v-126zM560 556l-261 -359h-125v106l251 345l127 31zM737 164l69 -82l-98 -82h-568l-71 82l100 82h568z" />
    <glyph glyph-name="bracketleft" unicode="[" horiz-adv-x="546" 
d="M529 1365h150l76 -78l-105 -86h-140l-75 87zM481 1181l-73 -414l-93 -82l-71 82l75 427l89 74zM305 185l-96 -83l-68 83l72 414l101 85l64 -79zM294 0l-63 79l96 85h140l75 -86l-104 -78h-144z" />
    <glyph glyph-name="backslash" unicode="\" horiz-adv-x="1025" 
d="M268 1365h99l293 -572l-28 -110h-84l-298 583zM720 683l295 -577l-20 -106h-94l-297 580l28 103h88z" />
    <glyph glyph-name="bracketright" unicode="]" horiz-adv-x="546" 
d="M299 0h-150l-76 78l105 86h140l76 -86zM348 184l73 415l92 81l71 -81l-75 -428l-89 -73zM523 1180l97 84l67 -83l-72 -415l-101 -84l-64 78zM534 1365l63 -79l-96 -85h-140l-75 86l104 78h144z" />
    <glyph glyph-name="asciicircum" unicode="^" horiz-adv-x="1024" 
d="M222 740h-176l358 630h215l358 -630h-177l-290 499z" />
    <glyph glyph-name="underscore" unicode="_" horiz-adv-x="1024" 
d="M0 -138h1024v-97h-1024v97z" />
    <glyph glyph-name="grave" unicode="`" horiz-adv-x="1024" 
d="M679 1678l205 -205h-190l-209 205h194z" />
    <glyph glyph-name="a" unicode="a" 
d="M925 1201l-409 -0.000976562l-80 90l56 49c12 10.667 23.5 17.5 34.5 20.5s28.5 4.5 52.5 4.5h351c30.667 0.666992 54.667 -7.66602 72 -24.999l36 -47zM483 1186l-69.998 -397l-94 -80l-70 80l60 342c5.33301 28.667 11.166 49 17.499 61s18.166 25 35.499 39l50 40z
M876.002 785.999l70 394.001l113 91l18 -22c20.667 -24.667 31 -46.334 31 -65.001c0 -9.33301 -1.66699 -23 -5 -41l-62 -354l-98 -83zM439.002 765h413l65 -79l-101 -85h-406l-72 80zM376.002 582l-89 -506l-94 -90l-70 90l89 506l99 78zM1004 582l-89 -506l-96 -90
l-68 90l89 503l98 81z" />
    <glyph glyph-name="b" unicode="b" 
d="M923 1201h-411l-134 164h558c19.333 0 34.333 -2.5 45 -7.5s21.667 -14.833 33 -29.5l26 -34zM480 1176l-69 -393l-92 -77l-72 77l99 561zM875 783l70 393.001l115 92l27 -34c13.333 -16 20 -32.667 20 -50c0 -10.667 -1.33301 -23.334 -4 -38.001l-53 -302
c-6.66699 -40 -17.667 -66.333 -33 -79l-78 -59zM812 601.001h-403l-67 82l99 82h409l66 -82zM375 581.001l-70 -399l-191 -154l97 550l105 81zM769 179.001l70 399.001l101 81l29 -36c19.333 -24 29 -44 29 -60c0 -8.66699 -1.33301 -20.334 -4 -35.001l-55 -311
c-5.33301 -32 -19 -57.667 -41 -77l-58 -47zM337 164.002h397l81 -94l-36 -31c-28.667 -25.333 -59.667 -38.333 -93 -39h-552z" />
    <glyph glyph-name="c" unicode="c" horiz-adv-x="874" 
d="M939 1201l-423 0.000976562l-75 92l42 36c18 15.333 32.5 25.166 43.5 29.499s26.5 6.5 46.5 6.5h395l78 -82zM482 1183l-74 -418.002l-95 -83l-68 83l64 364c5.33301 30.667 9.83301 49.834 13.5 57.501s14.167 18.834 31.5 33.501l60 52zM379 600.999l-72 -413
l-111 -90l-34 42c-11.333 14 -17 30.333 -17 49c0 7.33301 2.66699 25.333 8 54l63 358l97 81zM331 163.999h425l73 -83l-102 -81h-374c-48 -0.666992 -81.333 9.33301 -100 30l-34 43z" />
    <glyph glyph-name="d" unicode="d" 
d="M925 1201h-409l-140 164h548c24 0 40.5 -2 49.5 -6s19.833 -14 32.5 -30l32 -40zM482 1184l-72 -407l-93 -88l-71 88l100 565zM872 765l72 406.999l115 93l31 -38c10.667 -14 16 -30.667 16 -50c0 -11.333 -1.66699 -25.666 -5 -42.999l-65 -369l-93 -88zM381 612.999
l-74 -420l-192 -162l101 572l101 86zM843 600.999l100 76l64 -76l-64 -368c-5.33301 -28 -10.5 -47.667 -15.5 -59s-13.5 -22.333 -25.5 -33l-59 -50l-74 86zM332 163.999h406l80 -97l-32 -31c-28 -24.667 -63.333 -36.667 -106 -36h-548z" />
    <glyph glyph-name="e" unicode="e" horiz-adv-x="874" 
d="M940 1201h-430l-135 164h594l76 -83zM481 1181l-69 -394l-93 -82l-71 82l98 556zM834 601h-426l-70 80l99 84h426l72 -84zM376 584l-71 -399l-191 -156l95 540l106 89zM334 164h423l72 -84l-101 -80h-595z" />
    <glyph glyph-name="f" unicode="f" horiz-adv-x="874" 
d="M940 1201h-425l-137 164h591l77 -80zM481 1183l-69 -393l-92 -82l-72 82l98 556zM438 765h425l73 -80l-102 -84h-425l-70 80zM376 586l-90 -513l-93 -87l-71 87l88 500l102 88z" />
    <glyph glyph-name="g" unicode="g" horiz-adv-x="983" 
d="M949 1201h-430.998l-76 85l43 37c23.333 20 40.166 32 50.499 36s29.166 6 56.499 6h386l71 -79zM482.002 1185l-78 -440l-94 -75l-68 85l67 377c4 22.667 9.5 40 16.5 52s19.5 25.333 37.5 40l52 40zM377.002 591l-72 -412l-111 -88l-26 32c-16.667 20 -25 39 -25 57
c0 8 2 24 6 48l64 363l97 79zM727.002 755h283l-197 -164h-115l-72 79zM768.002 175l70 396l191 156l-90 -510c-4.66699 -26.667 -9.66699 -45 -15 -55s-17 -22 -35 -36l-48 -40zM333.002 164h404.001l79 -101l-55 -43c-18.667 -13.333 -46 -20 -82 -20h-322
c-32.667 0 -55.834 1.66699 -69.501 5s-25.167 10.333 -34.5 21l-37 40z" />
    <glyph glyph-name="h" unicode="h" 
d="M500 1288l-88 -501l-92 -81l-72 81l88 501l103 91zM1128 1288l-88 -501l-94 -81l-70 81l89 501l100 91zM440 765h410l68 -82l-97 -82h-410l-70 82zM376 582l-90 -510l-93 -86l-71 86l89 506l101 83zM1003 578l-89 -506l-95 -86l-69 86l88 499l99 81z" />
    <glyph glyph-name="i" unicode="i" horiz-adv-x="382" 
d="M500 1288l-92 -524l-94 -84l-70 84l92 524l101 91zM379 601l-93 -528l-95 -87l-69 87l93 528l99 79z" />
    <glyph glyph-name="j" unicode="j" horiz-adv-x="983" 
d="M1101 1288l-92 -524l-93 -84l-71 84l93 524l101 91zM980 601l-64.002 -365c-5.33301 -30.667 -12.666 -54.167 -21.999 -70.5s-24.666 -32.5 -45.999 -48.5l-34 -25l-71 94l73 415l100 80zM351.998 601l-73 -415l-113 -94l-21 25c-18.667 23.333 -28 45 -28 65
c0 10 2.33301 28 7 54l64 365l100 80zM302.998 164h408l74 -94l-49 -38c-20 -15.333 -35.833 -24.5 -47.5 -27.5s-35.5 -4.5 -71.5 -4.5h-299c-33.333 -0 -55.833 1.83301 -67.5 5.5s-23.5 12.5 -35.5 26.5l-28 34z" />
    <glyph glyph-name="k" unicode="k" 
d="M501 1295l-89 -506l-91 -79l-73 79l89 506l102 84zM1119 1238l-536 -439h-133l22 124l547 442h122zM444 765h338c29.333 0 47.333 -1 54 -3s17 -10 31 -24l50 -52l-103 -85h-399l-72 83zM376 583l-90 -509l-93 -88l-71 88l89 506l101 83zM750 74l89 506l99 82l28 -34
c22 -26 33 -46.667 33 -62c0 -6 -1 -15 -3 -27l-82 -465l-97 -88z" />
    <glyph glyph-name="l" unicode="l" horiz-adv-x="819" 
d="M500 1287l-92 -523l-94 -83l-70 83l92 523l101 92zM379 601l-73 -412l-192 -161l101 573l99 80zM335 164h429l69 -83l-98 -81h-598z" />
    <glyph glyph-name="m" unicode="m" 
d="M922 1201h-406l-77 92l83 72h457l55 -72zM796 1165l-57 -322l-95 -78l-69 78l57 322h164zM482 1183l-74 -418l-93 -81l-70 81l74 423l95 82zM1112 1194l-76 -429l-96 -81l-67 81l72 410l111 90zM379 601l-92 -525l-95 -90l-69 90l93 525l99 83zM1007 601l-92 -525
l-98 -90l-66 90l93 525l96 83z" />
    <glyph glyph-name="n" unicode="n" 
d="M501 1293l-93 -529l-94 -81l-70 81l93 529l100 86zM634 1293l226 -396l-24 -132h-88l-232 403l22 125h96zM1129 1293l-93 -529l-98 -81l-66 81l94 529l95 86zM379 601l-92 -525l-96 -90l-68 90l92 525l99 82zM1007 601l-92 -525l-100 -90l-64 90l92 525l95 82z" />
    <glyph glyph-name="o" unicode="o" 
d="M921 1201h-409l-72 89l50 41c26.667 22 54 33.333 82 34h360c16.667 0 30.167 -2.5 40.5 -7.5s20.5 -13.833 30.5 -26.5l32 -39zM481 1179l-73 -413.999l-97 -85l-66 85l62 354c6 33.333 11 54.666 15 63.999s13.333 20 28 32l62 53zM872 765.001l73 409l114 92l24 -28
c16 -20 24 -40 24 -60c0 -8 -0.666992 -16.667 -2 -26l-69 -387l-98 -82zM379 601.001l-73 -418l-113 -92l-28 34c-14.667 17.333 -22 36 -22 56c0 4.66699 0.666992 11.667 2 21l71 399l95 79zM770 184.001l73.999 417l96 82l67 -82l-62 -355
c-6.66699 -36.667 -11.667 -58.667 -15 -66s-12.666 -17.333 -27.999 -30l-62 -51zM332.999 164.001h402.001l75 -89l-57 -51c-24.667 -16.667 -52.334 -24.667 -83.001 -24h-345c-36 0 -61.333 8 -76 24l-34 42z" />
    <glyph glyph-name="p" unicode="p" horiz-adv-x="983" 
d="M922 1201h-409l-133 164h535c27.333 0 46 -2.16699 56 -6.5s22 -14.833 36 -31.5l28 -33zM481 1177l-69 -393l-92 -78l-72 78l99 561zM876 785l68.999 392l112 93l20 -24c19.333 -22.667 29 -46.667 29 -72c0 -8.66699 -0.666992 -16.667 -2 -24l-50 -282
c-5.33301 -32.667 -10.666 -54.667 -15.999 -66s-15.333 -23.333 -30 -36l-70 -59zM440.999 765h408l63 -79l-66 -53c-18 -14 -32.5 -22.833 -43.5 -26.5s-28.5 -5.5 -52.5 -5.5h-340l-67 81zM375.999 585l-90 -513l-93 -86l-71 86l88 501l102 88z" />
    <glyph glyph-name="q" unicode="q" 
d="M921 1201l-402 0.000976562l-77 91l45 36c32.667 25.333 66.667 37.666 102 36.999h323c32 0 53.333 -2 64 -6s22.667 -14.333 36 -31l25 -31zM482 1183l-74 -419l-97 -80l-67 80l67 383c4.66699 23.333 10.667 40.833 18 52.5s22.333 25.5 45 41.5l39 29zM872 764.001
l72 414l114 93l18 -20c20.667 -23.333 31 -46 31 -68c0 -8.66699 -1.33301 -20.667 -4 -36l-67 -383l-96 -80zM379 600.001l-73 -415.001l-105 -87l-28 33c-17.333 19.333 -26 42 -26 68c0 10.667 0.666992 20.334 2 29.001l66 372l96 84zM790 300l53 300l97 84l67 -84
l-54 -304l-94 -76zM333 164h272l72 -87l-95 -77h-225c-30 0 -52.667 2.66699 -68 8s-28.333 15 -39 29l-28 35zM666 272h105l182 -208l-18 -101h-109l-179 201z" />
    <glyph glyph-name="r" unicode="r" 
d="M920 1201h-405l-136 164h545c32 0 55.667 -8 71 -24l41 -46zM481 1177l-69 -393l-91 -73l-73 73l98 557zM876 784l69 393l114 93l25 -27c16 -17.333 24 -37.333 24 -60c0 -7.33301 -1.33301 -19.333 -4 -36l-54 -303c-4.66699 -32 -17 -58.333 -37 -79l-72 -60zM445 765
h403l67 -82l-67 -59c-11.333 -10 -22.5 -16.333 -33.5 -19s-30.833 -4 -59.5 -4h-342l-73 82zM376 584l-90 -513l-93 -85l-71 85l87 496l103 92zM527 567l393 -463l-21 -118h-97l-409 485l17 96h117z" />
    <glyph glyph-name="s" unicode="s" 
d="M949 1201h-436l-76 91l48 41c18 15.333 32.167 24.5 42.5 27.5s30.833 4.5 61.5 4.5h389l70 -85zM481 1183l-68.999 -397l-98 -80l-28 33c-20.667 24 -31 49.667 -31 77c0 8 1.33301 19.333 4 34l49 278c5.33301 29.333 11.666 50.833 18.999 64.5s21.333 28.5 42 44.5
l42 33zM441.001 765h351.001c28 0 47.667 -2.5 59 -7.5s24.333 -17.5 39 -37.5l27 -36l-101 -83h-354c-24 0 -42.333 3 -55 9s-26.334 18.333 -41.001 37l-28 35zM769.002 179l69 396l100 80l34 -44c16 -21.333 24 -41 24 -59c0 -8 -1.33301 -19 -4 -33l-54 -309
c-4.66699 -28.667 -19.667 -54 -45 -76l-52 -42zM302.002 164l434 0.000976562l79 -94l-38 -34c-16.667 -14.667 -31.667 -24.334 -45 -29.001s-33 -7 -59 -7h-400l-69 80z" />
    <glyph glyph-name="t" unicode="t" horiz-adv-x="847" 
d="M947 1201h-620l-74 79l92 85h631l69 -85zM705 1162l-72 -408l-96 -79l-66 90l70 397h164zM606 601l-95 -535l-95 -80l-68 80l94 535l95 74z" />
    <glyph glyph-name="u" unicode="u" 
d="M500 1292l-92 -528l-93 -80l-71 80l93 528l100 87zM1129 1292l-93 -528l-98 -80l-66 80l93 528l96 87zM379 601l-74 -419.001l-110 -86l-25 28c-17.333 20.667 -26 41.334 -26 62.001c0 9.33301 1.66699 24.333 5 45l66 370l100 84zM1007 600.999l-68 -384.001
c-4 -22 -8.83301 -37.667 -14.5 -47s-17.5 -21.666 -35.5 -36.999l-48 -40l-72 89l74 419l95 84zM331 163.998l405 0.000976562l78 -93l-46 -38c-17.333 -14 -32.5 -23 -45.5 -27s-33.833 -6 -62.5 -6h-312c-28 0 -48.5 2.16699 -61.5 6.5s-25.167 13.166 -36.5 26.499
l-35 41z" />
    <glyph glyph-name="v" unicode="v" horiz-adv-x="983" 
d="M501 1291l-93 -527l-93 -82l-71 82l93 527l101 88zM1129 1291l-93 -527l-97 -82l-67 82l93 527l96 88zM379 601l-93 -530l-94 -85l-70 85l94 530l99 82zM887 562l-559 -460l44 248l408 333h120z" />
    <glyph glyph-name="w" unicode="w" 
d="M330 164h406l77 -92l-83 -72h-456l-56 72zM456 201l57 322l95 78l69 -78l-57 -322h-164zM770 182l74 419l93 81l71 -81l-75 -424l-95 -81zM140 171l76 430l96 81l67 -81l-72 -411l-111 -90zM873 764l92 526l95 89l69 -89l-93 -526l-99 -83zM245 764l92 526l98 89l66 -89
l-93 -526l-96 -83z" />
    <glyph glyph-name="x" unicode="x" horiz-adv-x="901" 
d="M404 1365l181 -531l-24 -139h-100l-188 541l23 129h108zM1088 1365l-26 -148l-341 -522h-128l25 139l345 531h125zM555 661l-25 -139l-343 -522h-132l23 129l348 532h129zM692 661l178 -532l-23 -129h-106l-178 522l24 139h105z" />
    <glyph glyph-name="y" unicode="y" horiz-adv-x="983" 
d="M473 1288l-89 -502l-91 -79l-31 35c-22 25.333 -33 50 -33 74c0 12.667 1.33301 26.667 4 42l76 430l102 91zM1101 1288l-89 -502l-93 -82l-71 82l89 502l101 91zM413 765l408 0.000976562l69 -82l-99 -82h-315c-42.667 0 -70.5 2.16699 -83.5 6.5
s-27.5 16.166 -43.5 35.499l-33 40zM976 579.001l-63 -358c-6.66699 -35.333 -22.667 -64 -48 -86l-54 -43l-69 88l69 396l100 83zM275 164.001h440l71 -92l-55 -47c-12.667 -10.667 -25.167 -17.5 -37.5 -20.5s-33.5 -4.5 -63.5 -4.5h-384l-62 89z" />
    <glyph glyph-name="z" unicode="z" horiz-adv-x="847" 
d="M949 1365l68 -82l-97 -82h-554l-70 82l99 82h554zM914 1040l-241 -331l-120 -30l-10 130l261 357h110v-126zM560 556l-261 -359h-125v106l251 345l127 31zM737 164l69 -82l-98 -82h-568l-71 82l100 82h568z" />
    <glyph glyph-name="braceleft" unicode="{" horiz-adv-x="675" 
d="M771 1201h-128l-76 91l38 36c25.333 24 49.333 36.333 72 37h123l73 -84zM610 1183l-68 -386l-93 -82l-71 82l59 334c4.66699 26.667 9.5 45 14.5 55s15.167 21.333 30.5 34l59 50zM434 186l-111 -91.999l-29 39c-14 19.333 -21 38 -21 56c0 7.33301 1 16.666 3 27.999
l65 366l99 83l65 -83zM464 164.001l124 0.000976562l71 -84l-100 -80h-108c-30 -0.666992 -55.333 10.666 -76 33.999l-27 33zM244 771.002h109l68 -82l-97 -82h-109l-70 82z" />
    <glyph glyph-name="bar" unicode="|" horiz-adv-x="1024" 
d="M581 1365h136v-1706h-136v1706z" />
    <glyph glyph-name="braceright" unicode="}" horiz-adv-x="675" 
d="M145 164h128l75 -91l-38 -36c-24.667 -24 -48.667 -36.333 -72 -37h-122l-74 84zM305 183l69 386l92 82l72 -82l-60 -334c-4.66699 -27.333 -9.5 -46 -14.5 -56s-14.833 -21.333 -29.5 -34l-59 -50zM481 1180l111 92l29 -40c14 -19.333 21 -38 21 -56
c0 -8 -1 -17.333 -3 -28l-65 -366l-99 -82l-65 82zM451 1201l-124 -0.000976562l-71 84l100 80h109c29.333 0.666992 54.333 -10.666 75 -33.999l27 -33zM672 593.999h-110l-67 82l96 82h109l70 -82z" />
    <glyph glyph-name="asciitilde" unicode="~" horiz-adv-x="1365" 
d="M286 1187l-96.001 62.002c28.667 58 53.667 101.667 75 131c54.667 73.333 124.334 110 209.001 110c50.667 0 126.334 -23 227.001 -69c60 -26.667 101.667 -43.834 125 -51.501s47 -11.5 71 -11.5c38 0 70 9.66699 96 29s54.333 55 85 107l98 -57
c-38.667 -78.667 -77.667 -134.334 -117 -167.001c-54 -46 -114.667 -69 -182 -69c-28 0 -60.167 6.16699 -96.5 18.5s-100.166 38.833 -191.499 79.5c-51.333 22.667 -94 34 -128 34c-34.667 0 -65.334 -11.167 -92.001 -33.5s-54.334 -59.833 -83.001 -112.5z" />
    <glyph glyph-name="nbspace" unicode="&#xa0;" horiz-adv-x="512" 
 />
    <glyph glyph-name="exclamdown" unicode="&#xa1;" horiz-adv-x="505" 
d="M168 77l92 524l94 82l70 -82l-92 -524l-101 -91zM289 765l59 332l93 81l71 -81l-59 -332l-99 -82zM366 1201l29 164h164l-29 -164h-164z" />
    <glyph glyph-name="cent" unicode="&#xa2;" 
d="M796 1204l-14 -82h-165l15 82l103 81zM901 928h-437l-73 85l48 39c24 20.667 39.667 32.5 47 35.5s26 4.5 56 4.5h388l69 -86zM433 907l-70 -398l-98 -79l-29 35c-20 23.333 -30 46 -30 68c0 11.333 1.33301 24 4 38l49 278c8 46 22 77.333 42 94l61 50zM389 492h434.999
l70 -84l-88 -80h-385c-30.667 0 -51.667 1.83301 -63 5.5s-22.666 12.167 -33.999 25.5l-39 46zM635.999 298l-14 -81l-100 -83l-65 83l15 81h164z" />
    <glyph glyph-name="sterling" unicode="&#xa3;" 
d="M949 1201h-315.001l-72 86l48 43c20 18 34.333 28.333 43 31s30.334 4 65.001 4h260l71 -82zM604.999 1179l-70 -395l-95 -81l-69 81l62 350c4 23.333 8.83301 40 14.5 50s17.5 22.667 35.5 38l52 44zM233.999 767h106l71 -82l-100 -82h-106l-70 82zM564.999 765h213
l67 -86l-96 -78h-220l-65 78zM498.999 576l-70 -392l-191 -158l95 542l102 87zM965.999 368l-61 -347l-136 158l35 199l91 76zM458.999 164h279l142 -164h-624z" />
    <glyph glyph-name="currency" unicode="&#xa4;" horiz-adv-x="1024" 
d="M438 899l-71.999 -409l-113 -92l-28 34c-14 17.333 -21 36 -21 56c0 8 0.666992 15 2 21l58 330c5.33301 33.333 10.166 54.833 14.499 64.5s13.5 20.5 27.5 32.5l63 52zM901.001 894l115 93l23 -29c16.667 -20 25 -40.333 25 -61c0 -6 -1 -14.333 -3 -25l-56 -319
c-6.66699 -37.333 -11.5 -59.333 -14.5 -66s-12.5 -16.667 -28.5 -30l-62 -51l-70 86zM877.001 921l-409 0.000976562l-72 89l51 41c25.333 21.333 52.333 32.666 81 33.999h361c16 0 29.167 -2.5 39.5 -7.5s20.833 -13.833 31.5 -26.5l31 -39zM393.001 471.001h402.001
l75 -89l-57 -51c-24.667 -16.667 -52.334 -24.667 -83.001 -24h-345c-36 0 -61.333 8 -76 24l-34 42zM1065 382.001l-29 -164h-164l29 164h164zM257.002 382.001l-29 -164h-164l29 164h164zM1205 1174l-29 -164h-164l29 164h164zM396.002 1174l-28 -164h-164l29 164h163z
" />
    <glyph glyph-name="yen" unicode="&#xa5;" 
d="M456 1365l181 -531l-18 -100h-119l-173 502l23 129h106zM1138 1365l-26 -148l-320 -483h-138l17 100l347 531h120zM265 696h348l-15 -82l-97 -82h-265l-71 80zM647 696h356l71 -82l-100 -82h-274l-68 82zM672 518l-80 -458l-89 -74l-72 90l75 426l103 89z" />
    <glyph glyph-name="brokenbar" unicode="&#xa6;" horiz-adv-x="1024" 
d="M430 1365h164v-685h-164v685zM430 314h164v-655h-164v655z" />
    <glyph glyph-name="section" unicode="&#xa7;" 
d="M917 1201h-365l-72 90l51 43c16.667 14 30.167 22.667 40.5 26s29.5 5 57.5 5h317l70 -85zM526 1186l-27 -150.997l-95 -79l-33 35c-18.667 20 -28 44 -28 72c0 9.33301 1 19.666 3 30.999l7 38c4.66699 27.333 10.5 47.166 17.5 59.499s20.167 26.166 39.5 41.499l46 36
zM522 1020h274c26 0 44.333 -2.5 55 -7.5s23 -16.5 37 -34.5l30 -40l-99 -82h-331l-62 82zM785 525.003l56 314l94 78l35 -47c15.333 -20.667 23 -40 23 -58c0 -8.66699 -1 -18.667 -3 -30l-40 -223c-4 -28 -18.333 -52.667 -43 -74l-52 -42zM469 832.003l-53 -306.001
l-98 -79l-30 37c-19.333 22 -29 46 -29 72c0 8.66699 1 19 3 31l35 201c4.66699 25.333 10.667 44.333 18 57s20.333 26.334 39 41.001l44 35zM725 185.002l25.001 140l98 80l37 -46c15.333 -18 23 -37 23 -57c0 -8.66699 -1 -18.667 -3 -30l-11 -62
c-4.66699 -28 -19.334 -52.333 -44.001 -73l-54 -45zM334.001 164.002h365.998l72 -92l-42 -37c-15.333 -14 -29.666 -23.333 -42.999 -28s-31.666 -7 -54.999 -7h-327l-69 80zM728.999 345.002h-270c-26 0 -44.333 2.5 -55 7.5s-23 16.5 -37 34.5l-30 40l100 82h320l71 -85
z" />
    <glyph glyph-name="dieresis" unicode="&#xa8;" horiz-adv-x="1024" 
d="M990 1660l-29 -164h-164l29 164h164zM785 1660l-29 -164h-164l29 164h164z" />
    <glyph glyph-name="copyright" unicode="&#xa9;" horiz-adv-x="1365" 
d="M451 1207l-187 -1055l-73 -63l-26 34c-6 8 -9 24.333 -9 49c0 8 1.33301 19.333 4 34l162 921c8.66699 50.667 17.667 81.667 27 93l55 50zM1319 1227l-842 0.000976562l-48 66l46 40c17.333 13.333 41 19.666 71 18.999h760c23.333 0 45 -6.33301 65 -19l28 -38z
M289 139.001h834.999l50 -66l-51 -49c-18.667 -6.66699 -42.667 -10 -72 -10h-746c-37.333 0 -60.666 3.33301 -69.999 10l-31 40zM1076 1026l-63 -44h-229l-45 50l25 20c16 12.667 33.667 19 53 19h212zM763.999 972.001l-39 -225.999l-56 -45l-41 45l34 197
c3.33301 16.667 6 27.167 8 31.5s8 10.166 18 17.499l35 28zM708.999 657.002l-40 -224l-64 -48l-21 22c-7.33301 8 -11 17.333 -11 28c0 0.666992 1.66699 10 5 28l34 194l57 44zM683.999 421.002h230l44 -45l-60 -44h-199c-28.667 0 -48.667 5.66699 -60 17l-20 23z
M1155 158.002l185.001 1042l81 70l20 -28c6 -7.33301 9 -23.666 9 -48.999c0 -8 -1.33301 -19.333 -4 -34l-162 -921c-8.66699 -50 -17.334 -81 -26.001 -93l-56 -49z" />
    <glyph glyph-name="ordfeminine" unicode="&#xaa;" horiz-adv-x="751" 
d="M638 958l89 65.999l16 -30c6 -10 9 -20.667 9 -32c0 -3.33301 -1.33301 -12.666 -4 -27.999l-8 -48l-67 -51l-47 51zM601 872.999l50 -54l-69 -53h-212l-51 53l36 30c19.333 16 40 24 62 24h184zM602 753.999l62 50l51 -57l-15 -86l-59 -52l-54 58zM331 663.999
l-70 -58.999l-26 29c-10 12 -15 26 -15 42c0 6.66699 1 13.667 3 21l1 3c6 27.333 10.333 43.666 13 48.999s9.66699 12.333 21 21l41 32l48 -50zM567 653l56 -63l-26 -20c-13.333 -10.667 -24.333 -17.334 -33 -20.001s-25 -4 -49 -4h-148c-20.667 0 -35 1.33301 -43 4
s-16.667 9.33398 -26 20.001l-19 20l76 63h212zM714 647l48 -0.000976562l50 -55l-59 -46h-28c-24.667 0.666992 -42 7.33398 -52 20.001l-21 24zM636 984.999l-216 0.000976562l-55 58l30 26c18 15.333 40 23 66 23h183c21.333 -0.666992 38 -8.33398 50 -23.001l21 -25z
" />
    <glyph glyph-name="guillemotleft" unicode="&#xab;" horiz-adv-x="817" 
d="M127 461l15 88h89l175 -213l-15 -86h-89zM146 571l17 93l232 187h102l-18 -98l-234 -182h-99zM414 461l15 88h89l175 -213l-16 -86h-88zM433 571l16 93l233 187h101l-17 -98l-234 -182h-99z" />
    <glyph glyph-name="logicalnot" unicode="&#xac;" horiz-adv-x="1024" 
d="M791 0v393h-723v153h887v-546h-164z" />
    <glyph glyph-name="sfthyphen" unicode="&#xad;" horiz-adv-x="560" 
d="M478 491h-259l-55 126l117 38h261l57 -126z" />
    <glyph glyph-name="registered" unicode="&#xae;" horiz-adv-x="1365" 
d="M689 1071h301c18.667 0 32.667 -4.33301 42 -13l24 -25l-68 -51h-217zM750 969l-37 -213l-53 -39l-44 39l54 302zM966 756l37 212.999l67 50l15 -14c10 -9.33301 15 -20.666 15 -33.999c0 -4 -0.666992 -10 -2 -18l-29 -164c-2.66699 -18 -9.66699 -32.333 -21 -43
l-43 -32zM733 745.999h217l40 -44l-39 -32c-12 -8.66699 -30.333 -13 -55 -13h-180l-45 45zM694 647.999l-49 -278l-54 -45l-43 45l47 269l60 50zM783 638.999l208 -250l-11 -64h-58l-217 262l9 52h69zM451 1207l-187 -1055l-73 -63l-26 34c-6 8 -9 24.333 -9 49
c0 8 1.33301 19.333 4 34l162 921c8.66699 50.667 17.667 81.667 27 93l55 50zM1319 1227l-842 0.000976562l-48 66l46 40c17.333 13.333 41 19.666 71 18.999h760c23.333 0 45 -6.33301 65 -19l28 -38zM289 139h834.999l50 -66l-51 -49
c-18.667 -6.66699 -42.667 -10 -72 -10h-746c-37.333 0 -60.666 3.33301 -69.999 10l-31 40zM1155 158l185.001 1042l81 70l20 -28c6 -7.33301 9 -23.666 9 -48.999c0 -8 -1.33301 -19.333 -4 -34l-162 -921c-8.66699 -50 -17.334 -81 -26.001 -93l-56 -49z" />
    <glyph glyph-name="overscore" unicode="&#xaf;" horiz-adv-x="1024" 
d="M265 1600h1024v-97h-1024v97z" />
    <glyph glyph-name="degree" unicode="&#xb0;" horiz-adv-x="707" 
d="M409 1235l-51 -286.999l-78 -64l-20 24c-10 12 -15 25 -15 39c0 6 0.333008 11 1 15l41 231c4 23.333 7.5 38.166 10.5 44.499s9.5 13.833 19.5 22.5l43 37zM733 1231l79.999 65l17 -20c11.333 -14 17 -28 17 -42c0 -4.66699 -0.666992 -10.667 -2 -18l-39 -223
c-4.66699 -26 -8.16699 -41.5 -10.5 -46.5s-9.16602 -12.167 -20.499 -21.5l-43 -35l-49 59zM715.999 1250h-286.001l-51 62l36 29c18 15.333 37 23.333 57 24h252c18.667 0 35.334 -8 50.001 -24l22 -27zM376.998 935.001h282l52 -62l-40 -36
c-16.667 -11.333 -36 -17 -58 -17h-241c-25.333 0 -43 5.66699 -53 17l-24 30z" />
    <glyph glyph-name="plusminus" unicode="&#xb1;" 
d="M788 1208l-62 -351l-95 -82l-69 82l65 368l95 70zM235 833h306l68 -82l-97 -82h-306l-71 80zM753 833h315l71 -82l-100 -82h-315l-70 82zM690 654l-62 -353l-89 -74l-72 90l57 321l103 90zM950 164l71 -82l-100 -82h-833l-71 80l100 84h833z" />
    <glyph glyph-name="twosuperior" unicode="&#xb2;" horiz-adv-x="688" 
d="M702 1267l-278 -0.000976562l-44 48l59 50h267c20.667 0.666992 38 -6.66602 52 -21.999l16 -20zM672 1017l41 234.001l74 57l21 -24c6.66699 -8 10 -18 10 -30c0 -3.33301 -1 -11 -3 -23l-32 -182c-2.66699 -16.667 -12 -32.334 -28 -47.001l-39 -32zM699 957l-41 -34
c-13.333 -10.667 -32.333 -16 -57 -16h-226l-44 48l40 35c14 10.667 33.333 15.667 58 15h227zM354 896l-42 -240l-122 -94l52 293c2 13.333 4.66699 22.333 8 27s12 13 26 25l38 33zM330 644h277l43 -49l-61 -49h-386z" />
    <glyph glyph-name="threesuperior" unicode="&#xb3;" horiz-adv-x="688" 
d="M697 1267h-271.999l-46 48l63 50h258c15.333 0 26.166 -1.33301 32.499 -4s13.5 -9 21.5 -19l17 -19zM669.001 1016l42 237l73 55l16 -17c10 -11.333 15 -28.333 15 -51c0 -3.33301 -0.333008 -7 -1 -11l-34 -179c-4 -18.667 -12.333 -33.667 -25 -45l-42 -34z
M378.001 1005h273l46 -48l-64 -50h-272l-47 50zM605.001 655l42 237.001l64 51l21 -22c11.333 -12.667 17 -25.334 17 -38.001c0 -5.33301 -0.666992 -11 -2 -17l-34 -193c-3.33301 -18 -13.333 -33.667 -30 -47l-32 -24zM315.001 644.001h272l49 -56l-30 -25
c-14 -11.333 -34.667 -17 -62 -17h-255l-44 48z" />
    <glyph glyph-name="acute" unicode="&#xb4;" horiz-adv-x="1024" 
d="M894 1674h193l-239 -201h-192z" />
    <glyph glyph-name="mu" unicode="&#xb5;" horiz-adv-x="1024" 
d="M897 906l93 91.002l71 -91l-115 -649c-4.66699 -26.667 -11.667 -47.834 -21 -63.501s-25.333 -32.834 -48 -51.501l-44 -36l-63 79zM442 906.002l-127 -721l-93 -82l-71 82l128 721l100 91zM743 164.002l68.001 -82.001l-47 -40
c-22.667 -19.333 -41.334 -31.166 -56.001 -35.499s-43 -6.5 -85 -6.5h-315l-70 82l97 82h408zM279.001 -21.999l-34 -191.001c-6 -35.333 -22 -63.666 -48 -84.999l-54 -43l-69 88l40 228l100 83z" />
    <glyph glyph-name="paragraph" unicode="&#xb6;" horiz-adv-x="1024" 
d="M944 1288l95 91l69 -91l-93 -524l-99 -84l-65 84zM822 601l94 79l70 -79l-93 -528l-100 -87l-64 87zM450 1201l-80.001 93l40 33c20 17.333 35.833 28 47.5 32s30.834 6 57.501 6h330l-190 -164h-205zM677.999 1177l194 168l-99 -561l-99 -78l-65 78zM348.999 785
l-89.001 -78l-49 59c-12 14.667 -18 30.667 -18 48c0 7.33301 2.66699 25.333 8 54l49 282c6.66699 35.333 27.334 67.333 62.001 96l28 24l79 -93zM571.998 765l69.002 -83l-95 -81h-135c-24.667 0 -41.834 1.83301 -51.501 5.5s-20.834 12.5 -33.501 26.5l-47 53l91 79
h202zM574 585l91 76l71 -88l-89 -501l-101 -86l-63 86z" />
    <glyph glyph-name="middot" unicode="&#xb7;" horiz-adv-x="492" 
d="M463 765l-29 -164h-164l29 164h164z" />
    <glyph glyph-name="cedilla" unicode="&#xb8;" horiz-adv-x="1024" 
d="M485 -149l20 114.999h131l-16 -90c-4 -23.333 -16 -43.666 -36 -60.999l-41 -34zM327 -161.001h136.001l59 -75l-31 -27c-13.333 -12 -25.333 -19.833 -36 -23.5s-26.334 -5.5 -47.001 -5.5h-104l-55 64z" />
    <glyph glyph-name="onesuperior" unicode="&#xb9;" horiz-adv-x="688" 
d="M537 1267h-85l-46 44l63 54h191zM509 1005l43 243l122 98l-60 -341l-62 -53zM435 587l57 320l60 45l45 -45l-57 -320l-61 -49z" />
    <glyph glyph-name="ordmasculine" unicode="&#xba;" horiz-adv-x="751" 
d="M652 984l-218 0.000976562l-55 59l30 26c18 15.333 40.333 23 67 23h184c22 -0.666992 38.667 -8.33398 50 -23.001l21 -25zM412 966.001l-17 -93l-67 -56l-48 56l11 58c4 21.333 7.33301 35.333 10 42s9 13.667 19 21l41 32zM652 873.001l16 93l81 61l16 -18
c11.333 -14 17 -27.667 17 -41c0 -4.66699 -0.666992 -10 -2 -16l-13 -79l-69 -54zM376 765.001l-17 -98.999l-78 -61l-20 22c-10.667 11.333 -16 23.666 -16 36.999c0 6 0.333008 10.333 1 13l15 88l67 52zM616 668.002l17 97l67 54l48 -54l-11 -57
c-4 -24.667 -7.16699 -39.5 -9.5 -44.5s-8.83301 -11.167 -19.5 -18.5l-44 -32zM381 654.002h214l56 -65l-34 -27c-18 -10.667 -37.333 -16 -58 -16h-184c-24 0 -41.667 5.66699 -53 17l-23 26z" />
    <glyph glyph-name="guillemotright" unicode="&#xbb;" horiz-adv-x="817" 
d="M782 640l-15 -88h-99l-166 202l17 97h88zM763 529l-16 -93l-233 -186h-101l17 98l234 181h99zM496 640l-16 -88h-99l-166 202l17 97h88zM476 529l-16 -93l-232 -186h-102l17 98l234 181h99z" />
    <glyph glyph-name="onequarter" unicode="&#xbc;" horiz-adv-x="1771" 
d="M564 1267h-85l-46 44l63 54h191zM536 1005l43 243l122 98l-60 -341l-62 -53zM462 587l57 320l60 45l45 -45l-57 -320l-61 -49zM1425 775l-54 -306l-59 -48l-23 24c-12.667 12.667 -19 25.667 -19 39c0 4.66699 1 12.667 3 24l47 267l63 52zM1827 774l-54 -305l-61 -48
l-44 50l54 303l62 53zM1388 458h264l43 -50l-67 -48h-216c-26.667 -0.666992 -45.667 4 -57 14l-31 32zM1751 345l-54 -305l-61 -48l-43 48l53 305l61 47zM530 67l386 581l89 31l18 -76l-383 -576l-91 -34zM987 755l387 581l88 29l19 -74l-383 -576l-92 -36z" />
    <glyph glyph-name="onehalf" unicode="&#xbd;" horiz-adv-x="1771" 
d="M564 1267h-85l-46 44l63 54h191zM536 1005l43 243l122 98l-60 -341l-62 -53zM462 587l57 320l60 45l45 -45l-57 -320l-61 -49zM1688 721l-278 -0.000976562l-44 48l59 50h268c20 0.666992 37 -6.66602 51 -21.999l16 -20zM1659 469.999l41 235.001l73 57l21 -24
c6.66699 -7.33301 10 -17.333 10 -30c0 -4.66699 -1 -12.334 -3 -23.001l-32 -183c-2.66699 -16.667 -12 -32 -28 -46l-39 -32zM1686 410l-41.999 -34c-13.333 -10.667 -32.333 -16 -57 -16h-225l-45 48l41 35c13.333 10.667 32.666 15.667 57.999 15h226zM1340 350
l-42 -240l-122 -94l52 293c2.66699 13.333 5.5 22.333 8.5 27s11.5 13 25.5 25l39 33zM1316 98h277l44 -49l-61 -49h-387zM530.001 67l387 581l88 31l18 -76l-383 -576l-91 -34zM988.001 755l386 581l88 29l19 -74l-383 -576l-92 -36z" />
    <glyph glyph-name="threequarters" unicode="&#xbe;" horiz-adv-x="1771" 
d="M711 1267h-271.999l-46 48l63 50h258c15.333 0 26.166 -1.33301 32.499 -4s13.5 -9 21.5 -19l17 -19zM683.001 1016l42 236.999l73 55l16 -17c10 -11.333 15 -27.333 15 -48c0 -3.33301 -0.333008 -6.66602 -1 -9.99902l-34 -183c-4 -18.667 -12.333 -33.667 -25 -45
l-42 -34zM392.001 1005h273l46 -48l-64 -50h-272l-47 50zM619.001 654.999l42 237.001l64 51l21 -22c11.333 -12.667 17 -25.334 17 -38.001c0 -5.33301 -0.666992 -11 -2 -17l-34 -193c-3.33301 -18 -13.333 -33.667 -30 -47l-32 -24zM329.001 644h272l49 -56l-30 -25
c-14 -11.333 -34.667 -17 -62 -17h-255l-44 48zM1426 775l-54 -306l-60 -48l-22 24c-12.667 12.667 -19 25.667 -19 39c0 5.33301 1 13.333 3 24l47 267l63 52zM1828 774l-54 -305l-61 -48l-44 50l54 303l62 53zM1389 458h264l43 -50l-67 -48h-216
c-26.667 -0.666992 -45.667 4 -57 14l-31 32zM1752 345l-54 -305l-61 -48l-44 48l54 305l61 47zM530.001 67l387 581l89 31l18 -76l-384 -576l-90 -34zM988.001 755l387 581l88 29l19 -74l-384 -576l-91 -36z" />
    <glyph glyph-name="questiondown" unicode="&#xbf;" horiz-adv-x="956" 
d="M301 164h436l64 -81l-93 -83h-425c-17.333 0 -30.833 2.5 -40.5 7.5s-20.167 14.5 -31.5 28.5l-24 32zM346 580l-68 -391l-113 -93l-32 42c-11.333 14.667 -17 30.667 -17 48c0 10 1.66699 24.667 5 44l53 302c6.66699 28 24.667 54.667 54 80l54 46zM310 679l63 54
c24 20 55 30.667 93 32h348l68 -84l-64 -56c-18 -16.667 -36.333 -25 -55 -25l-38 1h-351zM846 782l55 311.001l97 80l67 -80l-43 -246c-4.66699 -24 -10.167 -41.333 -16.5 -52s-20.5 -25.334 -42.5 -44.001l-54 -46zM920 1201l29 164h164l-29 -164h-164z" />
    <glyph glyph-name="Agrave" unicode="&#xc0;" 
d="M925 1201l-409 -0.000976562l-80 90l56 49c12 10.667 23.5 17.5 34.5 20.5s28.5 4.5 52.5 4.5h351c30.667 0.666992 54.667 -7.66602 72 -24.999l36 -47zM483 1186l-69.998 -397l-94 -80l-70 80l60 342c5.33301 28.667 11.166 49 17.499 61s18.166 25 35.499 39l50 40z
M876.002 785.999l70 394.001l113 91l18 -22c20.667 -24.667 31 -46.334 31 -65.001c0 -9.33301 -1.66699 -23 -5 -41l-62 -354l-98 -83zM439.002 765h413l65 -79l-101 -85h-406l-72 80zM376.002 582l-89 -506l-94 -90l-70 90l89 506l99 78zM1004 582l-89 -506l-96 -90
l-68 90l89 503l98 81zM673.002 1678l205 -205h-190l-209 205h194z" />
    <glyph glyph-name="Aacute" unicode="&#xc1;" 
d="M925 1201l-409 -0.000976562l-80 90l56 49c12 10.667 23.5 17.5 34.5 20.5s28.5 4.5 52.5 4.5h351c30.667 0.666992 54.667 -7.66602 72 -24.999l36 -47zM483 1186l-69.998 -397l-94 -80l-70 80l60 342c5.33301 28.667 11.166 49 17.499 61s18.166 25 35.499 39l50 40z
M876.002 785.999l70 394.001l113 91l18 -22c20.667 -24.667 31 -46.334 31 -65.001c0 -9.33301 -1.66699 -23 -5 -41l-62 -354l-98 -83zM439.002 765h413l65 -79l-101 -85h-406l-72 80zM376.002 582l-89 -506l-94 -90l-70 90l89 506l99 78zM1004 582l-89 -506l-96 -90
l-68 90l89 503l98 81zM887.002 1674h193l-239 -201h-192z" />
    <glyph glyph-name="Acircumflex" unicode="&#xc2;" 
d="M925 1201l-409 -0.000976562l-80 90l56 49c12 10.667 23.5 17.5 34.5 20.5s28.5 4.5 52.5 4.5h351c30.667 0.666992 54.667 -7.66602 72 -24.999l36 -47zM483 1186l-69.998 -397l-94 -80l-70 80l60 342c5.33301 28.667 11.166 49 17.499 61s18.166 25 35.499 39l50 40z
M876.002 785.999l70 394.001l113 91l18 -22c20.667 -24.667 31 -46.334 31 -65.001c0 -9.33301 -1.66699 -23 -5 -41l-62 -354l-98 -83zM439.002 765h413l65 -79l-101 -85h-406l-72 80zM376.002 582l-89 -506l-94 -90l-70 90l89 506l99 78zM1004 582l-89 -506l-96 -90
l-68 90l89 503l98 81zM843.002 1468l-63 99l-95 -99h-166l193 194h158l141 -194h-168z" />
    <glyph glyph-name="Atilde" unicode="&#xc3;" 
d="M925 1201l-409 -0.000976562l-80 90l56 49c12 10.667 23.5 17.5 34.5 20.5s28.5 4.5 52.5 4.5h351c30.667 0.666992 54.667 -7.66602 72 -24.999l36 -47zM483 1186l-69.998 -397l-94 -80l-70 80l60 342c5.33301 28.667 11.166 49 17.499 61s18.166 25 35.499 39l50 40z
M876.002 785.999l70 394.001l113 91l18 -22c20.667 -24.667 31 -46.334 31 -65.001c0 -9.33301 -1.66699 -23 -5 -41l-62 -354l-98 -83zM439.002 765h413l65 -79l-101 -85h-406l-72 80zM376.002 582l-89 -506l-94 -90l-70 90l89 506l99 78zM1004 582l-89 -506l-96 -90
l-68 90l89 503l98 81zM1027 1671l-24 -135l-137 -51l-159 66l-163 -54l24 135l148 49l149 -63z" />
    <glyph glyph-name="Adieresis" unicode="&#xc4;" 
d="M925 1201l-409 -0.000976562l-80 90l56 49c12 10.667 23.5 17.5 34.5 20.5s28.5 4.5 52.5 4.5h351c30.667 0.666992 54.667 -7.66602 72 -24.999l36 -47zM483 1186l-69.998 -397l-94 -80l-70 80l60 342c5.33301 28.667 11.166 49 17.499 61s18.166 25 35.499 39l50 40z
M876.002 785.999l70 394.001l113 91l18 -22c20.667 -24.667 31 -46.334 31 -65.001c0 -9.33301 -1.66699 -23 -5 -41l-62 -354l-98 -83zM439.002 765h413l65 -79l-101 -85h-406l-72 80zM376.002 582l-89 -506l-94 -90l-70 90l89 506l99 78zM1004 582l-89 -506l-96 -90
l-68 90l89 503l98 81zM983.002 1660l-29 -164h-164l29 164h164zM778.002 1660l-29 -164h-164l29 164h164z" />
    <glyph glyph-name="Aring" unicode="&#xc5;" 
d="M925 1201l-409 -0.000976562l-80 90l56 49c12 10.667 23.5 17.5 34.5 20.5s28.5 4.5 52.5 4.5h351c30.667 0.666992 54.667 -7.66602 72 -24.999l36 -47zM483 1186l-69.998 -397l-94 -80l-70 80l60 342c5.33301 28.667 11.166 49 17.499 61s18.166 25 35.499 39l50 40z
M876.002 785.999l70 394.001l113 91l18 -22c20.667 -24.667 31 -46.334 31 -65.001c0 -9.33301 -1.66699 -23 -5 -41l-62 -354l-98 -83zM439.002 765h413l65 -79l-101 -85h-406l-72 80zM376.002 582l-89 -506l-94 -90l-70 90l89 506l99 78zM1004 582l-89 -506l-96 -90
l-68 90l89 503l98 81zM921.002 1698l-41 -234h-232l41 234h232zM825.002 1616h-68l-13 -70h69z" />
    <glyph glyph-name="AE" unicode="&#xc6;" horiz-adv-x="1502" 
d="M904 1201l-389 0.000976562l-74 87l60 50c12.667 11.333 24.5 18.666 35.5 21.999s27.167 5 48.5 5h377l60 -75zM1570 1201h-429l-74 89l76 75h456l76 -78zM482 1181l-68.999 -393.001l-93 -81l-71 81l61 348c4 24.667 9.16699 42.334 15.5 53.001
s19.166 23.667 38.499 39l49 39zM1111 1181l-69 -393l-96 -81l-68 81l72 409l95 71zM441.001 765h415l69 -82l-98 -82h-415l-71 80zM1068 765h425l71 -82l-100 -82h-424l-70 82zM376.001 583l-90 -513l-93 -84l-71 84l88 502l102 87zM1006 586l-71 -404l-192 -160l96 548
l104 90zM962.001 164h425l70 -84l-99 -80h-596z" />
    <glyph glyph-name="Ccedilla" unicode="&#xc7;" horiz-adv-x="874" 
d="M939 1201l-422.999 0.000976562l-75 92l42 36c17.333 15.333 31.666 25.166 42.999 29.499s27 6.5 47 6.5h395l78 -82zM482.001 1183l-74 -418.002l-95 -83l-68 83l64 364c5.33301 30.667 9.83301 49.834 13.5 57.501s14.167 18.834 31.5 33.501l60 52zM379.001 600.999
l-72 -413l-111 -90l-34 42c-11.333 14 -17 30.333 -17 49c0 7.33301 2.66699 25.333 8 54l63 358l97 81zM331.001 163.999h425l73 -83l-102 -81h-374c-48 0 -81.333 10 -100 30l-34 43zM437.001 -149.001l20 114.999h131l-16 -90
c-3.33301 -23.333 -15.333 -43.666 -36 -60.999l-41 -34zM279.001 -161.002h137l58 -75l-30 -27c-13.333 -12 -25.5 -19.833 -36.5 -23.5s-26.833 -5.5 -47.5 -5.5h-104l-55 64z" />
    <glyph glyph-name="Egrave" unicode="&#xc8;" horiz-adv-x="874" 
d="M940 1201h-430l-135 164h594l76 -83zM481 1181l-69 -394l-93 -82l-71 82l98 556zM834 601h-426l-70 80l99 84h426l72 -84zM376 584l-71 -399l-191 -156l95 540l106 89zM334 164h423l72 -84l-101 -80h-595zM624 1678l205 -205h-190l-209 205h194z" />
    <glyph glyph-name="Eacute" unicode="&#xc9;" horiz-adv-x="874" 
d="M940 1201h-430l-135 164h594l76 -83zM481 1181l-69 -394l-93 -82l-71 82l98 556zM834 601h-426l-70 80l99 84h426l72 -84zM376 584l-71 -399l-191 -156l95 540l106 89zM334 164h423l72 -84l-101 -80h-595zM818 1674h193l-239 -201h-192z" />
    <glyph glyph-name="Ecircumflex" unicode="&#xca;" horiz-adv-x="874" 
d="M940 1201h-430l-135 164h594l76 -83zM481 1181l-69 -394l-93 -82l-71 82l98 556zM834 601h-426l-70 80l99 84h426l72 -84zM376 584l-71 -399l-191 -156l95 540l106 89zM334 164h423l72 -84l-101 -80h-595zM774 1468l-63 99l-95 -99h-166l193 194h158l141 -194h-168z" />
    <glyph glyph-name="Edieresis" unicode="&#xcb;" horiz-adv-x="874" 
d="M940 1201h-430l-135 164h594l76 -83zM481 1181l-69 -394l-93 -82l-71 82l98 556zM834 601h-426l-70 80l99 84h426l72 -84zM376 584l-71 -399l-191 -156l95 540l106 89zM334 164h423l72 -84l-101 -80h-595zM914 1660l-29 -164h-164l29 164h164zM709 1660l-29 -164h-164
l29 164h164z" />
    <glyph glyph-name="Igrave" unicode="&#xcc;" horiz-adv-x="382" 
d="M500 1288l-92 -524l-94 -84l-70 84l92 524l101 91zM379 601l-93 -528l-95 -87l-69 87l93 528l99 79zM372 1678l205 -205h-190l-209 205h194z" />
    <glyph glyph-name="Iacute" unicode="&#xcd;" horiz-adv-x="382" 
d="M500 1288l-92 -524l-94 -84l-70 84l92 524l101 91zM379 601l-93 -528l-95 -87l-69 87l93 528l99 79zM573 1674h193l-239 -201h-192z" />
    <glyph glyph-name="Icircumflex" unicode="&#xce;" horiz-adv-x="382" 
d="M500 1288l-92 -524l-94 -84l-70 84l92 524l101 91zM379 601l-93 -528l-95 -87l-69 87l93 528l99 79zM528 1468l-63 99l-95 -99h-166l193 194h158l141 -194h-168z" />
    <glyph glyph-name="Idieresis" unicode="&#xcf;" horiz-adv-x="382" 
d="M500 1288l-92 -524l-94 -84l-70 84l92 524l101 91zM379 601l-93 -528l-95 -87l-69 87l93 528l99 79zM668 1660l-29 -164h-164l29 164h164zM463 1660l-29 -164h-164l29 164h164z" />
    <glyph glyph-name="Eth" unicode="&#xd0;" horiz-adv-x="1065" 
d="M979 1201h-409l-140 164h548c24 0 40.5 -2 49.5 -6s19.833 -14 32.5 -30l32 -40zM536 1184l-68 -384l-93 -88l-70 88l95 542zM926 765l72 407l115 93l31 -38c10.667 -14 16 -31 16 -51c0 -10 -1.66699 -24 -5 -42l-65 -369l-93 -88zM431 589l-70 -396l-192 -162l97 548
l101 86zM897 601l100 76l64 -76l-65 -368c-4.66699 -28 -9.5 -47.667 -14.5 -59s-13.5 -22.333 -25.5 -33l-59 -50l-74 86zM385 164h406.999l80 -97l-32 -31c-27.333 -24.667 -62.666 -36.667 -105.999 -36h-548zM493.999 771h219l67 -82l-96 -82h-219l-70 82zM169.999 771
h109l68 -82l-97 -82h-109l-70 82z" />
    <glyph glyph-name="Ntilde" unicode="&#xd1;" 
d="M501 1293l-93 -529l-94 -81l-70 81l93 529l100 86zM634 1293l226 -396l-24 -132h-88l-232 403l22 125h96zM1129 1293l-93 -529l-98 -81l-66 81l94 529l95 86zM379 601l-92 -525l-96 -90l-68 90l92 525l99 82zM1007 601l-92 -525l-100 -90l-64 90l92 525l95 82zM1027 1671
l-24 -135l-137 -51l-159 66l-163 -54l24 135l148 49l149 -63z" />
    <glyph glyph-name="Ograve" unicode="&#xd2;" 
d="M921 1201h-409l-72 89l50 41c26.667 22 54 33.333 82 34h360c16.667 0 30.167 -2.5 40.5 -7.5s20.5 -13.833 30.5 -26.5l32 -39zM481 1179l-73 -413.999l-97 -85l-66 85l62 354c6 33.333 11 54.666 15 63.999s13.333 20 28 32l62 53zM872 765.001l73 409l114 92l24 -28
c16 -20 24 -40 24 -60c0 -8 -0.666992 -16.667 -2 -26l-69 -387l-98 -82zM379 601.001l-73 -418l-113 -92l-28 34c-14.667 17.333 -22 36 -22 56c0 4.66699 0.666992 11.667 2 21l71 399l95 79zM770 184.001l73.999 417l96 82l67 -82l-62 -355
c-6.66699 -36.667 -11.667 -58.667 -15 -66s-12.666 -17.333 -27.999 -30l-62 -51zM332.999 164.001h402.001l75 -89l-57 -51c-24.667 -16.667 -52.334 -24.667 -83.001 -24h-345c-36 0 -61.333 8 -76 24l-34 42zM673 1678l205 -205h-190l-209 205h194z" />
    <glyph glyph-name="Oacute" unicode="&#xd3;" 
d="M921 1201h-409l-72 89l50 41c26.667 22 54 33.333 82 34h360c16.667 0 30.167 -2.5 40.5 -7.5s20.5 -13.833 30.5 -26.5l32 -39zM481 1179l-73 -413.999l-97 -85l-66 85l62 354c6 33.333 11 54.666 15 63.999s13.333 20 28 32l62 53zM872 765.001l73 409l114 92l24 -28
c16 -20 24 -40 24 -60c0 -8 -0.666992 -16.667 -2 -26l-69 -387l-98 -82zM379 601.001l-73 -418l-113 -92l-28 34c-14.667 17.333 -22 36 -22 56c0 4.66699 0.666992 11.667 2 21l71 399l95 79zM770 184.001l73.999 417l96 82l67 -82l-62 -355
c-6.66699 -36.667 -11.667 -58.667 -15 -66s-12.666 -17.333 -27.999 -30l-62 -51zM332.999 164.001h402.001l75 -89l-57 -51c-24.667 -16.667 -52.334 -24.667 -83.001 -24h-345c-36 0 -61.333 8 -76 24l-34 42zM887 1674h193l-239 -201h-192z" />
    <glyph glyph-name="Ocircumflex" unicode="&#xd4;" 
d="M921 1201h-409l-72 89l50 41c26.667 22 54 33.333 82 34h360c16.667 0 30.167 -2.5 40.5 -7.5s20.5 -13.833 30.5 -26.5l32 -39zM481 1179l-73 -413.999l-97 -85l-66 85l62 354c6 33.333 11 54.666 15 63.999s13.333 20 28 32l62 53zM872 765.001l73 409l114 92l24 -28
c16 -20 24 -40 24 -60c0 -8 -0.666992 -16.667 -2 -26l-69 -387l-98 -82zM379 601.001l-73 -418l-113 -92l-28 34c-14.667 17.333 -22 36 -22 56c0 4.66699 0.666992 11.667 2 21l71 399l95 79zM770 184.001l73.999 417l96 82l67 -82l-62 -355
c-6.66699 -36.667 -11.667 -58.667 -15 -66s-12.666 -17.333 -27.999 -30l-62 -51zM332.999 164.001h402.001l75 -89l-57 -51c-24.667 -16.667 -52.334 -24.667 -83.001 -24h-345c-36 0 -61.333 8 -76 24l-34 42zM843 1468l-63 99l-95 -99h-166l193 194h158l141 -194h-168z
" />
    <glyph glyph-name="Otilde" unicode="&#xd5;" 
d="M921 1201h-409l-72 89l50 41c26.667 22 54 33.333 82 34h360c16.667 0 30.167 -2.5 40.5 -7.5s20.5 -13.833 30.5 -26.5l32 -39zM481 1179l-73 -413.999l-97 -85l-66 85l62 354c6 33.333 11 54.666 15 63.999s13.333 20 28 32l62 53zM872 765.001l73 409l114 92l24 -28
c16 -20 24 -40 24 -60c0 -8 -0.666992 -16.667 -2 -26l-69 -387l-98 -82zM379 601.001l-73 -418l-113 -92l-28 34c-14.667 17.333 -22 36 -22 56c0 4.66699 0.666992 11.667 2 21l71 399l95 79zM770 184.001l73.999 417l96 82l67 -82l-62 -355
c-6.66699 -36.667 -11.667 -58.667 -15 -66s-12.666 -17.333 -27.999 -30l-62 -51zM332.999 164.001h402.001l75 -89l-57 -51c-24.667 -16.667 -52.334 -24.667 -83.001 -24h-345c-36 0 -61.333 8 -76 24l-34 42zM1027 1671l-24 -135l-137 -51l-159 66l-163 -54l24 135
l148 49l149 -63z" />
    <glyph glyph-name="Odieresis" unicode="&#xd6;" 
d="M921 1201h-409l-72 89l50 41c26.667 22 54 33.333 82 34h360c16.667 0 30.167 -2.5 40.5 -7.5s20.5 -13.833 30.5 -26.5l32 -39zM481 1179l-73 -413.999l-97 -85l-66 85l62 354c6 33.333 11 54.666 15 63.999s13.333 20 28 32l62 53zM872 765.001l73 409l114 92l24 -28
c16 -20 24 -40 24 -60c0 -8 -0.666992 -16.667 -2 -26l-69 -387l-98 -82zM379 601.001l-73 -418l-113 -92l-28 34c-14.667 17.333 -22 36 -22 56c0 4.66699 0.666992 11.667 2 21l71 399l95 79zM770 184.001l73.999 417l96 82l67 -82l-62 -355
c-6.66699 -36.667 -11.667 -58.667 -15 -66s-12.666 -17.333 -27.999 -30l-62 -51zM332.999 164.001h402.001l75 -89l-57 -51c-24.667 -16.667 -52.334 -24.667 -83.001 -24h-345c-36 0 -61.333 8 -76 24l-34 42zM983 1660l-29 -164h-164l29 164h164zM778 1660l-29 -164
h-164l29 164h164z" />
    <glyph glyph-name="multiply" unicode="&#xd7;" 
d="M424 1075l202 -302l-23 -129h-92l-208 312l21 119h100zM1058 1075l-25 -137l-281 -294h-119l23 129l287 302h115zM598 612l-23 -128l-285 -294h-122l21 120l289 302h120zM724 612l199 -302l-22 -120h-97l-199 294l23 128h96z" />
    <glyph glyph-name="Oslash" unicode="&#xd8;" 
d="M890 1051l-171 -341l-89 -30l-14 130l179 357h95v-116zM641 557l-180 -359h-95l-6 106l174 345l94 31zM921 1201h-409l-72 89l50 41c26.667 22 54 33.333 82 34h360c16.667 0 30.167 -2.5 40.5 -7.5s20.5 -13.833 30.5 -26.5l32 -39zM481 1179l-73 -413.999l-97 -85
l-66 85l62 354c6 33.333 11 54.666 15 63.999s13.333 20 28 32l62 53zM872 765.001l73 409l114 92l24 -28c16 -20 24 -40 24 -60c0 -8 -0.666992 -16.667 -2 -26l-69 -387l-98 -82zM379 601.001l-73 -418l-113 -92l-28 34c-14.667 17.333 -22 36 -22 56
c0 4.66699 0.666992 11.667 2 21l71 399l95 79zM770 184.001l73.999 417l96 82l67 -82l-62 -355c-6.66699 -36.667 -11.667 -58.667 -15 -66s-12.666 -17.333 -27.999 -30l-62 -51zM332.999 164.001h402.001l75 -89l-57 -51c-24.667 -16.667 -52.334 -24.667 -83.001 -24
h-345c-36 0 -61.333 8 -76 24l-34 42z" />
    <glyph glyph-name="Ugrave" unicode="&#xd9;" 
d="M500 1292l-92 -528l-93 -80l-71 80l93 528l100 87zM1129 1292l-93 -528l-98 -80l-66 80l93 528l96 87zM379 601l-74 -419.001l-110 -86l-25 28c-17.333 20.667 -26 41.334 -26 62.001c0 9.33301 1.66699 24.333 5 45l66 370l100 84zM1007 600.999l-68 -384.001
c-4 -22 -8.83301 -37.667 -14.5 -47s-17.5 -21.666 -35.5 -36.999l-48 -40l-72 89l74 419l95 84zM331 163.998l405 0.000976562l78 -93l-46 -38c-17.333 -14 -32.5 -23 -45.5 -27s-33.833 -6 -62.5 -6h-312c-28 0 -48.5 2.16699 -61.5 6.5s-25.167 13.166 -36.5 26.499
l-35 41zM672 1678l205 -205h-190l-209 205h194z" />
    <glyph glyph-name="Uacute" unicode="&#xda;" 
d="M500 1292l-92 -528l-93 -80l-71 80l93 528l100 87zM1129 1292l-93 -528l-98 -80l-66 80l93 528l96 87zM379 601l-74 -419.001l-110 -86l-25 28c-17.333 20.667 -26 41.334 -26 62.001c0 9.33301 1.66699 24.333 5 45l66 370l100 84zM1007 600.999l-68 -384.001
c-4 -22 -8.83301 -37.667 -14.5 -47s-17.5 -21.666 -35.5 -36.999l-48 -40l-72 89l74 419l95 84zM331 163.998l405 0.000976562l78 -93l-46 -38c-17.333 -14 -32.5 -23 -45.5 -27s-33.833 -6 -62.5 -6h-312c-28 0 -48.5 2.16699 -61.5 6.5s-25.167 13.166 -36.5 26.499
l-35 41zM886 1674h193l-239 -201h-192z" />
    <glyph glyph-name="Ucircumflex" unicode="&#xdb;" 
d="M500 1292l-92 -528l-93 -80l-71 80l93 528l100 87zM1129 1292l-93 -528l-98 -80l-66 80l93 528l96 87zM379 601l-74 -419.001l-110 -86l-25 28c-17.333 20.667 -26 41.334 -26 62.001c0 9.33301 1.66699 24.333 5 45l66 370l100 84zM1007 600.999l-68 -384.001
c-4 -22 -8.83301 -37.667 -14.5 -47s-17.5 -21.666 -35.5 -36.999l-48 -40l-72 89l74 419l95 84zM331 163.998l405 0.000976562l78 -93l-46 -38c-17.333 -14 -32.5 -23 -45.5 -27s-33.833 -6 -62.5 -6h-312c-28 0 -48.5 2.16699 -61.5 6.5s-25.167 13.166 -36.5 26.499
l-35 41zM842 1468l-63 99l-95 -99h-166l193 194h158l141 -194h-168z" />
    <glyph glyph-name="Udieresis" unicode="&#xdc;" 
d="M500 1292l-92 -528l-93 -80l-71 80l93 528l100 87zM1129 1292l-93 -528l-98 -80l-66 80l93 528l96 87zM379 601l-74 -419.001l-110 -86l-25 28c-17.333 20.667 -26 41.334 -26 62.001c0 9.33301 1.66699 24.333 5 45l66 370l100 84zM1007 600.999l-68 -384.001
c-4 -22 -8.83301 -37.667 -14.5 -47s-17.5 -21.666 -35.5 -36.999l-48 -40l-72 89l74 419l95 84zM331 163.998l405 0.000976562l78 -93l-46 -38c-17.333 -14 -32.5 -23 -45.5 -27s-33.833 -6 -62.5 -6h-312c-28 0 -48.5 2.16699 -61.5 6.5s-25.167 13.166 -36.5 26.499
l-35 41zM982 1660l-29 -164h-164l29 164h164zM777 1660l-29 -164h-164l29 164h164z" />
    <glyph glyph-name="Yacute" unicode="&#xdd;" horiz-adv-x="983" 
d="M473 1288l-89 -502l-91 -79l-31 35c-22 25.333 -33 50 -33 74c0 12.667 1.33301 26.667 4 42l76 430l102 91zM1101 1288l-89 -502l-93 -82l-71 82l89 502l101 91zM413 765l408 0.000976562l69 -82l-99 -82h-315c-42.667 0 -70.5 2.16699 -83.5 6.5
s-27.5 16.166 -43.5 35.499l-33 40zM976 579.001l-63 -358c-6.66699 -35.333 -22.667 -64 -48 -86l-54 -43l-69 88l69 396l100 83zM275 164.001h440l71 -92l-55 -47c-12.667 -10.667 -25.167 -17.5 -37.5 -20.5s-33.5 -4.5 -63.5 -4.5h-384l-62 89zM846 1674h193l-239 -201
h-192z" />
    <glyph glyph-name="Thorn" unicode="&#xde;" horiz-adv-x="983" 
d="M500 1288l-92 -524l-94 -84l-70 84l92 524l101 91zM379 601l-93 -528l-95 -87l-69 87l93 528l99 79zM870 908h-401l29 164h365c26.667 0 45.167 -2.16699 55.5 -6.5s22.5 -14.833 36.5 -31.5l28 -33zM824 491l69 391.999l112 93l19 -23c20 -22.667 30 -46.667 30 -72
c0 -9.33301 -0.666992 -17.666 -2 -24.999l-50 -282c-6 -32.667 -11.5 -54.667 -16.5 -66s-14.833 -23.333 -29.5 -36l-70 -59zM797 470.999l63 -79l-66 -53c-18 -14 -32.5 -22.833 -43.5 -26.5s-28.5 -5.5 -52.5 -5.5h-335l29 164h405z" />
    <glyph glyph-name="germandbls" unicode="&#xdf;" horiz-adv-x="2021" 
d="M949 1201h-436l-76 91l48 41c18 15.333 32.167 24.5 42.5 27.5s30.833 4.5 61.5 4.5h389l70 -85zM481 1183l-68.999 -397l-98 -80l-28 33c-20.667 24 -31 49.667 -31 77c0 8 1.33301 19.333 4 34l49 278c5.33301 29.333 11.666 50.833 18.999 64.5s21.333 28.5 42 44.5
l42 33zM441.001 765h351.001c28 0 47.667 -2.5 59 -7.5s24.333 -17.5 39 -37.5l27 -36l-101 -83h-354c-24 0 -42.333 3 -55 9s-26.334 18.333 -41.001 37l-28 35zM769.002 179l69 396l100 80l34 -44c16 -21.333 24 -41 24 -59c0 -8 -1.33301 -19 -4 -33l-54 -309
c-4.66699 -28.667 -19.667 -54 -45 -76l-52 -42zM302.002 164l434 0.000976562l79 -94l-38 -34c-16.667 -14.667 -31.667 -24.334 -45 -29.001s-33 -7 -59 -7h-400l-69 80zM1959 1201h-435.998l-76 91l49 41c17.333 15.333 31.166 24.5 41.499 27.5s31.166 4.5 62.499 4.5
h388l70 -85zM1492 1183l-70 -397l-97 -80l-28 33c-20.667 24 -31 49.667 -31 77c0 10 1 21.333 3 34l49 278c5.33301 29.333 11.833 50.833 19.5 64.5s21.5 28.5 41.5 44.5l42 33zM1452 765.001h350.002c28.667 0 48.5 -2.5 59.5 -7.5s23.833 -17.5 38.5 -37.5l28 -36
l-102 -83h-353c-24.667 0 -43.334 3 -56.001 9s-26.334 18.333 -41.001 37l-27 35zM1779.01 179.001l70 396.001l99 80l34 -44c16 -20.667 24 -40.334 24 -59.001c0 -10 -1 -21 -3 -33l-55 -309c-4.66699 -28.667 -19.667 -54 -45 -76l-51 -42zM1312.01 164.002
l433.999 0.000976562l80 -94l-38 -34c-17.333 -14.667 -32.666 -24.334 -45.999 -29.001s-33 -7 -59 -7h-400l-69 80z" />
    <glyph glyph-name="agrave" unicode="&#xe0;" 
d="M925 1201l-409 -0.000976562l-80 90l56 49c12 10.667 23.5 17.5 34.5 20.5s28.5 4.5 52.5 4.5h351c30.667 0.666992 54.667 -7.66602 72 -24.999l36 -47zM483 1186l-69.998 -397l-94 -80l-70 80l60 342c5.33301 28.667 11.166 49 17.499 61s18.166 25 35.499 39l50 40z
M876.002 785.999l70 394.001l113 91l18 -22c20.667 -24.667 31 -46.334 31 -65.001c0 -9.33301 -1.66699 -23 -5 -41l-62 -354l-98 -83zM439.002 765h413l65 -79l-101 -85h-406l-72 80zM376.002 582l-89 -506l-94 -90l-70 90l89 506l99 78zM1004 582l-89 -506l-96 -90
l-68 90l89 503l98 81zM673.002 1678l205 -205h-190l-209 205h194z" />
    <glyph glyph-name="aacute" unicode="&#xe1;" 
d="M925 1201l-409 -0.000976562l-80 90l56 49c12 10.667 23.5 17.5 34.5 20.5s28.5 4.5 52.5 4.5h351c30.667 0.666992 54.667 -7.66602 72 -24.999l36 -47zM483 1186l-69.998 -397l-94 -80l-70 80l60 342c5.33301 28.667 11.166 49 17.499 61s18.166 25 35.499 39l50 40z
M876.002 785.999l70 394.001l113 91l18 -22c20.667 -24.667 31 -46.334 31 -65.001c0 -9.33301 -1.66699 -23 -5 -41l-62 -354l-98 -83zM439.002 765h413l65 -79l-101 -85h-406l-72 80zM376.002 582l-89 -506l-94 -90l-70 90l89 506l99 78zM1004 582l-89 -506l-96 -90
l-68 90l89 503l98 81zM887.002 1674h193l-239 -201h-192z" />
    <glyph glyph-name="acircumflex" unicode="&#xe2;" 
d="M925 1201l-409 -0.000976562l-80 90l56 49c12 10.667 23.5 17.5 34.5 20.5s28.5 4.5 52.5 4.5h351c30.667 0.666992 54.667 -7.66602 72 -24.999l36 -47zM483 1186l-69.998 -397l-94 -80l-70 80l60 342c5.33301 28.667 11.166 49 17.499 61s18.166 25 35.499 39l50 40z
M876.002 785.999l70 394.001l113 91l18 -22c20.667 -24.667 31 -46.334 31 -65.001c0 -9.33301 -1.66699 -23 -5 -41l-62 -354l-98 -83zM439.002 765h413l65 -79l-101 -85h-406l-72 80zM376.002 582l-89 -506l-94 -90l-70 90l89 506l99 78zM1004 582l-89 -506l-96 -90
l-68 90l89 503l98 81zM843.002 1468l-63 99l-95 -99h-166l193 194h158l141 -194h-168z" />
    <glyph glyph-name="atilde" unicode="&#xe3;" 
d="M925 1201l-409 -0.000976562l-80 90l56 49c12 10.667 23.5 17.5 34.5 20.5s28.5 4.5 52.5 4.5h351c30.667 0.666992 54.667 -7.66602 72 -24.999l36 -47zM483 1186l-69.998 -397l-94 -80l-70 80l60 342c5.33301 28.667 11.166 49 17.499 61s18.166 25 35.499 39l50 40z
M876.002 785.999l70 394.001l113 91l18 -22c20.667 -24.667 31 -46.334 31 -65.001c0 -9.33301 -1.66699 -23 -5 -41l-62 -354l-98 -83zM439.002 765h413l65 -79l-101 -85h-406l-72 80zM376.002 582l-89 -506l-94 -90l-70 90l89 506l99 78zM1004 582l-89 -506l-96 -90
l-68 90l89 503l98 81zM1027 1671l-24 -135l-137 -51l-159 66l-163 -54l24 135l148 49l149 -63z" />
    <glyph glyph-name="adieresis" unicode="&#xe4;" 
d="M925 1201l-409 -0.000976562l-80 90l56 49c12 10.667 23.5 17.5 34.5 20.5s28.5 4.5 52.5 4.5h351c30.667 0.666992 54.667 -7.66602 72 -24.999l36 -47zM483 1186l-69.998 -397l-94 -80l-70 80l60 342c5.33301 28.667 11.166 49 17.499 61s18.166 25 35.499 39l50 40z
M876.002 785.999l70 394.001l113 91l18 -22c20.667 -24.667 31 -46.334 31 -65.001c0 -9.33301 -1.66699 -23 -5 -41l-62 -354l-98 -83zM439.002 765h413l65 -79l-101 -85h-406l-72 80zM376.002 582l-89 -506l-94 -90l-70 90l89 506l99 78zM1004 582l-89 -506l-96 -90
l-68 90l89 503l98 81zM983.002 1660l-29 -164h-164l29 164h164zM778.002 1660l-29 -164h-164l29 164h164z" />
    <glyph glyph-name="aring" unicode="&#xe5;" 
d="M925 1201l-409 -0.000976562l-80 90l56 49c12 10.667 23.5 17.5 34.5 20.5s28.5 4.5 52.5 4.5h351c30.667 0.666992 54.667 -7.66602 72 -24.999l36 -47zM483 1186l-69.998 -397l-94 -80l-70 80l60 342c5.33301 28.667 11.166 49 17.499 61s18.166 25 35.499 39l50 40z
M876.002 785.999l70 394.001l113 91l18 -22c20.667 -24.667 31 -46.334 31 -65.001c0 -9.33301 -1.66699 -23 -5 -41l-62 -354l-98 -83zM439.002 765h413l65 -79l-101 -85h-406l-72 80zM376.002 582l-89 -506l-94 -90l-70 90l89 506l99 78zM1004 582l-89 -506l-96 -90
l-68 90l89 503l98 81zM921.002 1698l-41 -234h-232l41 234h232zM825.002 1616h-68l-13 -70h69z" />
    <glyph glyph-name="ae" unicode="&#xe6;" horiz-adv-x="1502" 
d="M904 1201l-389 0.000976562l-74 87l60 50c12.667 11.333 24.5 18.666 35.5 21.999s27.167 5 48.5 5h377l60 -75zM1570 1201h-429l-74 89l76 75h456l76 -78zM482 1181l-68.999 -393.001l-93 -81l-71 81l61 348c4 24.667 9.16699 42.334 15.5 53.001
s19.166 23.667 38.499 39l49 39zM1111 1181l-69 -393l-96 -81l-68 81l72 409l95 71zM441.001 765h415l69 -82l-98 -82h-415l-71 80zM1068 765h425l71 -82l-100 -82h-424l-70 82zM376.001 583l-90 -513l-93 -84l-71 84l88 502l102 87zM1006 586l-71 -404l-192 -160l96 548
l104 90zM962.001 164h425l70 -84l-99 -80h-596z" />
    <glyph glyph-name="ccedilla" unicode="&#xe7;" horiz-adv-x="874" 
d="M939 1201l-422.999 0.000976562l-75 92l42 36c17.333 15.333 31.666 25.166 42.999 29.499s27 6.5 47 6.5h395l78 -82zM482.001 1183l-74 -418.002l-95 -83l-68 83l64 364c5.33301 30.667 9.83301 49.834 13.5 57.501s14.167 18.834 31.5 33.501l60 52zM379.001 600.999
l-72 -413l-111 -90l-34 42c-11.333 14 -17 30.333 -17 49c0 7.33301 2.66699 25.333 8 54l63 358l97 81zM331.001 163.999h425l73 -83l-102 -81h-374c-48 0 -81.333 10 -100 30l-34 43zM437.001 -149.001l20 114.999h131l-16 -90
c-3.33301 -23.333 -15.333 -43.666 -36 -60.999l-41 -34zM279.001 -161.002h137l58 -75l-30 -27c-13.333 -12 -25.5 -19.833 -36.5 -23.5s-26.833 -5.5 -47.5 -5.5h-104l-55 64z" />
    <glyph glyph-name="egrave" unicode="&#xe8;" horiz-adv-x="874" 
d="M940 1201h-430l-135 164h594l76 -83zM481 1181l-69 -394l-93 -82l-71 82l98 556zM834 601h-426l-70 80l99 84h426l72 -84zM376 584l-71 -399l-191 -156l95 540l106 89zM334 164h423l72 -84l-101 -80h-595zM624 1678l205 -205h-190l-209 205h194z" />
    <glyph glyph-name="eacute" unicode="&#xe9;" horiz-adv-x="874" 
d="M940 1201h-430l-135 164h594l76 -83zM481 1181l-69 -394l-93 -82l-71 82l98 556zM834 601h-426l-70 80l99 84h426l72 -84zM376 584l-71 -399l-191 -156l95 540l106 89zM334 164h423l72 -84l-101 -80h-595zM818 1674h193l-239 -201h-192z" />
    <glyph glyph-name="ecircumflex" unicode="&#xea;" horiz-adv-x="874" 
d="M940 1201h-430l-135 164h594l76 -83zM481 1181l-69 -394l-93 -82l-71 82l98 556zM834 601h-426l-70 80l99 84h426l72 -84zM376 584l-71 -399l-191 -156l95 540l106 89zM334 164h423l72 -84l-101 -80h-595zM774 1468l-63 99l-95 -99h-166l193 194h158l141 -194h-168z" />
    <glyph glyph-name="edieresis" unicode="&#xeb;" horiz-adv-x="874" 
d="M940 1201h-430l-135 164h594l76 -83zM481 1181l-69 -394l-93 -82l-71 82l98 556zM834 601h-426l-70 80l99 84h426l72 -84zM376 584l-71 -399l-191 -156l95 540l106 89zM334 164h423l72 -84l-101 -80h-595zM914 1660l-29 -164h-164l29 164h164zM709 1660l-29 -164h-164
l29 164h164z" />
    <glyph glyph-name="igrave" unicode="&#xec;" horiz-adv-x="382" 
d="M500 1288l-92 -524l-94 -84l-70 84l92 524l101 91zM379 601l-93 -528l-95 -87l-69 87l93 528l99 79zM372 1678l205 -205h-190l-209 205h194z" />
    <glyph glyph-name="iacute" unicode="&#xed;" horiz-adv-x="382" 
d="M500 1288l-92 -524l-94 -84l-70 84l92 524l101 91zM379 601l-93 -528l-95 -87l-69 87l93 528l99 79zM573 1674h193l-239 -201h-192z" />
    <glyph glyph-name="icircumflex" unicode="&#xee;" horiz-adv-x="382" 
d="M500 1288l-92 -524l-94 -84l-70 84l92 524l101 91zM379 601l-93 -528l-95 -87l-69 87l93 528l99 79zM528 1468l-63 99l-95 -99h-166l193 194h158l141 -194h-168z" />
    <glyph glyph-name="idieresis" unicode="&#xef;" horiz-adv-x="382" 
d="M500 1288l-92 -524l-94 -84l-70 84l92 524l101 91zM379 601l-93 -528l-95 -87l-69 87l93 528l99 79zM668 1660l-29 -164h-164l29 164h164zM463 1660l-29 -164h-164l29 164h164z" />
    <glyph glyph-name="eth" unicode="&#xf0;" horiz-adv-x="1065" 
d="M979 1201h-409l-140 164h548c24 0 40.5 -2 49.5 -6s19.833 -14 32.5 -30l32 -40zM536 1184l-68 -384l-93 -88l-70 88l95 542zM926 765l72 407l115 93l31 -38c10.667 -14 16 -31 16 -51c0 -10 -1.66699 -24 -5 -42l-65 -369l-93 -88zM431 589l-70 -396l-192 -162l97 548
l101 86zM897 601l100 76l64 -76l-65 -368c-4.66699 -28 -9.5 -47.667 -14.5 -59s-13.5 -22.333 -25.5 -33l-59 -50l-74 86zM385 164h406.999l80 -97l-32 -31c-27.333 -24.667 -62.666 -36.667 -105.999 -36h-548zM493.999 771h219l67 -82l-96 -82h-219l-70 82zM169.999 771
h109l68 -82l-97 -82h-109l-70 82z" />
    <glyph glyph-name="ntilde" unicode="&#xf1;" 
d="M501 1293l-93 -529l-94 -81l-70 81l93 529l100 86zM634 1293l226 -396l-24 -132h-88l-232 403l22 125h96zM1129 1293l-93 -529l-98 -81l-66 81l94 529l95 86zM379 601l-92 -525l-96 -90l-68 90l92 525l99 82zM1007 601l-92 -525l-100 -90l-64 90l92 525l95 82zM1027 1671
l-24 -135l-137 -51l-159 66l-163 -54l24 135l148 49l149 -63z" />
    <glyph glyph-name="ograve" unicode="&#xf2;" 
d="M921 1201h-409l-72 89l50 41c26.667 22 54 33.333 82 34h360c16.667 0 30.167 -2.5 40.5 -7.5s20.5 -13.833 30.5 -26.5l32 -39zM481 1179l-73 -413.999l-97 -85l-66 85l62 354c6 33.333 11 54.666 15 63.999s13.333 20 28 32l62 53zM872 765.001l73 409l114 92l24 -28
c16 -20 24 -40 24 -60c0 -8 -0.666992 -16.667 -2 -26l-69 -387l-98 -82zM379 601.001l-73 -418l-113 -92l-28 34c-14.667 17.333 -22 36 -22 56c0 4.66699 0.666992 11.667 2 21l71 399l95 79zM770 184.001l73.999 417l96 82l67 -82l-62 -355
c-6.66699 -36.667 -11.667 -58.667 -15 -66s-12.666 -17.333 -27.999 -30l-62 -51zM332.999 164.001h402.001l75 -89l-57 -51c-24.667 -16.667 -52.334 -24.667 -83.001 -24h-345c-36 0 -61.333 8 -76 24l-34 42zM673 1678l205 -205h-190l-209 205h194z" />
    <glyph glyph-name="oacute" unicode="&#xf3;" 
d="M921 1201h-409l-72 89l50 41c26.667 22 54 33.333 82 34h360c16.667 0 30.167 -2.5 40.5 -7.5s20.5 -13.833 30.5 -26.5l32 -39zM481 1179l-73 -413.999l-97 -85l-66 85l62 354c6 33.333 11 54.666 15 63.999s13.333 20 28 32l62 53zM872 765.001l73 409l114 92l24 -28
c16 -20 24 -40 24 -60c0 -8 -0.666992 -16.667 -2 -26l-69 -387l-98 -82zM379 601.001l-73 -418l-113 -92l-28 34c-14.667 17.333 -22 36 -22 56c0 4.66699 0.666992 11.667 2 21l71 399l95 79zM770 184.001l73.999 417l96 82l67 -82l-62 -355
c-6.66699 -36.667 -11.667 -58.667 -15 -66s-12.666 -17.333 -27.999 -30l-62 -51zM332.999 164.001h402.001l75 -89l-57 -51c-24.667 -16.667 -52.334 -24.667 -83.001 -24h-345c-36 0 -61.333 8 -76 24l-34 42zM887 1674h193l-239 -201h-192z" />
    <glyph glyph-name="ocircumflex" unicode="&#xf4;" 
d="M921 1201h-409l-72 89l50 41c26.667 22 54 33.333 82 34h360c16.667 0 30.167 -2.5 40.5 -7.5s20.5 -13.833 30.5 -26.5l32 -39zM481 1179l-73 -413.999l-97 -85l-66 85l62 354c6 33.333 11 54.666 15 63.999s13.333 20 28 32l62 53zM872 765.001l73 409l114 92l24 -28
c16 -20 24 -40 24 -60c0 -8 -0.666992 -16.667 -2 -26l-69 -387l-98 -82zM379 601.001l-73 -418l-113 -92l-28 34c-14.667 17.333 -22 36 -22 56c0 4.66699 0.666992 11.667 2 21l71 399l95 79zM770 184.001l73.999 417l96 82l67 -82l-62 -355
c-6.66699 -36.667 -11.667 -58.667 -15 -66s-12.666 -17.333 -27.999 -30l-62 -51zM332.999 164.001h402.001l75 -89l-57 -51c-24.667 -16.667 -52.334 -24.667 -83.001 -24h-345c-36 0 -61.333 8 -76 24l-34 42zM843 1468l-63 99l-95 -99h-166l193 194h158l141 -194h-168z
" />
    <glyph glyph-name="otilde" unicode="&#xf5;" 
d="M921 1201h-409l-72 89l50 41c26.667 22 54 33.333 82 34h360c16.667 0 30.167 -2.5 40.5 -7.5s20.5 -13.833 30.5 -26.5l32 -39zM481 1179l-73 -413.999l-97 -85l-66 85l62 354c6 33.333 11 54.666 15 63.999s13.333 20 28 32l62 53zM872 765.001l73 409l114 92l24 -28
c16 -20 24 -40 24 -60c0 -8 -0.666992 -16.667 -2 -26l-69 -387l-98 -82zM379 601.001l-73 -418l-113 -92l-28 34c-14.667 17.333 -22 36 -22 56c0 4.66699 0.666992 11.667 2 21l71 399l95 79zM770 184.001l73.999 417l96 82l67 -82l-62 -355
c-6.66699 -36.667 -11.667 -58.667 -15 -66s-12.666 -17.333 -27.999 -30l-62 -51zM332.999 164.001h402.001l75 -89l-57 -51c-24.667 -16.667 -52.334 -24.667 -83.001 -24h-345c-36 0 -61.333 8 -76 24l-34 42zM1027 1671l-24 -135l-137 -51l-159 66l-163 -54l24 135
l148 49l149 -63z" />
    <glyph glyph-name="odieresis" unicode="&#xf6;" 
d="M921 1201h-409l-72 89l50 41c26.667 22 54 33.333 82 34h360c16.667 0 30.167 -2.5 40.5 -7.5s20.5 -13.833 30.5 -26.5l32 -39zM481 1179l-73 -413.999l-97 -85l-66 85l62 354c6 33.333 11 54.666 15 63.999s13.333 20 28 32l62 53zM872 765.001l73 409l114 92l24 -28
c16 -20 24 -40 24 -60c0 -8 -0.666992 -16.667 -2 -26l-69 -387l-98 -82zM379 601.001l-73 -418l-113 -92l-28 34c-14.667 17.333 -22 36 -22 56c0 4.66699 0.666992 11.667 2 21l71 399l95 79zM770 184.001l73.999 417l96 82l67 -82l-62 -355
c-6.66699 -36.667 -11.667 -58.667 -15 -66s-12.666 -17.333 -27.999 -30l-62 -51zM332.999 164.001h402.001l75 -89l-57 -51c-24.667 -16.667 -52.334 -24.667 -83.001 -24h-345c-36 0 -61.333 8 -76 24l-34 42zM983 1660l-29 -164h-164l29 164h164zM778 1660l-29 -164
h-164l29 164h164z" />
    <glyph glyph-name="divide" unicode="&#xf7;" 
d="M784 1120l-29 -164h-164l29 164h164zM1056 765l71 -82l-100 -82h-833l-71 80l100 84h833zM659 410l-29 -164h-164l29 164h164z" />
    <glyph glyph-name="oslash" unicode="&#xf8;" 
d="M890 1051l-171 -341l-89 -30l-14 130l179 357h95v-116zM641 557l-180 -359h-95l-6 106l174 345l94 31zM921 1201h-409l-72 89l50 41c26.667 22 54 33.333 82 34h360c16.667 0 30.167 -2.5 40.5 -7.5s20.5 -13.833 30.5 -26.5l32 -39zM481 1179l-73 -413.999l-97 -85
l-66 85l62 354c6 33.333 11 54.666 15 63.999s13.333 20 28 32l62 53zM872 765.001l73 409l114 92l24 -28c16 -20 24 -40 24 -60c0 -8 -0.666992 -16.667 -2 -26l-69 -387l-98 -82zM379 601.001l-73 -418l-113 -92l-28 34c-14.667 17.333 -22 36 -22 56
c0 4.66699 0.666992 11.667 2 21l71 399l95 79zM770 184.001l73.999 417l96 82l67 -82l-62 -355c-6.66699 -36.667 -11.667 -58.667 -15 -66s-12.666 -17.333 -27.999 -30l-62 -51zM332.999 164.001h402.001l75 -89l-57 -51c-24.667 -16.667 -52.334 -24.667 -83.001 -24
h-345c-36 0 -61.333 8 -76 24l-34 42z" />
    <glyph glyph-name="ugrave" unicode="&#xf9;" 
d="M500 1292l-92 -528l-93 -80l-71 80l93 528l100 87zM1129 1292l-93 -528l-98 -80l-66 80l93 528l96 87zM379 601l-74 -419.001l-110 -86l-25 28c-17.333 20.667 -26 41.334 -26 62.001c0 9.33301 1.66699 24.333 5 45l66 370l100 84zM1007 600.999l-68 -384.001
c-4 -22 -8.83301 -37.667 -14.5 -47s-17.5 -21.666 -35.5 -36.999l-48 -40l-72 89l74 419l95 84zM331 163.998l405 0.000976562l78 -93l-46 -38c-17.333 -14 -32.5 -23 -45.5 -27s-33.833 -6 -62.5 -6h-312c-28 0 -48.5 2.16699 -61.5 6.5s-25.167 13.166 -36.5 26.499
l-35 41zM672 1678l205 -205h-190l-209 205h194z" />
    <glyph glyph-name="uacute" unicode="&#xfa;" 
d="M500 1292l-92 -528l-93 -80l-71 80l93 528l100 87zM1129 1292l-93 -528l-98 -80l-66 80l93 528l96 87zM379 601l-74 -419.001l-110 -86l-25 28c-17.333 20.667 -26 41.334 -26 62.001c0 9.33301 1.66699 24.333 5 45l66 370l100 84zM1007 600.999l-68 -384.001
c-4 -22 -8.83301 -37.667 -14.5 -47s-17.5 -21.666 -35.5 -36.999l-48 -40l-72 89l74 419l95 84zM331 163.998l405 0.000976562l78 -93l-46 -38c-17.333 -14 -32.5 -23 -45.5 -27s-33.833 -6 -62.5 -6h-312c-28 0 -48.5 2.16699 -61.5 6.5s-25.167 13.166 -36.5 26.499
l-35 41zM886 1674h193l-239 -201h-192z" />
    <glyph glyph-name="ucircumflex" unicode="&#xfb;" 
d="M500 1292l-92 -528l-93 -80l-71 80l93 528l100 87zM1129 1292l-93 -528l-98 -80l-66 80l93 528l96 87zM379 601l-74 -419.001l-110 -86l-25 28c-17.333 20.667 -26 41.334 -26 62.001c0 9.33301 1.66699 24.333 5 45l66 370l100 84zM1007 600.999l-68 -384.001
c-4 -22 -8.83301 -37.667 -14.5 -47s-17.5 -21.666 -35.5 -36.999l-48 -40l-72 89l74 419l95 84zM331 163.998l405 0.000976562l78 -93l-46 -38c-17.333 -14 -32.5 -23 -45.5 -27s-33.833 -6 -62.5 -6h-312c-28 0 -48.5 2.16699 -61.5 6.5s-25.167 13.166 -36.5 26.499
l-35 41zM842 1468l-63 99l-95 -99h-166l193 194h158l141 -194h-168z" />
    <glyph glyph-name="udieresis" unicode="&#xfc;" 
d="M500 1292l-92 -528l-93 -80l-71 80l93 528l100 87zM1129 1292l-93 -528l-98 -80l-66 80l93 528l96 87zM379 601l-74 -419.001l-110 -86l-25 28c-17.333 20.667 -26 41.334 -26 62.001c0 9.33301 1.66699 24.333 5 45l66 370l100 84zM1007 600.999l-68 -384.001
c-4 -22 -8.83301 -37.667 -14.5 -47s-17.5 -21.666 -35.5 -36.999l-48 -40l-72 89l74 419l95 84zM331 163.998l405 0.000976562l78 -93l-46 -38c-17.333 -14 -32.5 -23 -45.5 -27s-33.833 -6 -62.5 -6h-312c-28 0 -48.5 2.16699 -61.5 6.5s-25.167 13.166 -36.5 26.499
l-35 41zM982 1660l-29 -164h-164l29 164h164zM777 1660l-29 -164h-164l29 164h164z" />
    <glyph glyph-name="yacute" unicode="&#xfd;" horiz-adv-x="983" 
d="M473 1288l-89 -502l-91 -79l-31 35c-22 25.333 -33 50 -33 74c0 12.667 1.33301 26.667 4 42l76 430l102 91zM1101 1288l-89 -502l-93 -82l-71 82l89 502l101 91zM413 765l408 0.000976562l69 -82l-99 -82h-315c-42.667 0 -70.5 2.16699 -83.5 6.5
s-27.5 16.166 -43.5 35.499l-33 40zM976 579.001l-63 -358c-6.66699 -35.333 -22.667 -64 -48 -86l-54 -43l-69 88l69 396l100 83zM275 164.001h440l71 -92l-55 -47c-12.667 -10.667 -25.167 -17.5 -37.5 -20.5s-33.5 -4.5 -63.5 -4.5h-384l-62 89zM846 1674h193l-239 -201
h-192z" />
    <glyph glyph-name="thorn" unicode="&#xfe;" horiz-adv-x="983" 
d="M500 1288l-92 -524l-94 -84l-70 84l92 524l101 91zM379 601l-93 -528l-95 -87l-69 87l93 528l99 79zM870 908h-401l29 164h365c26.667 0 45.167 -2.16699 55.5 -6.5s22.5 -14.833 36.5 -31.5l28 -33zM824 491l69 391.999l112 93l19 -23c20 -22.667 30 -46.667 30 -72
c0 -9.33301 -0.666992 -17.666 -2 -24.999l-50 -282c-6 -32.667 -11.5 -54.667 -16.5 -66s-14.833 -23.333 -29.5 -36l-70 -59zM797 470.999l63 -79l-66 -53c-18 -14 -32.5 -22.833 -43.5 -26.5s-28.5 -5.5 -52.5 -5.5h-335l29 164h405z" />
    <glyph glyph-name="ydieresis" unicode="&#xff;" horiz-adv-x="983" 
d="M473 1288l-89 -502l-91 -79l-31 35c-22 25.333 -33 50 -33 74c0 12.667 1.33301 26.667 4 42l76 430l102 91zM1101 1288l-89 -502l-93 -82l-71 82l89 502l101 91zM413 765l408 0.000976562l69 -82l-99 -82h-315c-42.667 0 -70.5 2.16699 -83.5 6.5
s-27.5 16.166 -43.5 35.499l-33 40zM976 579.001l-63 -358c-6.66699 -35.333 -22.667 -64 -48 -86l-54 -43l-69 88l69 396l100 83zM275 164.001h440l71 -92l-55 -47c-12.667 -10.667 -25.167 -17.5 -37.5 -20.5s-33.5 -4.5 -63.5 -4.5h-384l-62 89zM969 1660l-29 -164h-164
l29 164h164zM764 1660l-29 -164h-164l29 164h164z" />
    <glyph glyph-name="Cacute" unicode="&#x106;" horiz-adv-x="874" 
d="M819 1674h193l-239 -201h-192zM939 1201l-423 0.000976562l-75 92l42 36c18 15.333 32.5 25.166 43.5 29.499s26.5 6.5 46.5 6.5h395l78 -82zM482 1183l-74 -418.002l-95 -83l-68 83l64 364c5.33301 30.667 9.83301 49.834 13.5 57.501s14.167 18.834 31.5 33.501l60 52z
M379 600.999l-72 -413l-111 -90l-34 42c-11.333 14 -17 30.333 -17 49c0 7.33301 2.66699 25.333 8 54l63 358l97 81zM331 163.999h425l73 -83l-102 -81h-374c-48 -0.666992 -81.333 9.33301 -100 30l-34 43z" />
    <glyph glyph-name="cacute" unicode="&#x107;" horiz-adv-x="874" 
d="M819 1674h193l-239 -201h-192zM939 1201l-423 0.000976562l-75 92l42 36c18 15.333 32.5 25.166 43.5 29.499s26.5 6.5 46.5 6.5h395l78 -82zM482 1183l-74 -418.002l-95 -83l-68 83l64 364c5.33301 30.667 9.83301 49.834 13.5 57.501s14.167 18.834 31.5 33.501l60 52z
M379 600.999l-72 -413l-111 -90l-34 42c-11.333 14 -17 30.333 -17 49c0 7.33301 2.66699 25.333 8 54l63 358l97 81zM331 163.999h425l73 -83l-102 -81h-374c-48 -0.666992 -81.333 9.33301 -100 30l-34 43z" />
    <glyph glyph-name="Ccaron" unicode="&#x10c;" horiz-adv-x="874" 
d="M836 1662h168l-202 -194h-158l-132 194h166l64 -99zM939 1201l-423 0.000976562l-75 92l42 36c18 15.333 32.5 25.166 43.5 29.499s26.5 6.5 46.5 6.5h395l78 -82zM482 1183l-74 -418.002l-95 -83l-68 83l64 364c5.33301 30.667 9.83301 49.834 13.5 57.501
s14.167 18.834 31.5 33.501l60 52zM379 600.999l-72 -413l-111 -90l-34 42c-11.333 14 -17 30.333 -17 49c0 7.33301 2.66699 25.333 8 54l63 358l97 81zM331 163.999h425l73 -83l-102 -81h-374c-48 -0.666992 -81.333 9.33301 -100 30l-34 43z" />
    <glyph glyph-name="ccaron" unicode="&#x10d;" horiz-adv-x="874" 
d="M836 1662h168l-202 -194h-158l-132 194h166l64 -99zM939 1201l-423 0.000976562l-75 92l42 36c18 15.333 32.5 25.166 43.5 29.499s26.5 6.5 46.5 6.5h395l78 -82zM482 1183l-74 -418.002l-95 -83l-68 83l64 364c5.33301 30.667 9.83301 49.834 13.5 57.501
s14.167 18.834 31.5 33.501l60 52zM379 600.999l-72 -413l-111 -90l-34 42c-11.333 14 -17 30.333 -17 49c0 7.33301 2.66699 25.333 8 54l63 358l97 81zM331 163.999h425l73 -83l-102 -81h-374c-48 -0.666992 -81.333 9.33301 -100 30l-34 43z" />
    <glyph glyph-name="dmacron" unicode="&#x111;" horiz-adv-x="1065" 
d="M979 1201h-409l-140 164h548c24 0 40.5 -2 49.5 -6s19.833 -14 32.5 -30l32 -40zM536 1184l-68 -384l-93 -88l-70 88l95 542zM926 765l72 407l115 93l31 -38c10.667 -14 16 -31 16 -51c0 -10 -1.66699 -24 -5 -42l-65 -369l-93 -88zM431 589l-70 -396l-192 -162l97 548
l101 86zM897 601l100 76l64 -76l-65 -368c-4.66699 -28 -9.5 -47.667 -14.5 -59s-13.5 -22.333 -25.5 -33l-59 -50l-74 86zM385 164h406.999l80 -97l-32 -31c-27.333 -24.667 -62.666 -36.667 -105.999 -36h-548zM493.999 771h219l67 -82l-96 -82h-219l-70 82zM169.999 771
h109l68 -82l-97 -82h-109l-70 82z" />
    <glyph glyph-name="Gbreve" unicode="&#x11e;" horiz-adv-x="983" 
d="M682 1582l166 0.000976562l49 80h115l-6 -35c-3.33301 -20 -12 -40 -26 -60l-54 -65c-19.333 -24 -49.333 -35.667 -90 -35h-170c-34.667 1.33301 -60 15 -76 41l-25 47c-10.667 19.333 -15.667 35 -15 47c0 1.33301 0.333008 3.66602 1 6.99902l9 53h115zM949 1201
h-430.998l-76 85l43 37c23.333 20 40.166 32 50.499 36s29.166 6 56.499 6h386l71 -79zM482.002 1185l-78 -440l-94 -75l-68 85l67 377c4 22.667 9.5 40 16.5 52s19.5 25.333 37.5 40l52 40zM377.002 591.001l-72 -412l-111 -88l-26 32c-16.667 20 -25 39 -25 57
c0 8 2 24 6 48l64 363l97 79zM727.002 755.001h283l-197 -164h-115l-72 79zM768.002 175.001l70 396l191 156l-90 -510c-4.66699 -26.667 -9.66699 -45 -15 -55s-17 -22 -35 -36l-48 -40zM333.002 164.001h404.001l79 -101l-55 -43c-18.667 -13.333 -46 -20 -82 -20h-322
c-32.667 0 -55.834 1.66699 -69.501 5s-25.167 10.333 -34.5 21l-37 40z" />
    <glyph glyph-name="gbreve" unicode="&#x11f;" horiz-adv-x="983" 
d="M682 1582l166 0.000976562l49 80h115l-6 -35c-3.33301 -20 -12 -40 -26 -60l-54 -65c-19.333 -24 -49.333 -35.667 -90 -35h-170c-34.667 1.33301 -60 15 -76 41l-25 47c-10.667 19.333 -15.667 35 -15 47c0 1.33301 0.333008 3.66602 1 6.99902l9 53h115zM949 1201
h-430.998l-76 85l43 37c23.333 20 40.166 32 50.499 36s29.166 6 56.499 6h386l71 -79zM482.002 1185l-78 -440l-94 -75l-68 85l67 377c4 22.667 9.5 40 16.5 52s19.5 25.333 37.5 40l52 40zM377.002 591.001l-72 -412l-111 -88l-26 32c-16.667 20 -25 39 -25 57
c0 8 2 24 6 48l64 363l97 79zM727.002 755.001h283l-197 -164h-115l-72 79zM768.002 175.001l70 396l191 156l-90 -510c-4.66699 -26.667 -9.66699 -45 -15 -55s-17 -22 -35 -36l-48 -40zM333.002 164.001h404.001l79 -101l-55 -43c-18.667 -13.333 -46 -20 -82 -20h-322
c-32.667 0 -55.834 1.66699 -69.501 5s-25.167 10.333 -34.5 21l-37 40z" />
    <glyph glyph-name="Idot" unicode="&#x130;" horiz-adv-x="382" 
d="M568 1660l-29 -164h-164l29 164h164zM500 1288l-92 -524l-94 -84l-70 84l92 524l101 91zM379 601l-93 -528l-95 -87l-69 87l93 528l99 79z" />
    <glyph glyph-name="dotlessi" unicode="&#x131;" horiz-adv-x="382" 
d="M500 1288l-92 -524l-94 -84l-70 84l92 524l101 91zM379 601l-93 -528l-95 -87l-69 87l93 528l99 79z" />
    <glyph glyph-name="Lslash" unicode="&#x141;" horiz-adv-x="874" 
d="M555 1287l-88 -498l-94 -84l-70 84l88 498l101 92zM430 576l-68 -387l-193 -161l97 548l99 81zM390 164h429l70 -83l-99 -81h-598zM492 766h218l68 -82l-97 -82h-218l-68 81zM166 767h106l71 -82l-100 -82h-106l-70 82z" />
    <glyph glyph-name="lslash" unicode="&#x142;" horiz-adv-x="874" 
d="M555 1287l-88 -498l-94 -84l-70 84l88 498l101 92zM430 576l-68 -387l-193 -161l97 548l99 81zM390 164h429l70 -83l-99 -81h-598zM492 766h218l68 -82l-97 -82h-218l-68 81zM166 767h106l71 -82l-100 -82h-106l-70 82z" />
    <glyph glyph-name="OE" unicode="&#x152;" horiz-adv-x="1502" 
d="M904 1201l-389 0.000976562l-74 87l59 50c13.333 11.333 25.333 18.666 36 21.999s27 5 49 5h377l55 -72zM1569 1201h-429l-75 87l94 77h439l76 -78zM481 1181l-72.999 -417.001l-92 -81l-72 81l66 372c4 24.667 9.16699 42.334 15.5 53.001s19.166 23.667 38.499 39
l49 39zM1111 1181l-70 -393l-95 -81l-68 81l71 406l89 74zM1068 765h424l72 -82l-100 -82h-428l-66 82zM306.001 187l-99 -88l-36 39c-17.333 19.333 -26 37.333 -26 54c0 7.33301 1.66699 20 5 38l65 371l101 82l63 -82zM935.001 185l-96 -83l-68 83l69 389l103 84l61 -79z
M746.001 164l69.999 -85.999l-88 -78h-376c-20 0 -34.667 1.66699 -44 5s-19.666 10.666 -30.999 21.999l-44 44l99 93h414zM1386 164.001l75 -86l-103 -78h-434l-63 79l96 85h429z" />
    <glyph glyph-name="oe" unicode="&#x153;" horiz-adv-x="1502" 
d="M904 1201l-389 0.000976562l-74 87l59 50c13.333 11.333 25.333 18.666 36 21.999s27 5 49 5h377l55 -72zM1569 1201h-429l-75 87l94 77h439l76 -78zM481 1181l-72.999 -417.001l-92 -81l-72 81l66 372c4 24.667 9.16699 42.334 15.5 53.001s19.166 23.667 38.499 39
l49 39zM1111 1181l-70 -393l-95 -81l-68 81l71 406l89 74zM1068 765h424l72 -82l-100 -82h-428l-66 82zM306.001 187l-99 -88l-36 39c-17.333 19.333 -26 37.333 -26 54c0 7.33301 1.66699 20 5 38l65 371l101 82l63 -82zM935.001 185l-96 -83l-68 83l69 389l103 84l61 -79z
M746.001 164l69.999 -85.999l-88 -78h-376c-20 0 -34.667 1.66699 -44 5s-19.666 10.666 -30.999 21.999l-44 44l99 93h414zM1386 164.001l75 -86l-103 -78h-434l-63 79l96 85h429z" />
    <glyph glyph-name="Scedilla" unicode="&#x15e;" 
d="M478 -149l20 114.999h131l-16 -90c-4 -23.333 -16 -43.666 -36 -60.999l-41 -34zM320 -161.001h136.001l59 -75l-31 -27c-13.333 -12 -25.333 -19.833 -36 -23.5s-26.334 -5.5 -47.001 -5.5h-104l-55 64zM949.001 1201h-436l-76 91l48 41
c18 15.333 32.167 24.5 42.5 27.5s30.833 4.5 61.5 4.5h389l70 -85zM481.001 1183l-68.999 -397l-98 -80l-28 33c-20.667 24 -31 49.667 -31 77c0 8 1.33301 19.333 4 34l49 278c5.33301 29.333 11.666 50.833 18.999 64.5s21.333 28.5 42 44.5l42 33zM441.002 764.999
h351.001c28 0 47.667 -2.5 59 -7.5s24.333 -17.5 39 -37.5l27 -36l-101 -83h-354c-24 0 -42.333 3 -55 9s-26.334 18.333 -41.001 37l-28 35zM769.003 178.999l69 396l100 80l34 -44c16 -21.333 24 -41 24 -59c0 -8 -1.33301 -19 -4 -33l-54 -309
c-4.66699 -28.667 -19.667 -54 -45 -76l-52 -42zM302.003 163.999l434 0.000976562l79 -94l-38 -34c-16.667 -14.667 -31.667 -24.334 -45 -29.001s-33 -7 -59 -7h-400l-69 80z" />
    <glyph glyph-name="scedilla" unicode="&#x15f;" 
d="M478 -149l20 114.999h131l-16 -90c-4 -23.333 -16 -43.666 -36 -60.999l-41 -34zM320 -161.001h136.001l59 -75l-31 -27c-13.333 -12 -25.333 -19.833 -36 -23.5s-26.334 -5.5 -47.001 -5.5h-104l-55 64zM949.001 1201h-436l-76 91l48 41
c18 15.333 32.167 24.5 42.5 27.5s30.833 4.5 61.5 4.5h389l70 -85zM481.001 1183l-68.999 -397l-98 -80l-28 33c-20.667 24 -31 49.667 -31 77c0 8 1.33301 19.333 4 34l49 278c5.33301 29.333 11.666 50.833 18.999 64.5s21.333 28.5 42 44.5l42 33zM441.002 764.999
h351.001c28 0 47.667 -2.5 59 -7.5s24.333 -17.5 39 -37.5l27 -36l-101 -83h-354c-24 0 -42.333 3 -55 9s-26.334 18.333 -41.001 37l-28 35zM769.003 178.999l69 396l100 80l34 -44c16 -21.333 24 -41 24 -59c0 -8 -1.33301 -19 -4 -33l-54 -309
c-4.66699 -28.667 -19.667 -54 -45 -76l-52 -42zM302.003 163.999l434 0.000976562l79 -94l-38 -34c-16.667 -14.667 -31.667 -24.334 -45 -29.001s-33 -7 -59 -7h-400l-69 80z" />
    <glyph glyph-name="Scaron" unicode="&#x160;" 
d="M949 1201h-436l-76 91l48 41c18 15.333 32.167 24.5 42.5 27.5s30.833 4.5 61.5 4.5h389l70 -85zM481 1183l-68.999 -397l-98 -80l-28 33c-20.667 24 -31 49.667 -31 77c0 8 1.33301 19.333 4 34l49 278c5.33301 29.333 11.666 50.833 18.999 64.5s21.333 28.5 42 44.5
l42 33zM441.001 765h351.001c28 0 47.667 -2.5 59 -7.5s24.333 -17.5 39 -37.5l27 -36l-101 -83h-354c-24 0 -42.333 3 -55 9s-26.334 18.333 -41.001 37l-28 35zM769.002 179l69 396l100 80l34 -44c16 -21.333 24 -41 24 -59c0 -8 -1.33301 -19 -4 -33l-54 -309
c-4.66699 -28.667 -19.667 -54 -45 -76l-52 -42zM302.002 164l434 0.000976562l79 -94l-38 -34c-16.667 -14.667 -31.667 -24.334 -45 -29.001s-33 -7 -59 -7h-400l-69 80zM876.002 1662h168l-202 -194h-158l-132 194h166l64 -99z" />
    <glyph glyph-name="scaron" unicode="&#x161;" 
d="M949 1201h-436l-76 91l48 41c18 15.333 32.167 24.5 42.5 27.5s30.833 4.5 61.5 4.5h389l70 -85zM481 1183l-68.999 -397l-98 -80l-28 33c-20.667 24 -31 49.667 -31 77c0 8 1.33301 19.333 4 34l49 278c5.33301 29.333 11.666 50.833 18.999 64.5s21.333 28.5 42 44.5
l42 33zM441.001 765h351.001c28 0 47.667 -2.5 59 -7.5s24.333 -17.5 39 -37.5l27 -36l-101 -83h-354c-24 0 -42.333 3 -55 9s-26.334 18.333 -41.001 37l-28 35zM769.002 179l69 396l100 80l34 -44c16 -21.333 24 -41 24 -59c0 -8 -1.33301 -19 -4 -33l-54 -309
c-4.66699 -28.667 -19.667 -54 -45 -76l-52 -42zM302.002 164l434 0.000976562l79 -94l-38 -34c-16.667 -14.667 -31.667 -24.334 -45 -29.001s-33 -7 -59 -7h-400l-69 80zM876.002 1662h168l-202 -194h-158l-132 194h166l64 -99z" />
    <glyph glyph-name="Ydieresis" unicode="&#x178;" horiz-adv-x="983" 
d="M473 1288l-89 -502l-91 -79l-31 35c-22 25.333 -33 50 -33 74c0 12.667 1.33301 26.667 4 42l76 430l102 91zM1101 1288l-89 -502l-93 -82l-71 82l89 502l101 91zM413 765l408 0.000976562l69 -82l-99 -82h-315c-42.667 0 -70.5 2.16699 -83.5 6.5
s-27.5 16.166 -43.5 35.499l-33 40zM976 579.001l-63 -358c-6.66699 -35.333 -22.667 -64 -48 -86l-54 -43l-69 88l69 396l100 83zM275 164.001h440l71 -92l-55 -47c-12.667 -10.667 -25.167 -17.5 -37.5 -20.5s-33.5 -4.5 -63.5 -4.5h-384l-62 89zM969 1660l-29 -164h-164
l29 164h164zM764 1660l-29 -164h-164l29 164h164z" />
    <glyph glyph-name="Zcaron" unicode="&#x17d;" horiz-adv-x="847" 
d="M949 1365l68 -82l-97 -82h-554l-70 82l99 82h554zM914 1040l-241 -331l-120 -30l-10 130l261 357h110v-126zM560 556l-261 -359h-125v106l251 345l127 31zM737 164l69 -82l-98 -82h-568l-71 82l100 82h568zM795 1662h168l-202 -194h-158l-132 194h166l64 -99z" />
    <glyph glyph-name="zcaron" unicode="&#x17e;" horiz-adv-x="847" 
d="M949 1365l68 -82l-97 -82h-554l-70 82l99 82h554zM914 1040l-241 -331l-120 -30l-10 130l261 357h110v-126zM560 556l-261 -359h-125v106l251 345l127 31zM737 164l69 -82l-98 -82h-568l-71 82l100 82h568zM795 1662h168l-202 -194h-158l-132 194h166l64 -99z" />
    <glyph glyph-name="florin" unicode="&#x192;" 
d="M793 1201l-72.001 86l48 43c20 18 34.333 28.333 43 31s30.334 4 65.001 4h248l71 -82l-100 -82h-303zM763.999 1179l-56 -317l-95 -81l-69 81l48 272c4 23.333 8.83301 40 14.5 50s17.5 22.667 35.5 38l52 44zM737.999 842h144l67 -86l-96 -78h-151l-65 78zM365.999 842
h145l66 -86l-95 -78h-151l-65 78zM387.999 -22l118 669l101 86l64 -81l-111 -629c-4 -24 -8.33301 -39.5 -13 -46.5s-19 -20.5 -43 -40.5l-52 -45zM366.999 -45l64 -86l-48 -43c-19.333 -18 -33.333 -28.333 -42 -31s-30.667 -4 -66 -4h-111l-71 82l100 82h174z" />
    <glyph glyph-name="circumflex" unicode="&#x2c6;" horiz-adv-x="1024" 
d="M849 1468l-63 99l-95 -99h-166l193 194h158l141 -194h-168z" />
    <glyph glyph-name="caron" unicode="&#x2c7;" horiz-adv-x="1024" 
d="M883 1662h168l-202 -194h-158l-132 194h166l64 -99z" />
    <glyph glyph-name="macron" unicode="&#x2c9;" horiz-adv-x="1024" 
d="M983 1503h-436l-59 63l73 67h445l55 -67z" />
    <glyph glyph-name="breve" unicode="&#x2d8;" horiz-adv-x="1024" 
d="M702 1582l166 0.000976562l49 80h115l-6 -35c-3.33301 -20 -12 -40 -26 -60l-54 -65c-19.333 -24 -49.333 -35.667 -90 -35h-170c-34.667 1.33301 -60 15 -76 41l-25 47c-10.667 19.333 -15.667 35 -15 47c0 1.33301 0.333008 3.66602 1 6.99902l9 53h115z" />
    <glyph glyph-name="dotaccent" unicode="&#x2d9;" horiz-adv-x="1024" 
d="M889 1660l-29 -164h-164l29 164h164z" />
    <glyph glyph-name="ring" unicode="&#x2da;" horiz-adv-x="1024" 
d="M927 1698l-41 -234h-232l41 234h232zM831 1616h-68l-13 -70h69z" />
    <glyph glyph-name="ogonek" unicode="&#x2db;" horiz-adv-x="1024" 
d="M666 -34h131l-20 -115l-83 -70l-29 34c-11.333 12.667 -17 27 -17 43c0 4 0.666992 10 2 18zM804 -161h126l55 -67l-78 -64h-94c-32.667 0 -56.667 8 -72 24l-26 28z" />
    <glyph glyph-name="tilde" unicode="&#x2dc;" horiz-adv-x="1024" 
d="M1033 1671l-24 -135l-137 -51l-159 66l-163 -54l24 135l148 49l149 -63z" />
    <glyph glyph-name="hungarumlaut" unicode="&#x2dd;" horiz-adv-x="1024" 
d="M740 1674h174l-183 -201h-173zM975 1674h174l-184 -201h-173z" />
    <glyph glyph-name="pi" unicode="&#x3c0;" horiz-adv-x="1211" 
d="M213 0v833h-153v148h1091v-148h-150v-833h-164v833h-460v-833h-164z" />
    <glyph glyph-name="endash" unicode="&#x2013;" horiz-adv-x="901" 
d="M819 491h-600l-55 126l117 38h602l57 -126z" />
    <glyph glyph-name="emdash" unicode="&#x2014;" horiz-adv-x="1092" 
d="M1010 491h-791l-55 126l117 38h793l58 -126z" />
    <glyph glyph-name="quoteleft" unicode="&#x2018;" horiz-adv-x="437" 
d="M488 1065h-164l41 231l96 83l68 -83z" />
    <glyph glyph-name="quoteright" unicode="&#x2019;" horiz-adv-x="437" 
d="M542 1365l-41 -231l-97 -83l-67 83l41 231h164z" />
    <glyph glyph-name="quotesinglbase" unicode="&#x201a;" horiz-adv-x="437" 
d="M330 164l-41 -231l-97 -83l-67 83l41 231h164z" />
    <glyph glyph-name="quotedblleft" unicode="&#x201c;" horiz-adv-x="710" 
d="M488 1065h-164l41 231l96 83l68 -83zM761 1065h-164l41 231l96 83l68 -83z" />
    <glyph glyph-name="quotedblright" unicode="&#x201d;" horiz-adv-x="710" 
d="M542 1365l-41 -231l-97 -83l-67 83l41 231h164zM815 1365l-41 -231l-97 -83l-67 83l41 231h164z" />
    <glyph glyph-name="quotedblbase" unicode="&#x201e;" horiz-adv-x="710" 
d="M330 164l-41 -231l-97 -83l-67 83l41 231h164zM603 164l-41 -231l-97 -83l-67 83l41 231h164z" />
    <glyph glyph-name="dagger" unicode="&#x2020;" 
d="M816 1292l-56 -313l-95 -82l-69 82l59 330l95 70zM343 955h227l69 -82l-98 -82h-227l-71 80zM781 955h237l71 -82l-100 -82h-237l-69 82zM720 776l-126 -716l-89 -74l-72 90l120 684l104 90z" />
    <glyph glyph-name="daggerdbl" unicode="&#x2021;" 
d="M435 73l62 352l96 81l68 -81l-65 -368l-95 -71zM916 448h-227l-69 82l98 82h227l71 -80zM477 448h-237l-71 82l100 82h237l69 -82zM812 1292l-62 -352l-95 -81l-68 81l64 369l96 70zM333 917h227l69 -82l-98 -82h-227l-71 80zM772 917h237l71 -82l-100 -82h-237l-69 82z
M716 738l-18 -105l-96 -80l-68 80l19 105l96 80z" />
    <glyph glyph-name="bullet" unicode="&#x2022;" horiz-adv-x="1365" 
d="M826 978c75.333 0 140.666 -27.667 195.999 -83c56 -55.333 84 -122.333 84 -201s-27.667 -145.667 -83 -201s-122.333 -83 -201 -83c-77.333 0 -143.666 27.333 -198.999 82c-56.667 56 -85 123.333 -85 202c0 80.667 28 148 84 202c57.333 54.667 125.333 82 204 82z
" />
    <glyph glyph-name="ellipsis" unicode="&#x2026;" horiz-adv-x="1311" 
d="M330 164l-29 -164h-164l29 164h164zM767 164l-29 -164h-164l29 164h164zM1204 164l-29 -164h-164l29 164h164z" />
    <glyph glyph-name="perthousand" unicode="&#x2030;" horiz-adv-x="2326" 
d="M1455 1049l-443 -376h-114l18 103l442 376h116zM879 570l-443 -376h-115l19 103l442 376h116zM697 1201l-240 -0.000976562l-77 93l56 49c11.333 10.667 20.5 17 27.5 19s21.833 3 44.5 3h193c22 0 36.667 -1.66699 44 -5s19 -13.666 35 -30.999l31 -34zM427 1180
l-69.999 -396.999l-110 -86l-23 31c-18.667 25.333 -28 43.666 -28 54.999c0 10 1.66699 25.333 5 46l55 309c5.33301 29.333 9.66602 47.5 12.999 54.5s13 17.833 29 32.5l53 47zM656.001 783l70 397l108 92l25 -28c19.333 -21.333 29 -42 29 -62c0 -10 -1 -20 -3 -30
l-58 -332c-4.66699 -24.667 -9.16699 -41 -13.5 -49s-15.5 -20.333 -33.5 -37l-45 -41zM384.001 765h243.001l79 -94l-28 -24c-33.333 -30.667 -62 -46 -86 -46h-212c-24.667 0 -41.834 1.83301 -51.501 5.5s-19.5 12.167 -29.5 25.5l-31 39zM1431 601l-240 -0.000976562
l-77 93l55 49c12 10.667 21.5 17 28.5 19s21.833 3 44.5 3h193c22 0 36.667 -1.66699 44 -5s19 -13.666 35 -30.999l31 -33zM1161 578.999l-70.001 -395.999l-110 -87l-23 32c-14.667 19.333 -23.167 31.166 -25.5 35.499s-3.5 10.5 -3.5 18.5s2 23.667 6 47l55 308
c4.66699 29.333 8.83398 47.5 12.501 54.5s13.5 17.833 29.5 32.5l53 47zM1390 183l70 396l108 92l25 -28c19.333 -21.333 29 -42 29 -62c0 -8.66699 -1 -18.667 -3 -30l-58 -331c-4.66699 -25.333 -9.16699 -42 -13.5 -50s-15.5 -20.333 -33.5 -37l-46 -41zM1118 164
h241.999l79 -93l-27 -25c-34 -30.667 -62.667 -46 -86 -46h-212c-25.333 -0 -42.666 1.83301 -51.999 5.5s-19.333 12.167 -30 25.5l-30 40zM2172 601l-239.999 -0.000976562l-76 93l55 49c11.333 10.667 20.666 17 27.999 19s22 3 44 3h194c21.333 0 35.666 -1.66699 43 -5
c7.33301 -3.33301 19.333 -13.666 36 -30.999l30 -33zM1902 578.999l-69.999 -396.001l-110 -87l-23 32c-14 18.667 -22.167 30.334 -24.5 35.001s-3.5 11 -3.5 19c0 9.33301 2 25 6 47l54 308c5.33301 29.333 9.66602 47.5 12.999 54.5s13 17.833 29 32.5l53 47z
M2132 182.998l70 396.001l107 92l26 -28c18.667 -20.667 28 -41.334 28 -62.001c0 -10.667 -1 -20.667 -3 -30l-58 -331c-4.66699 -25.333 -9.16699 -42 -13.5 -50s-15.5 -20.333 -33.5 -37l-45 -41zM1859 163.999h243l79 -93l-27 -25c-34 -30.667 -62.667 -46 -86 -46h-212
c-25.333 0 -42.833 1.83301 -52.5 5.5s-19.5 12.167 -29.5 25.5l-31 40z" />
    <glyph glyph-name="guilsinglleft" unicode="&#x2039;" horiz-adv-x="530" 
d="M127 461l15 88h89l175 -213l-15 -86h-89zM146 571l17 93l232 187h102l-18 -98l-234 -182h-99z" />
    <glyph glyph-name="guilsinglright" unicode="&#x203a;" horiz-adv-x="530" 
d="M496 640l-16 -88h-99l-166 202l17 97h88zM476 529l-16 -93l-232 -186h-102l17 98l234 181h99z" />
    <glyph glyph-name="franc" unicode="&#x20a3;" horiz-adv-x="1884" 
d="M940 1201h-425l-137 164h591l77 -80zM481 1182l-69 -393l-92 -82l-72 82l98 557zM438 765h425l73 -80l-102 -84h-425l-70 80zM376 586l-90 -513l-93 -87l-71 87l88 500l102 88zM1793 1201h-403.999l-136 164h545c31.333 0 54.666 -8 69.999 -24l41 -46zM1354 1177
l-69 -393l-91 -73l-73 73l98 557zM1749 784l70 393l114 93l24 -27c16 -17.333 24 -37.333 24 -60c0 -9.33301 -1.33301 -21.333 -4 -36l-53 -303c-5.33301 -32 -18 -58.333 -38 -79l-72 -60zM1318 765h403l67 -82l-67 -59c-11.333 -10 -22.5 -16.333 -33.5 -19
s-30.833 -4 -59.5 -4h-341l-74 82zM1250 584l-91 -513l-92 -85l-72 85l88 496l102 92zM1400 567l393 -463l-21 -118h-97l-408 485l16 96h117z" />
    <glyph glyph-name="trademark" unicode="&#x2122;" horiz-adv-x="1133" 
d="M666 1231h-378l-46 45l56 48h384l43 -48zM518 1208l-41 -232l-57 -45l-41 51l40 226h99zM462 888l-54 -304l-58 -46l-42 46l54 304l58 43zM1139 1231h-247l-48 52l50 41h279l34 -41zM1063 1210l-33 -183l-57 -45l-43 45l33 183h100zM871 1221l-42 -239l-56 -46l-44 46
l43 241l57 47zM1255 1227l-43 -245l-58 -46l-42 46l41 234l68 51zM813 888l-53 -299l-58 -51l-42 51l53 299l60 48zM1196 888l-53 -299l-59 -51l-41 51l53 299l58 48z" />
    <glyph glyph-name="Omega" unicode="&#x2126;" horiz-adv-x="1365" 
d="M58 0l-0.00390625 148h356c-237.333 140.667 -356 340 -356 598c0 199.333 70.667 363.666 212 492.999c116.667 106 254.334 159 413.001 159s296.334 -53.333 413.001 -160c140.667 -128.667 211 -293 211 -493c0 -258 -118.333 -457 -355 -597h355v-148h-536v133
c92.667 52.667 164.334 108.334 215.001 167.001c102 118 153 260 153 426c0 154.667 -50 284 -150 388c-87.333 90.667 -188.666 136 -303.999 136c-110 0 -207.667 -39 -293 -117c-110.667 -100.667 -166 -236.667 -166 -408c0 -256.667 123.333 -454 370 -592v-133h-538z
" />
    <glyph glyph-name="partialdiff" unicode="&#x2202;" horiz-adv-x="1024" 
d="M168 1226l21.998 145.003c117.333 -16 215 -40.333 293 -73c170 -70.667 298.333 -191.667 385 -363c64.667 -129.333 97 -272 97 -428c0 -134 -28.333 -244 -85 -330c-43.333 -66 -99.333 -116.667 -168 -152c-62 -31.333 -128 -47 -198 -47c-100 0 -190.667 31 -272 93
c-46 34.667 -83.667 76 -113 124c-46.667 75.333 -70 157.333 -70 246c0 91.333 24.667 176 74 254c42 67.333 98 118 168 152c58.667 28.667 120 43 184 43c63.333 0 117.333 -10.833 162 -32.5s89 -58.834 133 -111.501c-39.333 94 -74.166 162.667 -104.499 206
s-72.5 84.666 -126.5 123.999c-56 41.333 -114.667 74.166 -176 98.499s-129.666 41.5 -204.999 51.5zM520.998 767.003c-77.333 0 -143.667 -28 -199 -84c-30 -30 -53.667 -67.333 -71 -112s-26 -90.667 -26 -138c0 -99.333 32.333 -182 97 -248
c54 -54.667 117.333 -82 190 -82c74.667 0 139 29 193 87c62 66 93 151 93 255c0 109.333 -33.667 194 -101 254c-50 44 -108.667 66.667 -176 68z" />
    <glyph glyph-name="Delta" unicode="&#x2206;" horiz-adv-x="1365" 
d="M53 0l539 1365h176l544 -1365h-1259zM288 153h786l-393 1012z" />
    <glyph glyph-name="product" unicode="&#x220f;" horiz-adv-x="1440" 
d="M76 1536h1288v-153h-164v-1742h164v-153h-495v153h167v1742h-633v-1742h167v-153h-494v153h163v1742h-163v153z" />
    <glyph glyph-name="summation" unicode="&#x2211;" horiz-adv-x="1365" 
d="M1230 1536v-474h-149l-15 320h-827l516 -830l-516 -911h846l9 317h155v-470h-1194v171l507 893l-507 815v169h1175z" />
    <glyph glyph-name="minus" unicode="&#x2212;" 
d="M1056 765l71 -82l-100 -82h-833l-71 80l100 84h833z" />
    <glyph glyph-name="fraction" unicode="&#x2215;" horiz-adv-x="396" 
d="M-158 67l387 581l89 31l17 -76l-383 -576l-90 -34zM300 755l387 581l88 29l18 -74l-383 -576l-92 -36z" />
    <glyph glyph-name="periodcentered" unicode="&#x2219;" horiz-adv-x="492" 
d="M463 765l-29 -164h-164l29 164h164z" />
    <glyph glyph-name="radical" unicode="&#x221a;" horiz-adv-x="1365" 
d="M1365 1698l0.000976562 -153h-397l-428 -1545h-205l-162 605h-173v153h307l71 -253c6.66699 -26 23 -111 49 -255l5 -31h13c25.333 132 46.666 234.167 63.999 306.5s51.333 199.5 102 381.5l216 791h538z" />
    <glyph glyph-name="infinity" unicode="&#x221e;" horiz-adv-x="1365" 
d="M686 588c-98.667 -138.667 -210.329 -208.001 -334.996 -208.001c-104.667 0 -186.334 36.667 -245.001 110c-46 56.667 -69 126.334 -69 209.001c0 94.667 30.667 170.667 92 228s135.666 86 222.999 86c123.333 0 232.333 -68.667 327 -206c96 138 208.333 207 337 207
c107.333 0 190.666 -39 249.999 -117c41.333 -54.667 62 -121.667 62 -201c0 -100 -33 -179.333 -99 -238c-58.667 -52 -129.334 -78 -212.001 -78c-126.667 0 -237 69.333 -331 208zM764.005 696.999c40.667 -63.333 79.001 -108.667 115.001 -136s75.667 -41 119 -41
c51.333 0 93.333 18.667 126 56c28 32.667 42 73 42 121c0 60 -21 106.667 -63 140c-32 24.667 -67.667 37 -107 37c-64.667 0 -124.334 -34 -179.001 -102c-6.66699 -8.66699 -17.167 -23.167 -31.5 -43.5s-21.5 -30.833 -21.5 -31.5zM601.006 695.998
c-40.667 63.333 -79 108.666 -115 135.999s-75.333 41 -118 41c-51.333 0 -93.333 -18.667 -126 -56c-28.667 -32 -43 -72.333 -43 -121c0 -59.333 21.333 -105.666 64 -138.999c31.333 -24.667 66.666 -37 105.999 -37c64.667 0 124.334 33.667 179.001 101l31.5 44
c14.333 20 21.5 30.333 21.5 31z" />
    <glyph glyph-name="integral" unicode="&#x222b;" horiz-adv-x="1024" 
d="M183 -490l35.001 146.002c36 -13.333 67.333 -20 94 -20c65.333 0 103 31.667 113 95c3.33301 22.667 5 74 5 154v1223c0 137.333 6 226.666 18 267.999c14.667 50 44 89.167 88 117.5s97.333 42.5 160 42.5c40 0 88.333 -7.33301 145 -22l-35 -146
c-36 13.333 -67.333 20 -94 20c-65.333 0 -103 -31.667 -113 -95c-2.66699 -16.667 -4.33398 -93.334 -5.00098 -230.001v-1148c0 -109.333 -2.66699 -183.333 -8 -222s-18 -72 -38 -100c-46 -68 -125.333 -102 -238 -102c-46.667 0 -89 6.33301 -127 19z" />
    <glyph glyph-name="approxequal" unicode="&#x2248;" horiz-adv-x="1024" 
d="M115 712l-96 62.002c22 49.333 47 93 75 131c54 74 123.667 111 209 111c50.667 0 126.334 -23 227.001 -69c60.667 -28 102.5 -45.667 125.5 -53s46.5 -11 70.5 -11c38 0 70 9.83301 96 29.5s54.333 55.5 85 107.5l98 -58
c-39.333 -78.667 -78.333 -134.334 -117 -167.001c-54.667 -46 -115.334 -69 -182.001 -69c-28.667 0 -61 6.16699 -97 18.5s-99.667 39.166 -191 80.499c-51.333 22.667 -94 34 -128 34c-64.667 0 -123 -49 -175 -147zM115 361.002l-96.002 62.002
c22.667 50 47.667 93.667 75 131c54 74 123.667 111 209 111c50.667 0 126.334 -23 227.001 -69c60.667 -27.333 102.5 -44.666 125.5 -51.999s46.5 -11 70.5 -11c38 0 70 9.66699 96 29s54.333 54.666 85 105.999l98 -57c-38.667 -78.667 -77.667 -134.334 -117 -167.001
c-54.667 -45.333 -115.334 -68 -182.001 -68c-28 0 -60.167 6.16699 -96.5 18.5s-100.166 38.833 -191.499 79.5c-51.333 22.667 -94 34 -128 34c-34.667 0 -65.667 -11.333 -93 -34s-54.666 -60.334 -81.999 -113.001z" />
    <glyph glyph-name="notequal" unicode="&#x2260;" 
d="M1080 901l71 -82l-100 -82h-833l-71 80l100 84h833zM1032 628l71 -82l-100 -82h-833l-71 80l100 84h833zM975 1075l-103 -144h-198l162 227l117 23zM314 200l-27 111l88 123h197l-146 -205zM500 658l35 49h198l-35 -49h-198z" />
    <glyph glyph-name="lessequal" unicode="&#x2264;" horiz-adv-x="1024" 
d="M955 1264v-156l-712 -318l712 -316v-157l-887 401v141zM955 257v-153h-887v153h887z" />
    <glyph glyph-name="greaterequal" unicode="&#x2265;" horiz-adv-x="1024" 
d="M68 317v157l712 317l-712 317v156l887 -405v-142zM68 104v153h887v-153h-887z" />
    <glyph glyph-name="lozenge" unicode="&#x25ca;" horiz-adv-x="1365" 
d="M683 1419l531 -736l-531 -736l-532 736zM683 1238l-404 -555l404 -554l403 554z" />
    <glyph glyph-name="apple" unicode="&#xf000;" horiz-adv-x="1365" 
d="M984 1416l-0.000976562 -21.001c0 -107.333 -42.333 -195.666 -127 -264.999c-32 -26 -60.667 -44 -86 -54s-55.666 -15 -90.999 -15c2 97.333 30.167 177.833 84.5 241.5s127.5 101.5 219.5 113.5zM1277 934.999c-43.333 -33.333 -76 -64 -98 -92
c-44.667 -56 -67 -120 -67 -192c0 -68.667 18 -130 54 -184s85.667 -94.667 149 -122c-44 -107.333 -90.333 -192.666 -139 -255.999c-73.333 -95.333 -142.666 -143 -207.999 -143c-20 0 -36.833 2.16699 -50.5 6.5s-51.834 19.5 -114.501 45.5
c-10.667 4.66699 -36.667 7 -78 7c-34.667 0 -59.667 -1.83301 -75 -5.5s-51 -16.834 -107 -39.501c-28 -11.333 -54.333 -17 -79 -17c-36.667 0 -74.667 14.5 -114 43.5s-76.666 70.167 -111.999 123.5c-48.667 72 -88 149 -118 231c-36 99.333 -54 195.333 -54 288
c0 122 33.333 226.667 100 314c68.667 89.333 163 134 283 134c44 0 96.667 -12 158 -36c45.333 -17.333 77.666 -26 96.999 -26c23.333 0 53 7 89 21c53.333 20 90.5 32.5 111.5 37.5s46.5 7.5 76.5 7.5c126 0 224.667 -48.667 296 -146z" />
    <glyph glyph-name="fi" unicode="&#xf001;" horiz-adv-x="1256" 
d="M940 1201h-425l-137 164h591l77 -80zM481 1183l-69 -393l-92 -82l-72 82l98 556zM438 765h425l73 -80l-102 -84h-425l-70 80zM376 586l-90 -513l-93 -87l-71 87l88 500l102 88zM1374 1288l-92 -524l-94 -84l-70 84l92 524l101 91zM1253 601l-93 -528l-95 -87l-69 87
l93 528l99 79z" />
    <glyph glyph-name="fl" unicode="&#xf002;" horiz-adv-x="1693" 
d="M940 1201h-425l-137 164h591l77 -80zM481 1183l-69 -393l-92 -82l-72 82l98 556zM438 765h425l73 -80l-102 -84h-425l-70 80zM376 586l-90 -513l-93 -87l-71 87l88 500l102 88zM1374 1287l-92 -523l-94 -83l-70 83l92 523l101 92zM1253 601l-73 -412l-192 -161l101 573
l99 80zM1209 164h429l69 -83l-98 -81h-598z" />
    <glyph glyph-name="glyph1" horiz-adv-x="0" 
 />
    <glyph glyph-name="glyph2" horiz-adv-x="512" 
 />
    <glyph glyph-name="glyph172" 
 />
    <glyph glyph-name="glyph226" horiz-adv-x="512" 
 />
    <glyph glyph-name="glyph227" horiz-adv-x="512" 
 />
    <glyph glyph-name="glyph228" horiz-adv-x="512" 
 />
    <glyph glyph-name="glyph229" horiz-adv-x="512" 
 />
    <glyph glyph-name="glyph230" horiz-adv-x="512" 
 />
    <glyph glyph-name="glyph231" horiz-adv-x="512" 
 />
    <glyph glyph-name="glyph232" horiz-adv-x="512" 
 />
    <glyph glyph-name="glyph233" horiz-adv-x="512" 
 />
    <glyph glyph-name="glyph234" horiz-adv-x="512" 
 />
    <glyph glyph-name="glyph235" horiz-adv-x="512" 
 />
    <glyph glyph-name="glyph236" horiz-adv-x="512" 
 />
    <glyph glyph-name="glyph237" horiz-adv-x="512" 
 />
    <glyph glyph-name="glyph238" horiz-adv-x="512" 
 />
    <glyph glyph-name="glyph239" horiz-adv-x="512" 
 />
    <glyph glyph-name="glyph240" horiz-adv-x="512" 
 />
    <glyph glyph-name="glyph241" horiz-adv-x="512" 
 />
    <glyph glyph-name="glyph242" horiz-adv-x="512" 
 />
    <glyph glyph-name="glyph243" horiz-adv-x="512" 
 />
    <glyph glyph-name="glyph244" horiz-adv-x="512" 
 />
    <glyph glyph-name="glyph245" horiz-adv-x="512" 
 />
    <glyph glyph-name="glyph246" horiz-adv-x="512" 
 />
    <glyph glyph-name="glyph247" horiz-adv-x="512" 
 />
    <glyph glyph-name="glyph248" horiz-adv-x="512" 
 />
    <glyph glyph-name="glyph249" horiz-adv-x="512" 
 />
    <glyph glyph-name="glyph250" horiz-adv-x="512" 
 />
    <glyph glyph-name="glyph251" horiz-adv-x="512" 
 />
    <glyph glyph-name="glyph252" horiz-adv-x="512" 
 />
    <glyph glyph-name="glyph253" horiz-adv-x="512" 
 />
    <glyph glyph-name="glyph254" horiz-adv-x="512" 
 />
    <glyph glyph-name="glyph255" horiz-adv-x="512" 
 />
    <glyph glyph-name="glyph256" horiz-adv-x="512" 
 />
    <glyph glyph-name="glyph257" horiz-adv-x="512" 
 />
    <glyph glyph-name="glyph294" horiz-adv-x="1024" 
d="M990 1660l-29 -164h-164l29 164h164zM785 1660l-29 -164h-164l29 164h164z" />
    <glyph glyph-name="glyph295" horiz-adv-x="512" 
 />
    </font>
</defs>
</svg>
